%TF.GenerationSoftware,KiCad,Pcbnew,7.0.8*%
%TF.CreationDate,2023-12-06T14:39:46-05:00*%
%TF.ProjectId,BMS1,424d5331-2e6b-4696-9361-645f70636258,1*%
%TF.SameCoordinates,Original*%
%TF.FileFunction,Paste,Bot*%
%TF.FilePolarity,Positive*%
%FSLAX46Y46*%
G04 Gerber Fmt 4.6, Leading zero omitted, Abs format (unit mm)*
G04 Created by KiCad (PCBNEW 7.0.8) date 2023-12-06 14:39:46*
%MOMM*%
%LPD*%
G01*
G04 APERTURE LIST*
%ADD10C,0.150000*%
G04 APERTURE END LIST*
D10*
X321358000Y-175831500D02*
G75*
G03*
X324358000Y-172831500I0J3000000D01*
G01*
X324358000Y-107076500D02*
G75*
G03*
X321358000Y-104076500I-3000000J0D01*
G01*
X324358000Y-107076500D02*
X324358000Y-172831500D01*
X267081000Y-172831500D02*
G75*
G03*
X270081000Y-175831500I3000000J0D01*
G01*
X321358000Y-175831500D02*
X270081000Y-175831500D01*
X270081000Y-104076500D02*
G75*
G03*
X267081000Y-107076500I0J-3000000D01*
G01*
X270081000Y-104076500D02*
X321358000Y-104076500D01*
X267081000Y-172831500D02*
X267081000Y-107076500D01*
X61214000Y-104076500D02*
X73279000Y-104076500D01*
X73279000Y-175831500D01*
X61214000Y-175831500D01*
X61214000Y-104076500D01*
X226187000Y-104076500D02*
X238252000Y-104076500D01*
X238252000Y-175831500D01*
X226187000Y-175831500D01*
X226187000Y-104076500D01*
X124079000Y-104076500D02*
X136144000Y-104076500D01*
X136144000Y-175831500D01*
X124079000Y-175831500D01*
X124079000Y-104076500D01*
X206375000Y-104076500D02*
X218440000Y-104076500D01*
X218440000Y-175831500D01*
X206375000Y-175831500D01*
X206375000Y-104076500D01*
X41783000Y-104076500D02*
X53848000Y-104076500D01*
X53848000Y-175831500D01*
X41783000Y-175831500D01*
X41783000Y-104076500D01*
X247523000Y-104076500D02*
X259588000Y-104076500D01*
X259588000Y-175831500D01*
X247523000Y-175831500D01*
X247523000Y-104076500D01*
X165227000Y-103822500D02*
X177292000Y-103822500D01*
X177292000Y-175577500D01*
X165227000Y-175577500D01*
X165227000Y-103822500D01*
X184785000Y-104076500D02*
X196850000Y-104076500D01*
X196850000Y-175831500D01*
X184785000Y-175831500D01*
X184785000Y-104076500D01*
X143891000Y-104076500D02*
X155956000Y-104076500D01*
X155956000Y-175831500D01*
X143891000Y-175831500D01*
X143891000Y-104076500D01*
X102489000Y-103822500D02*
X114554000Y-103822500D01*
X114554000Y-175577500D01*
X102489000Y-175577500D01*
X102489000Y-103822500D01*
X82931000Y-104076500D02*
X94996000Y-104076500D01*
X94996000Y-175831500D01*
X82931000Y-175831500D01*
X82931000Y-104076500D01*
X32972000Y-20002500D02*
G75*
G03*
X29972000Y-23002500I0J-3000000D01*
G01*
X29972000Y-88757500D02*
G75*
G03*
X32972000Y-91757500I3000000J0D01*
G01*
X29972000Y-88757500D02*
X29972000Y-23002500D01*
X90551000Y-23002500D02*
G75*
G03*
X87551000Y-20002500I-3000000J0D01*
G01*
X32972000Y-20002500D02*
X87551000Y-20002500D01*
X87551000Y-91757500D02*
G75*
G03*
X90551000Y-88757500I0J3000000D01*
G01*
X87551000Y-91757500D02*
X32972000Y-91757500D01*
X90551000Y-23002500D02*
X90551000Y-88757500D01*
X100076000Y-20256500D02*
X112141000Y-20256500D01*
X112141000Y-92011500D01*
X100076000Y-92011500D01*
X100076000Y-20256500D01*
X119634000Y-20256500D02*
X131699000Y-20256500D01*
X131699000Y-92011500D01*
X119634000Y-92011500D01*
X119634000Y-20256500D01*
X141224000Y-20256500D02*
X153289000Y-20256500D01*
X153289000Y-92011500D01*
X141224000Y-92011500D01*
X141224000Y-20256500D01*
X161036000Y-20002500D02*
X173101000Y-20002500D01*
X173101000Y-91757500D01*
X161036000Y-91757500D01*
X161036000Y-20002500D01*
X182372000Y-20256500D02*
X194437000Y-20256500D01*
X194437000Y-92011500D01*
X182372000Y-92011500D01*
X182372000Y-20256500D01*
X202184000Y-20256500D02*
X214249000Y-20256500D01*
X214249000Y-92011500D01*
X202184000Y-92011500D01*
X202184000Y-20256500D01*
X223520000Y-20002500D02*
X235585000Y-20002500D01*
X235585000Y-91757500D01*
X223520000Y-91757500D01*
X223520000Y-20002500D01*
X243332000Y-20256500D02*
X255397000Y-20256500D01*
X255397000Y-92011500D01*
X243332000Y-92011500D01*
X243332000Y-20256500D01*
X264795000Y-20256500D02*
X276860000Y-20256500D01*
X276860000Y-92011500D01*
X264795000Y-92011500D01*
X264795000Y-20256500D01*
X284480000Y-20256500D02*
X296545000Y-20256500D01*
X296545000Y-92011500D01*
X284480000Y-92011500D01*
X284480000Y-20256500D01*
X306070000Y-20256500D02*
X318135000Y-20256500D01*
X318135000Y-92011500D01*
X306070000Y-92011500D01*
X306070000Y-20256500D01*
X325755000Y-20320000D02*
X337820000Y-20320000D01*
X337820000Y-92075000D01*
X325755000Y-92075000D01*
X325755000Y-20320000D01*
M02*
