M48
; DRILL file {KiCad 7.0.8} date 2023 December 06, Wednesday 14:39:44
; FORMAT={-:-/ absolute / metric / decimal}
; #@! TF.CreationDate,2023-12-06T14:39:44-05:00
; #@! TF.GenerationSoftware,Kicad,Pcbnew,7.0.8
; #@! TF.FileFunction,Plated,1,2,PTH
FMAT,2
METRIC
; #@! TA.AperFunction,Plated,PTH,ViaDrill
T1C0.400
; #@! TA.AperFunction,Plated,PTH,ComponentDrill
T2C1.000
; #@! TA.AperFunction,Plated,PTH,ComponentDrill
T3C5.800
%
G90
G05
T1
X31.496Y-23.368
X31.496Y-32.004
X31.496Y-42.672
X31.496Y-57.912
X34.036Y-48.768
X34.036Y-71.12
X34.036Y-75.184
X36.068Y-47.752
X36.576Y-39.624
X38.1Y-48.768
X39.116Y-72.136
X39.116Y-75.184
X40.132Y-65.532
X41.656Y-40.132
X42.164Y-46.228
X42.672Y-22.86
X44.704Y-47.244
X44.704Y-72.644
X44.704Y-75.184
X45.212Y-51.816
X45.957Y-59.207
X46.228Y-54.864
X46.99Y-60.452
X47.371Y-44.45
X49.276Y-58.15
X50.8Y-42.164
X50.8Y-48.26
X50.8Y-52.324
X50.8Y-70.104
X50.921Y-58.901
X50.927Y-53.721
X50.927Y-55.626
X50.927Y-57.531
X52.07Y-49.149
X52.324Y-30.988
X52.832Y-23.876
X52.832Y-53.721
X52.832Y-55.626
X52.832Y-57.531
X53.086Y-59.309
X54.102Y-59.436
X54.356Y-79.756
X54.61Y-53.721
X54.61Y-55.499
X54.61Y-57.531
X55.372Y-62.357
X55.372Y-83.312
X55.88Y-46.482
X55.88Y-52.324
X56.388Y-56.277
X56.388Y-57.277
X56.388Y-58.42
X56.896Y-28.956
X56.896Y-36.068
X57.023Y-48.768
X59.436Y-22.352
X59.436Y-89.408
X60.96Y-50.8
X62.484Y-28.956
X62.865Y-75.565
X65.024Y-24.384
X66.04Y-39.624
X66.04Y-52.07
X66.548Y-88.9
X66.675Y-54.61
X67.882Y-132.588
X68.326Y-74.041
X70.612Y-23.368
X70.739Y-72.898
X72.644Y-32.004
X73.025Y-62.865
X73.99Y-49.047
X73.99Y-55.397
X75.692Y-29.464
X77.216Y-23.876
X78.232Y-31.496
X78.359Y-45.212
X79.248Y-59.383
X79.756Y-43.18
X80.518Y-69.596
X88.456Y-151.384
X89.408Y-53.34
X89.408Y-55.372
X89.408Y-57.912
X89.408Y-59.944
X92.456Y-54.864
X92.456Y-58.42
X93.79Y-135.636
X95.822Y-145.034
X97.536Y-53.34
X97.6Y-152.349
X98.044Y-59.944
X100.584Y-56.896
X101.092Y-53.848
X101.664Y-149.098
X101.918Y-127.799
X101.918Y-152.908
X102.108Y-65.913
X102.616Y-46.482
X105.728Y-133.604
X106.744Y-146.812
X107.506Y-132.851
X108.649Y-145.034
X109.919Y-145.034
X111.189Y-145.034
X114.364Y-139.319
X114.364Y-141.859
X114.364Y-143.764
X114.364Y-145.034
X114.364Y-148.844
X115.634Y-145.034
X117.539Y-145.034
X120.079Y-145.034
X120.396Y-60.96
X123.508Y-123.19
X123.698Y-65.278
X123.952Y-63.714
X125.984Y-48.198
X129.858Y-151.638
X130.048Y-65.024
X132.588Y-60.96
X140.72Y-64.004
X141.224Y-49.276
X142.24Y-48.02
X142.24Y-64.766
X145.415Y-45.295
X145.796Y-48.545
X146.304Y-64.524
X146.431Y-46.101
X153.035Y-43.18
X153.162Y-63.754
X154.432Y-41.783
X155.956Y-43.688
X159.004Y-58.42
X159.512Y-43.688
X159.766Y-60.96
X160.02Y-45.356
X164.592Y-43.688
X164.592Y-47.244
X171.006Y-151.384
X179.134Y-134.239
X179.769Y-131.064
X182.577Y-132.946
X185.484Y-131.699
X185.484Y-145.034
X188.278Y-148.336
X189.04Y-147.282
X189.798Y-154.182
X192.088Y-149.606
X192.342Y-128.778
X196.279Y-141.224
X196.85Y-56.896
X196.914Y-136.144
X196.914Y-149.479
X198.184Y-138.049
X198.184Y-143.764
X198.184Y-148.209
X199.454Y-141.859
X200.089Y-136.144
X200.089Y-147.574
X203.899Y-138.049
X205.105Y-64.77
X205.169Y-142.494
X206.439Y-140.589
X207.074Y-143.129
X207.582Y-127.254
X207.709Y-138.684
X210.884Y-132.588
X212.154Y-129.286
X219.139Y-121.539
X219.139Y-126.619
X219.139Y-129.159
X220.409Y-138.049
X225.489Y-126.619
X225.489Y-130.429
X226.124Y-149.479
X226.759Y-121.539
X228.664Y-126.619
X228.664Y-130.429
X228.727Y-48.387
X238.824Y-139.319
X238.824Y-141.859
X238.824Y-143.764
X240.094Y-127.254
X240.094Y-130.429
X240.094Y-150.114
X246.444Y-141.224
X246.444Y-144.399
X246.444Y-138.049
X255.842Y-149.86
X263.906Y-48.006
X263.906Y-69.342
X264.16Y-45.282
X264.922Y-47.498
X265.176Y-43.561
X266.002Y-126.238
X267.716Y-42.672
X269.494Y-65.532
X271.145Y-68.326
X275.844Y-65.786
X276.352Y-69.596
X277.876Y-65.024
X277.94Y-147.066
X278.892Y-61.468
X279.21Y-152.4
X281.75Y-138.43
X282.512Y-136.906
X282.512Y-142.24
X283.274Y-151.892
X283.528Y-143.256
X283.528Y-150.368
X286.576Y-154.686
X287.719Y-145.034
X288.417Y-65.278
X291.656Y-136.144
X292.799Y-125.349
X293.942Y-117.856
X294.069Y-172.974
X294.704Y-169.164
X294.958Y-111.76
X296.609Y-164.084
X297.498Y-142.427
X297.498Y-149.352
X297.688Y-66.548
X298.26Y-146.304
X298.514Y-112.776
X299.466Y-58.928
X299.784Y-160.909
X301.816Y-143.51
X302.324Y-160.909
X302.832Y-136.652
X302.832Y-137.922
X302.832Y-141.986
X302.959Y-139.827
X303.086Y-143.764
X303.594Y-158.369
X304.345Y-143.516
X304.864Y-137.922
X304.864Y-139.827
X304.864Y-141.986
X304.864Y-160.909
X306.134Y-157.734
X306.638Y-143.514
X306.769Y-139.827
X306.896Y-137.922
X306.896Y-141.986
X307.404Y-156.464
X307.404Y-160.274
X307.404Y-172.974
X308.42Y-136.525
X308.42Y-137.668
X308.928Y-148.59
X308.928Y-154.686
X309.309Y-158.369
X310.579Y-161.544
X311.849Y-156.464
X315.024Y-160.274
X315.659Y-145.923
X315.659Y-149.479
X315.913Y-121.158
X320.104Y-172.974
X320.739Y-156.464
T2
X34.053Y-64.282
X34.053Y-66.782
X39.442Y-81.554
X39.442Y-84.054
X52.276Y-138.808
X52.276Y-141.608
X62.876Y-138.808
X62.876Y-141.608
X80.044Y-54.633
X80.044Y-57.432
X93.476Y-138.808
X93.476Y-141.608
X104.076Y-138.808
X104.076Y-141.608
X110.644Y-54.633
X110.644Y-57.432
X121.244Y-54.633
X121.244Y-57.432
X134.676Y-138.808
X134.676Y-141.608
X145.276Y-138.808
X145.276Y-141.608
X151.844Y-54.633
X151.844Y-57.432
X162.444Y-54.633
X162.444Y-57.432
X175.876Y-138.808
X175.876Y-141.608
X186.476Y-138.808
X186.476Y-141.608
X193.044Y-54.633
X193.044Y-57.432
X203.644Y-54.633
X203.644Y-57.432
X217.076Y-138.808
X217.076Y-141.608
X227.676Y-138.808
X227.676Y-141.608
X234.244Y-54.633
X234.244Y-57.432
X244.844Y-54.633
X244.844Y-57.432
X258.296Y-138.808
X258.296Y-141.608
X268.876Y-138.808
X268.876Y-141.608
X275.444Y-54.633
X275.444Y-57.432
X286.044Y-54.633
X286.044Y-57.432
X315.913Y-112.141
X316.644Y-54.633
X316.644Y-57.432
X318.413Y-112.141
X327.244Y-54.633
X327.244Y-57.432
T3
X47.276Y-117.708
X47.276Y-162.708
X67.876Y-117.708
X67.876Y-162.708
X85.044Y-33.532
X85.044Y-78.532
X88.476Y-117.708
X88.476Y-162.708
X105.644Y-33.532
X105.644Y-78.532
X109.076Y-117.708
X109.076Y-162.708
X126.244Y-33.532
X126.244Y-78.532
X129.676Y-117.708
X129.676Y-162.708
X146.844Y-33.532
X146.844Y-78.532
X150.276Y-117.708
X150.276Y-162.708
X167.444Y-33.532
X167.444Y-78.532
X170.876Y-117.708
X170.876Y-162.708
X188.044Y-33.532
X188.044Y-78.532
X191.476Y-117.708
X191.476Y-162.708
X208.644Y-33.532
X208.644Y-78.532
X212.076Y-117.708
X212.076Y-162.708
X229.244Y-33.532
X229.244Y-78.532
X232.676Y-117.708
X232.676Y-162.708
X249.844Y-33.532
X249.844Y-78.532
X253.296Y-117.708
X253.296Y-162.708
X270.444Y-33.532
X270.444Y-78.532
X273.876Y-117.708
X273.876Y-162.708
X291.044Y-33.532
X291.044Y-78.532
X311.644Y-33.532
X311.644Y-78.532
X332.244Y-33.532
X332.244Y-78.532
T0
M30
