%TF.GenerationSoftware,KiCad,Pcbnew,7.0.8*%
%TF.CreationDate,2023-12-06T14:39:46-05:00*%
%TF.ProjectId,BMS1,424d5331-2e6b-4696-9361-645f70636258,1*%
%TF.SameCoordinates,Original*%
%TF.FileFunction,Soldermask,Top*%
%TF.FilePolarity,Negative*%
%FSLAX46Y46*%
G04 Gerber Fmt 4.6, Leading zero omitted, Abs format (unit mm)*
G04 Created by KiCad (PCBNEW 7.0.8) date 2023-12-06 14:39:46*
%MOMM*%
%LPD*%
G01*
G04 APERTURE LIST*
G04 Aperture macros list*
%AMRoundRect*
0 Rectangle with rounded corners*
0 $1 Rounding radius*
0 $2 $3 $4 $5 $6 $7 $8 $9 X,Y pos of 4 corners*
0 Add a 4 corners polygon primitive as box body*
4,1,4,$2,$3,$4,$5,$6,$7,$8,$9,$2,$3,0*
0 Add four circle primitives for the rounded corners*
1,1,$1+$1,$2,$3*
1,1,$1+$1,$4,$5*
1,1,$1+$1,$6,$7*
1,1,$1+$1,$8,$9*
0 Add four rect primitives between the rounded corners*
20,1,$1+$1,$2,$3,$4,$5,0*
20,1,$1+$1,$4,$5,$6,$7,0*
20,1,$1+$1,$6,$7,$8,$9,0*
20,1,$1+$1,$8,$9,$2,$3,0*%
G04 Aperture macros list end*
%ADD10RoundRect,0.349999X-1.425001X0.450001X-1.425001X-0.450001X1.425001X-0.450001X1.425001X0.450001X0*%
%ADD11RoundRect,0.350000X-0.350000X-0.450000X0.350000X-0.450000X0.350000X0.450000X-0.350000X0.450000X0*%
%ADD12RoundRect,0.337500X-0.044194X-0.380070X0.380070X0.044194X0.044194X0.380070X-0.380070X-0.044194X0*%
%ADD13RoundRect,0.337500X0.371231X-0.035355X-0.035355X0.371231X-0.371231X0.035355X0.035355X-0.371231X0*%
%ADD14RoundRect,0.337500X-0.237500X0.300000X-0.237500X-0.300000X0.237500X-0.300000X0.237500X0.300000X0*%
%ADD15C,10.200000*%
%ADD16C,2.200000*%
%ADD17RoundRect,0.200000X-0.637500X-0.100000X0.637500X-0.100000X0.637500X0.100000X-0.637500X0.100000X0*%
%ADD18RoundRect,0.337500X0.380070X-0.044194X-0.044194X0.380070X-0.380070X0.044194X0.044194X-0.380070X0*%
%ADD19RoundRect,0.337500X0.300000X0.237500X-0.300000X0.237500X-0.300000X-0.237500X0.300000X-0.237500X0*%
%ADD20RoundRect,0.337500X0.237500X-0.250000X0.237500X0.250000X-0.237500X0.250000X-0.237500X-0.250000X0*%
%ADD21RoundRect,0.337500X-0.237500X0.250000X-0.237500X-0.250000X0.237500X-0.250000X0.237500X0.250000X0*%
%ADD22RoundRect,0.337500X0.250000X0.237500X-0.250000X0.237500X-0.250000X-0.237500X0.250000X-0.237500X0*%
%ADD23RoundRect,0.350000X-0.565685X-0.070711X-0.070711X-0.565685X0.565685X0.070711X0.070711X0.565685X0*%
%ADD24RoundRect,0.100000X2.785600X1.705400X-2.785600X1.705400X-2.785600X-1.705400X2.785600X-1.705400X0*%
%ADD25RoundRect,0.100000X0.801600X0.695000X-0.801600X0.695000X-0.801600X-0.695000X0.801600X-0.695000X0*%
%ADD26RoundRect,0.100000X0.700000X0.825000X-0.700000X0.825000X-0.700000X-0.825000X0.700000X-0.825000X0*%
%ADD27RoundRect,0.337500X0.237500X-0.300000X0.237500X0.300000X-0.237500X0.300000X-0.237500X-0.300000X0*%
%ADD28RoundRect,0.100000X0.125000X0.750000X-0.125000X0.750000X-0.125000X-0.750000X0.125000X-0.750000X0*%
%ADD29RoundRect,0.100000X0.750000X-0.125000X0.750000X0.125000X-0.750000X0.125000X-0.750000X-0.125000X0*%
%ADD30RoundRect,0.100000X2.500000X-2.500000X2.500000X2.500000X-2.500000X2.500000X-2.500000X-2.500000X0*%
%ADD31RoundRect,0.337500X0.035355X0.371231X-0.371231X-0.035355X-0.035355X-0.371231X0.371231X0.035355X0*%
%ADD32RoundRect,0.337500X0.287500X0.237500X-0.287500X0.237500X-0.287500X-0.237500X0.287500X-0.237500X0*%
%ADD33RoundRect,0.349999X1.425001X-0.450001X1.425001X0.450001X-1.425001X0.450001X-1.425001X-0.450001X0*%
%ADD34RoundRect,0.350000X0.565685X0.070711X0.070711X0.565685X-0.565685X-0.070711X-0.070711X-0.565685X0*%
%ADD35RoundRect,0.337500X-0.035355X-0.371231X0.371231X0.035355X0.035355X0.371231X-0.371231X-0.035355X0*%
%ADD36RoundRect,0.350000X0.350000X0.450000X-0.350000X0.450000X-0.350000X-0.450000X0.350000X-0.450000X0*%
%ADD37RoundRect,0.350000X0.600000X0.750000X-0.600000X0.750000X-0.600000X-0.750000X0.600000X-0.750000X0*%
%ADD38O,1.900000X2.200000*%
%ADD39RoundRect,0.337500X-0.371231X0.035355X0.035355X-0.371231X0.371231X-0.035355X-0.035355X0.371231X0*%
%ADD40RoundRect,0.100000X-0.763817X-3.175617X3.175617X0.763817X0.763817X3.175617X-3.175617X-0.763817X0*%
%ADD41RoundRect,0.100000X-0.075378X-1.058256X1.058256X0.075378X0.075378X1.058256X-1.058256X-0.075378X0*%
%ADD42RoundRect,0.350000X-0.070711X0.565685X-0.565685X0.070711X0.070711X-0.565685X0.565685X-0.070711X0*%
%ADD43RoundRect,0.350000X-0.750000X0.600000X-0.750000X-0.600000X0.750000X-0.600000X0.750000X0.600000X0*%
%ADD44O,2.200000X1.900000*%
%ADD45RoundRect,0.337500X-0.250000X-0.237500X0.250000X-0.237500X0.250000X0.237500X-0.250000X0.237500X0*%
%ADD46RoundRect,0.337500X-0.300000X-0.237500X0.300000X-0.237500X0.300000X0.237500X-0.300000X0.237500X0*%
%ADD47RoundRect,0.337500X0.237500X-0.287500X0.237500X0.287500X-0.237500X0.287500X-0.237500X-0.287500X0*%
%ADD48RoundRect,0.337500X-0.287500X-0.237500X0.287500X-0.237500X0.287500X0.237500X-0.287500X0.237500X0*%
%ADD49RoundRect,0.337500X-0.380070X0.044194X0.044194X-0.380070X0.380070X-0.044194X-0.044194X0.380070X0*%
%ADD50RoundRect,0.337500X0.044194X0.380070X-0.380070X-0.044194X-0.044194X-0.380070X0.380070X0.044194X0*%
%ADD51RoundRect,0.350000X-0.337500X-0.475000X0.337500X-0.475000X0.337500X0.475000X-0.337500X0.475000X0*%
%ADD52RoundRect,0.349999X-0.450001X-1.425001X0.450001X-1.425001X0.450001X1.425001X-0.450001X1.425001X0*%
%ADD53RoundRect,0.350000X0.070711X-0.565685X0.565685X-0.070711X-0.070711X0.565685X-0.565685X0.070711X0*%
%ADD54RoundRect,0.350000X0.475000X-0.337500X0.475000X0.337500X-0.475000X0.337500X-0.475000X-0.337500X0*%
%ADD55RoundRect,0.100000X-0.125000X-0.750000X0.125000X-0.750000X0.125000X0.750000X-0.125000X0.750000X0*%
%ADD56RoundRect,0.100000X-0.750000X0.125000X-0.750000X-0.125000X0.750000X-0.125000X0.750000X0.125000X0*%
%ADD57RoundRect,0.100000X-2.500000X2.500000X-2.500000X-2.500000X2.500000X-2.500000X2.500000X2.500000X0*%
G04 APERTURE END LIST*
D10*
%TO.C,R31*%
X129858000Y-125220000D03*
X129858000Y-131320000D03*
%TD*%
D11*
%TO.C,R24*%
X284912000Y-133658500D03*
X286912000Y-133658500D03*
%TD*%
D12*
%TO.C,C28*%
X55917598Y-71468696D03*
X57137358Y-70248936D03*
%TD*%
D13*
%TO.C,L23*%
X53888718Y-69672718D03*
X52651282Y-68435282D03*
%TD*%
D14*
%TO.C,C20*%
X290152000Y-137565500D03*
X290152000Y-139290500D03*
%TD*%
D15*
%TO.C,B3*%
X232676000Y-162708000D03*
X232676000Y-117708000D03*
D16*
X227676000Y-138808000D03*
X227676000Y-141608000D03*
%TD*%
D17*
%TO.C,U5*%
X105933500Y-127898000D03*
X105933500Y-128548000D03*
X105933500Y-129198000D03*
X105933500Y-129848000D03*
X105933500Y-130498000D03*
X105933500Y-131148000D03*
X105933500Y-131798000D03*
X105933500Y-132448000D03*
X111658500Y-132448000D03*
X111658500Y-131798000D03*
X111658500Y-131148000D03*
X111658500Y-130498000D03*
X111658500Y-129848000D03*
X111658500Y-129198000D03*
X111658500Y-128548000D03*
X111658500Y-127898000D03*
%TD*%
D13*
%TO.C,L24*%
X55158719Y-68402717D03*
X53921283Y-67165281D03*
%TD*%
D15*
%TO.C,B2*%
X253296000Y-117707999D03*
X253296000Y-162707999D03*
D16*
X258296000Y-141607999D03*
X258296000Y-138807999D03*
%TD*%
D12*
%TO.C,C30*%
X60964105Y-66422189D03*
X62183865Y-65202429D03*
%TD*%
D18*
%TO.C,C38*%
X60788100Y-42536100D03*
X59568340Y-41316340D03*
%TD*%
D19*
%TO.C,C1*%
X109798105Y-147545185D03*
X108073105Y-147545185D03*
%TD*%
%TO.C,C8*%
X271219000Y-63500000D03*
X269494000Y-63500000D03*
%TD*%
%TO.C,C2*%
X271118499Y-42775500D03*
X269393499Y-42775500D03*
%TD*%
D15*
%TO.C,B4*%
X212076000Y-117708000D03*
X212076000Y-162708000D03*
D16*
X217076000Y-141608000D03*
X217076000Y-138808000D03*
%TD*%
D20*
%TO.C,R45*%
X178372000Y-141374500D03*
X178372000Y-139549500D03*
%TD*%
D15*
%TO.C,B16*%
X270444000Y-33532500D03*
X270444000Y-78532500D03*
D16*
X275444000Y-57432500D03*
X275444000Y-54632500D03*
%TD*%
D21*
%TO.C,R51*%
X55182000Y-138279500D03*
X55182000Y-140104500D03*
%TD*%
D15*
%TO.C,B15*%
X291044000Y-78532500D03*
X291044000Y-33532500D03*
D16*
X286044000Y-54632500D03*
X286044000Y-57432500D03*
%TD*%
D22*
%TO.C,R4*%
X310626000Y-149987000D03*
X308801000Y-149987000D03*
%TD*%
D23*
%TO.C,R17*%
X296309573Y-122398012D03*
X297723787Y-123812226D03*
%TD*%
D24*
%TO.C,Q2*%
X35821900Y-47752000D03*
D25*
X39905499Y-48672001D03*
X39905499Y-46831999D03*
%TD*%
D20*
%TO.C,R44*%
X183960000Y-139088500D03*
X183960000Y-137263500D03*
%TD*%
D15*
%TO.C,B19*%
X208644000Y-78532500D03*
X208644000Y-33532500D03*
D16*
X203644000Y-54632500D03*
X203644000Y-57432500D03*
%TD*%
D15*
%TO.C,B13*%
X332244000Y-78532500D03*
X332244000Y-33532500D03*
D16*
X327244000Y-54632500D03*
X327244000Y-57432500D03*
%TD*%
D26*
%TO.C,T1*%
X53086000Y-84328000D03*
X53086000Y-81280000D03*
X46736000Y-81280000D03*
X46736000Y-84328000D03*
%TD*%
D21*
%TO.C,R5*%
X315044000Y-137412000D03*
X315044000Y-139237000D03*
%TD*%
D27*
%TO.C,C34*%
X68002000Y-54460149D03*
X68002000Y-52735149D03*
%TD*%
D20*
%TO.C,R84*%
X278384000Y-57554500D03*
X278384000Y-55729500D03*
%TD*%
D18*
%TO.C,C39*%
X58096000Y-39844000D03*
X56876240Y-38624240D03*
%TD*%
D28*
%TO.C,U10*%
X49082000Y-60701000D03*
X49582000Y-60701000D03*
X50082000Y-60701000D03*
X50582000Y-60701000D03*
X51082000Y-60701000D03*
X51582000Y-60701000D03*
X52082000Y-60701000D03*
X52582000Y-60701000D03*
X53082000Y-60701000D03*
X53582000Y-60701000D03*
X54082000Y-60701000D03*
X54582000Y-60701000D03*
X55082000Y-60701000D03*
X55582000Y-60701000D03*
X56082000Y-60701000D03*
X56582000Y-60701000D03*
D29*
X57907000Y-59376000D03*
X57907000Y-58876000D03*
X57907000Y-58376000D03*
X57907000Y-57876000D03*
X57907000Y-57376000D03*
X57907000Y-56876000D03*
X57907000Y-56376000D03*
X57907000Y-55876000D03*
X57907000Y-55376000D03*
X57907000Y-54876000D03*
X57907000Y-54376000D03*
X57907000Y-53876000D03*
X57907000Y-53376000D03*
X57907000Y-52876000D03*
X57907000Y-52376000D03*
X57907000Y-51876000D03*
D28*
X56582000Y-50551000D03*
X56082000Y-50551000D03*
X55582000Y-50551000D03*
X55082000Y-50551000D03*
X54582000Y-50551000D03*
X54082000Y-50551000D03*
X53582000Y-50551000D03*
X53082000Y-50551000D03*
X52582000Y-50551000D03*
X52082000Y-50551000D03*
X51582000Y-50551000D03*
X51082000Y-50551000D03*
X50582000Y-50551000D03*
X50082000Y-50551000D03*
X49582000Y-50551000D03*
X49082000Y-50551000D03*
D29*
X47757000Y-51876000D03*
X47757000Y-52376000D03*
X47757000Y-52876000D03*
X47757000Y-53376000D03*
X47757000Y-53876000D03*
X47757000Y-54376000D03*
X47757000Y-54876000D03*
X47757000Y-55376000D03*
X47757000Y-55876000D03*
X47757000Y-56376000D03*
X47757000Y-56876000D03*
X47757000Y-57376000D03*
X47757000Y-57876000D03*
X47757000Y-58376000D03*
X47757000Y-58876000D03*
X47757000Y-59376000D03*
D30*
X52832000Y-55626000D03*
%TD*%
D20*
%TO.C,R85*%
X244856000Y-51759500D03*
X244856000Y-49934500D03*
%TD*%
D15*
%TO.C,B20*%
X188044000Y-33532500D03*
X188044000Y-78532500D03*
D16*
X193044000Y-57432500D03*
X193044000Y-54632500D03*
%TD*%
D31*
%TO.C,L18*%
X57730038Y-42902601D03*
X56492602Y-44140037D03*
%TD*%
D20*
%TO.C,R40*%
X266510000Y-138834500D03*
X266510000Y-137009500D03*
%TD*%
D19*
%TO.C,C3*%
X192188500Y-148336001D03*
X190463500Y-148336001D03*
%TD*%
D14*
%TO.C,C32*%
X68002000Y-59643949D03*
X68002000Y-61368949D03*
%TD*%
D32*
%TO.C,L28*%
X64559001Y-57729800D03*
X62809001Y-57729800D03*
%TD*%
D33*
%TO.C,R67*%
X291084000Y-71376000D03*
X291084000Y-65276000D03*
%TD*%
D34*
%TO.C,R58*%
X59632707Y-76043507D03*
X58218493Y-74629293D03*
%TD*%
D10*
%TO.C,R72*%
X311658000Y-40636000D03*
X311658000Y-46736000D03*
%TD*%
D35*
%TO.C,L15*%
X301046682Y-150622218D03*
X302284118Y-149384782D03*
%TD*%
D36*
%TO.C,R65*%
X72542000Y-55338000D03*
X70542000Y-55338000D03*
%TD*%
D37*
%TO.C,J3*%
X318413000Y-112141000D03*
D38*
X315913000Y-112141000D03*
%TD*%
D39*
%TO.C,L7*%
X304049282Y-124755282D03*
X305286718Y-125992718D03*
%TD*%
D17*
%TO.C,U4*%
X143980315Y-43920475D03*
X143980315Y-44570475D03*
X143980315Y-45220475D03*
X143980315Y-45870475D03*
X143980315Y-46520475D03*
X143980315Y-47170475D03*
X143980315Y-47820475D03*
X143980315Y-48470475D03*
X149705315Y-48470475D03*
X149705315Y-47820475D03*
X149705315Y-47170475D03*
X149705315Y-46520475D03*
X149705315Y-45870475D03*
X149705315Y-45220475D03*
X149705315Y-44570475D03*
X149705315Y-43920475D03*
%TD*%
D14*
%TO.C,C21*%
X290152000Y-141168759D03*
X290152000Y-142893759D03*
%TD*%
D15*
%TO.C,B18*%
X229244000Y-33532500D03*
X229244000Y-78532500D03*
D16*
X234244000Y-57432500D03*
X234244000Y-54632500D03*
%TD*%
D17*
%TO.C,U6*%
X188463500Y-149617000D03*
X188463500Y-150267000D03*
X188463500Y-150917000D03*
X188463500Y-151567000D03*
X188463500Y-152217000D03*
X188463500Y-152867000D03*
X188463500Y-153517000D03*
X188463500Y-154167000D03*
X194188500Y-154167000D03*
X194188500Y-153517000D03*
X194188500Y-152867000D03*
X194188500Y-152217000D03*
X194188500Y-151567000D03*
X194188500Y-150917000D03*
X194188500Y-150267000D03*
X194188500Y-149617000D03*
%TD*%
D22*
%TO.C,R81*%
X320214000Y-52451000D03*
X318389000Y-52451000D03*
%TD*%
D27*
%TO.C,C35*%
X68002000Y-51005749D03*
X68002000Y-49280749D03*
%TD*%
D20*
%TO.C,R88*%
X195326000Y-57404000D03*
X195326000Y-55579000D03*
%TD*%
D40*
%TO.C,Q1*%
X317852202Y-128997798D03*
D41*
X314314123Y-131234799D03*
X315615201Y-132535877D03*
%TD*%
D21*
%TO.C,R47*%
X136970000Y-141581500D03*
X136970000Y-143406500D03*
%TD*%
D17*
%TO.C,U3*%
X267393500Y-44056500D03*
X267393500Y-44706500D03*
X267393500Y-45356500D03*
X267393500Y-46006500D03*
X267393500Y-46656500D03*
X267393500Y-47306500D03*
X267393500Y-47956500D03*
X267393500Y-48606500D03*
X273118500Y-48606500D03*
X273118500Y-47956500D03*
X273118500Y-47306500D03*
X273118500Y-46656500D03*
X273118500Y-46006500D03*
X273118500Y-45356500D03*
X273118500Y-44706500D03*
X273118500Y-44056500D03*
%TD*%
D20*
%TO.C,R95*%
X319405000Y-139342500D03*
X319405000Y-137517500D03*
%TD*%
D11*
%TO.C,R22*%
X284912000Y-150027200D03*
X286912000Y-150027200D03*
%TD*%
D23*
%TO.C,R20*%
X297966673Y-120755113D03*
X299380887Y-122169327D03*
%TD*%
D21*
%TO.C,R1*%
X313266000Y-135483500D03*
X313266000Y-137308500D03*
%TD*%
D20*
%TO.C,R89*%
X162306000Y-52013500D03*
X162306000Y-50188500D03*
%TD*%
D15*
%TO.C,B6*%
X170876000Y-117707999D03*
X170876000Y-162707999D03*
D16*
X175876000Y-141607999D03*
X175876000Y-138807999D03*
%TD*%
D15*
%TO.C,B17*%
X249844000Y-78532500D03*
X249844000Y-33532500D03*
D16*
X244844000Y-54632500D03*
X244844000Y-57432500D03*
%TD*%
D36*
%TO.C,R61*%
X72542000Y-45953149D03*
X70542000Y-45953149D03*
%TD*%
D14*
%TO.C,C23*%
X290152001Y-148375280D03*
X290152001Y-150100280D03*
%TD*%
D32*
%TO.C,L29*%
X64559000Y-53771700D03*
X62809000Y-53771700D03*
%TD*%
D21*
%TO.C,R50*%
X58992000Y-139041500D03*
X58992000Y-140866500D03*
%TD*%
D14*
%TO.C,C22*%
X290152000Y-144772020D03*
X290152000Y-146497020D03*
%TD*%
D21*
%TO.C,R48*%
X101664000Y-138684000D03*
X101664000Y-140509000D03*
%TD*%
D15*
%TO.C,B21*%
X167444000Y-78532500D03*
X167444000Y-33532500D03*
D16*
X162444000Y-54632500D03*
X162444000Y-57432500D03*
%TD*%
D33*
%TO.C,R30*%
X253429000Y-156085000D03*
X253429000Y-149985000D03*
%TD*%
D15*
%TO.C,B14*%
X311644000Y-33532500D03*
X311644000Y-78532500D03*
D16*
X316644000Y-57432500D03*
X316644000Y-54632500D03*
%TD*%
D42*
%TO.C,R53*%
X62215827Y-37948713D03*
X60801613Y-39362927D03*
%TD*%
D20*
%TO.C,R90*%
X154178000Y-57531000D03*
X154178000Y-55706000D03*
%TD*%
D19*
%TO.C,C14*%
X47217500Y-62865000D03*
X45492500Y-62865000D03*
%TD*%
D43*
%TO.C,J2*%
X34053000Y-64282000D03*
D44*
X34053000Y-66782000D03*
%TD*%
D20*
%TO.C,R91*%
X121158000Y-51759500D03*
X121158000Y-49934500D03*
%TD*%
D15*
%TO.C,B9*%
X109076000Y-162707999D03*
X109076000Y-117707999D03*
D16*
X104076000Y-138807999D03*
X104076000Y-141607999D03*
%TD*%
D17*
%TO.C,U8*%
X267325000Y-65428500D03*
X267325000Y-66078500D03*
X267325000Y-66728500D03*
X267325000Y-67378500D03*
X267325000Y-68028500D03*
X267325000Y-68678500D03*
X267325000Y-69328500D03*
X267325000Y-69978500D03*
X273050000Y-69978500D03*
X273050000Y-69328500D03*
X273050000Y-68678500D03*
X273050000Y-68028500D03*
X273050000Y-67378500D03*
X273050000Y-66728500D03*
X273050000Y-66078500D03*
X273050000Y-65428500D03*
%TD*%
D33*
%TO.C,R69*%
X105664000Y-71122000D03*
X105664000Y-65022000D03*
%TD*%
D15*
%TO.C,B24*%
X105644000Y-33532500D03*
X105644000Y-78532500D03*
D16*
X110644000Y-57432500D03*
X110644000Y-54632500D03*
%TD*%
D45*
%TO.C,R94*%
X35005000Y-42545000D03*
X36830000Y-42545000D03*
%TD*%
D10*
%TO.C,R75*%
X105664000Y-40384000D03*
X105664000Y-46484000D03*
%TD*%
D45*
%TO.C,R8*%
X47324000Y-42164000D03*
X49149000Y-42164000D03*
%TD*%
D33*
%TO.C,R77*%
X126238000Y-71376000D03*
X126238000Y-65276000D03*
%TD*%
D15*
%TO.C,B8*%
X129676000Y-117708000D03*
X129676000Y-162708000D03*
D16*
X134676000Y-141608000D03*
X134676000Y-138808000D03*
%TD*%
D36*
%TO.C,R52*%
X72542000Y-49081434D03*
X70542000Y-49081434D03*
%TD*%
D34*
%TO.C,R59*%
X61376907Y-74299307D03*
X59962693Y-72885093D03*
%TD*%
D45*
%TO.C,R9*%
X47197000Y-46990000D03*
X49022000Y-46990000D03*
%TD*%
D31*
%TO.C,L27*%
X59214938Y-44387502D03*
X57977502Y-45624938D03*
%TD*%
D11*
%TO.C,R23*%
X284912000Y-130384800D03*
X286912000Y-130384800D03*
%TD*%
D34*
%TO.C,R13*%
X301087987Y-120476427D03*
X299673773Y-119062213D03*
%TD*%
D46*
%TO.C,C12*%
X40185000Y-52832000D03*
X41910000Y-52832000D03*
%TD*%
D12*
%TO.C,C27*%
X53394345Y-73991949D03*
X54614105Y-72772189D03*
%TD*%
D20*
%TO.C,R79*%
X49276000Y-72136000D03*
X49276000Y-70311000D03*
%TD*%
D36*
%TO.C,R64*%
X72542000Y-58466283D03*
X70542000Y-58466283D03*
%TD*%
D47*
%TO.C,D2*%
X319405000Y-135495000D03*
X319405000Y-133745000D03*
%TD*%
D10*
%TO.C,R74*%
X229362000Y-40638000D03*
X229362000Y-46738000D03*
%TD*%
D20*
%TO.C,R43*%
X219774000Y-141628500D03*
X219774000Y-139803500D03*
%TD*%
D19*
%TO.C,C4*%
X147350815Y-42639474D03*
X145625815Y-42639474D03*
%TD*%
D48*
%TO.C,D1*%
X39525001Y-42545000D03*
X41275001Y-42545000D03*
%TD*%
D36*
%TO.C,R62*%
X72542000Y-64722849D03*
X70542000Y-64722849D03*
%TD*%
D49*
%TO.C,C24*%
X294052120Y-150264120D03*
X295271880Y-151483880D03*
%TD*%
D21*
%TO.C,R87*%
X201041000Y-55428500D03*
X201041000Y-57253500D03*
%TD*%
D10*
%TO.C,R78*%
X208534000Y-40638000D03*
X208534000Y-46738000D03*
%TD*%
%TO.C,R37*%
X88476000Y-125220000D03*
X88476000Y-131320000D03*
%TD*%
D15*
%TO.C,B10*%
X88476000Y-117708000D03*
X88476000Y-162708000D03*
D16*
X93476000Y-141608000D03*
X93476000Y-138808000D03*
%TD*%
D39*
%TO.C,L8*%
X301409282Y-127395282D03*
X302646718Y-128632718D03*
%TD*%
D50*
%TO.C,C15*%
X301113880Y-123340120D03*
X299894120Y-124559880D03*
%TD*%
D46*
%TO.C,C6*%
X145722000Y-68326000D03*
X147447000Y-68326000D03*
%TD*%
D12*
%TO.C,C29*%
X58440851Y-68945443D03*
X59660611Y-67725683D03*
%TD*%
D15*
%TO.C,B12*%
X47276000Y-117707999D03*
X47276000Y-162707999D03*
D16*
X52276000Y-141607999D03*
X52276000Y-138807999D03*
%TD*%
D20*
%TO.C,R11*%
X43434000Y-57705000D03*
X43434000Y-55880000D03*
%TD*%
D15*
%TO.C,B25*%
X85044000Y-78532500D03*
X85044000Y-33532500D03*
D16*
X80044000Y-54632500D03*
X80044000Y-57432500D03*
%TD*%
D10*
%TO.C,R70*%
X291084000Y-40382000D03*
X291084000Y-46482000D03*
%TD*%
D17*
%TO.C,U2*%
X209311500Y-127263000D03*
X209311500Y-127913000D03*
X209311500Y-128563000D03*
X209311500Y-129213000D03*
X209311500Y-129863000D03*
X209311500Y-130513000D03*
X209311500Y-131163000D03*
X209311500Y-131813000D03*
X215036500Y-131813000D03*
X215036500Y-131163000D03*
X215036500Y-130513000D03*
X215036500Y-129863000D03*
X215036500Y-129213000D03*
X215036500Y-128563000D03*
X215036500Y-127913000D03*
X215036500Y-127263000D03*
%TD*%
D48*
%TO.C,L16*%
X292263000Y-147318000D03*
X294013000Y-147318000D03*
%TD*%
D15*
%TO.C,B11*%
X67876000Y-162708000D03*
X67876000Y-117708000D03*
D16*
X62876000Y-138808000D03*
X62876000Y-141608000D03*
%TD*%
D45*
%TO.C,R10*%
X39069000Y-54864000D03*
X40894000Y-54864000D03*
%TD*%
D10*
%TO.C,R68*%
X167386000Y-40892000D03*
X167386000Y-46992000D03*
%TD*%
D51*
%TO.C,C10*%
X38057000Y-68072000D03*
X40132000Y-68072000D03*
%TD*%
D15*
%TO.C,B22*%
X146844000Y-33532500D03*
X146844000Y-78532500D03*
D16*
X151844000Y-57432500D03*
X151844000Y-54632500D03*
%TD*%
D20*
%TO.C,R86*%
X236728000Y-57554500D03*
X236728000Y-55729500D03*
%TD*%
D48*
%TO.C,L9*%
X292263000Y-134829670D03*
X294013000Y-134829670D03*
%TD*%
D21*
%TO.C,R80*%
X38608000Y-60555500D03*
X38608000Y-62380500D03*
%TD*%
D11*
%TO.C,R15*%
X284912000Y-146753500D03*
X286912000Y-146753500D03*
%TD*%
D52*
%TO.C,R32*%
X278192001Y-155194000D03*
X284292001Y-155194000D03*
%TD*%
D34*
%TO.C,R56*%
X64865307Y-70810907D03*
X63451093Y-69396693D03*
%TD*%
D33*
%TO.C,R28*%
X129731000Y-155958000D03*
X129731000Y-149858000D03*
%TD*%
D53*
%TO.C,R16*%
X297424400Y-157446300D03*
X298838614Y-156032086D03*
%TD*%
D50*
%TO.C,C16*%
X298419780Y-126034220D03*
X297200020Y-127253980D03*
%TD*%
D11*
%TO.C,R26*%
X284912000Y-140206000D03*
X286912000Y-140206000D03*
%TD*%
D32*
%TO.C,L31*%
X64559000Y-55750800D03*
X62809000Y-55750800D03*
%TD*%
D15*
%TO.C,B1*%
X273876000Y-162708000D03*
X273876000Y-117708000D03*
D16*
X268876000Y-138808000D03*
X268876000Y-141608000D03*
%TD*%
D27*
%TO.C,C36*%
X68002000Y-47551349D03*
X68002000Y-45826349D03*
%TD*%
D20*
%TO.C,R42*%
X225362000Y-138834500D03*
X225362000Y-137009500D03*
%TD*%
D22*
%TO.C,R3*%
X310633317Y-153183790D03*
X308808317Y-153183790D03*
%TD*%
D33*
%TO.C,R76*%
X208536000Y-70868000D03*
X208536000Y-64768000D03*
%TD*%
D23*
%TO.C,R18*%
X294659574Y-124048012D03*
X296073788Y-125462226D03*
%TD*%
D53*
%TO.C,R19*%
X295868800Y-155890700D03*
X297283014Y-154476486D03*
%TD*%
D33*
%TO.C,R34*%
X211900000Y-155958000D03*
X211900000Y-149858000D03*
%TD*%
D15*
%TO.C,B5*%
X191476000Y-162708000D03*
X191476000Y-117708000D03*
D16*
X186476000Y-138808000D03*
X186476000Y-141608000D03*
%TD*%
D36*
%TO.C,R63*%
X72542000Y-61594566D03*
X70542000Y-61594566D03*
%TD*%
D20*
%TO.C,R41*%
X260922000Y-141732000D03*
X260922000Y-139907000D03*
%TD*%
D32*
%TO.C,L21*%
X64559001Y-61688000D03*
X62809001Y-61688000D03*
%TD*%
D35*
%TO.C,L1*%
X302425282Y-152000718D03*
X303662718Y-150763282D03*
%TD*%
D21*
%TO.C,R12*%
X43688000Y-44807500D03*
X43688000Y-46632500D03*
%TD*%
D42*
%TO.C,R66*%
X60377327Y-36393114D03*
X58963113Y-37807328D03*
%TD*%
D17*
%TO.C,U1*%
X106268605Y-149024185D03*
X106268605Y-149674185D03*
X106268605Y-150324185D03*
X106268605Y-150974185D03*
X106268605Y-151624185D03*
X106268605Y-152274185D03*
X106268605Y-152924185D03*
X106268605Y-153574185D03*
X111993605Y-153574185D03*
X111993605Y-152924185D03*
X111993605Y-152274185D03*
X111993605Y-151624185D03*
X111993605Y-150974185D03*
X111993605Y-150324185D03*
X111993605Y-149674185D03*
X111993605Y-149024185D03*
%TD*%
D20*
%TO.C,R92*%
X113792000Y-56665500D03*
X113792000Y-54840500D03*
%TD*%
D49*
%TO.C,C26*%
X301101413Y-155125627D03*
X302321173Y-156345387D03*
%TD*%
D48*
%TO.C,L14*%
X292262999Y-144820334D03*
X294012999Y-144820334D03*
%TD*%
%TO.C,L13*%
X292263000Y-142322668D03*
X294013000Y-142322668D03*
%TD*%
D20*
%TO.C,R93*%
X80010000Y-52013500D03*
X80010000Y-50188500D03*
%TD*%
D33*
%TO.C,R35*%
X88476000Y-155831000D03*
X88476000Y-149731000D03*
%TD*%
D32*
%TO.C,L26*%
X64559001Y-59708900D03*
X62809001Y-59708900D03*
%TD*%
D43*
%TO.C,J1*%
X39442000Y-81554000D03*
D44*
X39442000Y-84054000D03*
%TD*%
D13*
%TO.C,L20*%
X57698718Y-65862718D03*
X56461282Y-64625282D03*
%TD*%
D19*
%TO.C,C11*%
X317791500Y-144399000D03*
X316066500Y-144399000D03*
%TD*%
D15*
%TO.C,B23*%
X126244000Y-78532500D03*
X126244000Y-33532500D03*
D16*
X121244000Y-54632500D03*
X121244000Y-57432500D03*
%TD*%
D14*
%TO.C,C13*%
X309775000Y-129972000D03*
X309775000Y-131697000D03*
%TD*%
%TO.C,C19*%
X290152000Y-133962240D03*
X290152000Y-135687240D03*
%TD*%
D31*
%TO.C,L17*%
X56245139Y-41417702D03*
X55007703Y-42655138D03*
%TD*%
D11*
%TO.C,R21*%
X284912000Y-143479700D03*
X286912000Y-143479700D03*
%TD*%
D20*
%TO.C,R82*%
X319278000Y-57554500D03*
X319278000Y-55729500D03*
%TD*%
D39*
%TO.C,L3*%
X302729282Y-126075282D03*
X303966718Y-127312718D03*
%TD*%
D10*
%TO.C,R27*%
X253302000Y-124585000D03*
X253302000Y-130685000D03*
%TD*%
D13*
%TO.C,L25*%
X56428718Y-67132718D03*
X55191282Y-65895282D03*
%TD*%
D27*
%TO.C,C33*%
X68002000Y-57914549D03*
X68002000Y-56189549D03*
%TD*%
D33*
%TO.C,R71*%
X167386000Y-71122000D03*
X167386000Y-65022000D03*
%TD*%
D21*
%TO.C,R49*%
X95822000Y-141581500D03*
X95822000Y-143406500D03*
%TD*%
D18*
%TO.C,C37*%
X66071879Y-43755880D03*
X64852119Y-42536120D03*
%TD*%
D33*
%TO.C,R38*%
X170879000Y-155830999D03*
X170879000Y-149730999D03*
%TD*%
D32*
%TO.C,L32*%
X64559000Y-51792600D03*
X62809000Y-51792600D03*
%TD*%
D10*
%TO.C,R33*%
X232728000Y-125093000D03*
X232728000Y-131193000D03*
%TD*%
D50*
%TO.C,C17*%
X294297880Y-128420120D03*
X293078120Y-129639880D03*
%TD*%
D42*
%TO.C,R57*%
X63877527Y-39681113D03*
X62463313Y-41095327D03*
%TD*%
D48*
%TO.C,L12*%
X292263000Y-139825001D03*
X294013000Y-139825001D03*
%TD*%
D21*
%TO.C,R54*%
X44380000Y-66213000D03*
X44380000Y-68038000D03*
%TD*%
D11*
%TO.C,R25*%
X284912000Y-136932300D03*
X286912000Y-136932300D03*
%TD*%
D54*
%TO.C,C9*%
X315913000Y-119677000D03*
X315913000Y-117602000D03*
%TD*%
D53*
%TO.C,R14*%
X298979999Y-159002000D03*
X300394213Y-157587786D03*
%TD*%
D27*
%TO.C,C31*%
X68002000Y-64823349D03*
X68002000Y-63098349D03*
%TD*%
D32*
%TO.C,L30*%
X64559000Y-49813500D03*
X62809000Y-49813500D03*
%TD*%
D48*
%TO.C,L4*%
X292263000Y-131826000D03*
X294013000Y-131826000D03*
%TD*%
D45*
%TO.C,R6*%
X41505500Y-59436000D03*
X43330500Y-59436000D03*
%TD*%
D19*
%TO.C,C7*%
X109759000Y-126490000D03*
X108034000Y-126490000D03*
%TD*%
D20*
%TO.C,R7*%
X314262000Y-142896500D03*
X314262000Y-141071500D03*
%TD*%
%TO.C,R83*%
X286004000Y-51505500D03*
X286004000Y-49680500D03*
%TD*%
D15*
%TO.C,B7*%
X150276000Y-162708000D03*
X150276000Y-117708000D03*
D16*
X145276000Y-138808000D03*
X145276000Y-141608000D03*
%TD*%
D14*
%TO.C,C18*%
X290152000Y-130358981D03*
X290152000Y-132083981D03*
%TD*%
D21*
%TO.C,R46*%
X142812000Y-138787501D03*
X142812000Y-140612501D03*
%TD*%
D10*
%TO.C,R36*%
X191580000Y-124839000D03*
X191580000Y-130939000D03*
%TD*%
D34*
%TO.C,R55*%
X63121107Y-72555107D03*
X61706893Y-71140893D03*
%TD*%
D33*
%TO.C,R73*%
X249936000Y-71378000D03*
X249936000Y-65278000D03*
%TD*%
D17*
%TO.C,U7*%
X143949500Y-62241000D03*
X143949500Y-62891000D03*
X143949500Y-63541000D03*
X143949500Y-64191000D03*
X143949500Y-64841000D03*
X143949500Y-65491000D03*
X143949500Y-66141000D03*
X143949500Y-66791000D03*
X149674500Y-66791000D03*
X149674500Y-66141000D03*
X149674500Y-65491000D03*
X149674500Y-64841000D03*
X149674500Y-64191000D03*
X149674500Y-63541000D03*
X149674500Y-62891000D03*
X149674500Y-62241000D03*
%TD*%
D10*
%TO.C,R29*%
X67755000Y-124966000D03*
X67755000Y-131066000D03*
%TD*%
D49*
%TO.C,C25*%
X298407413Y-152431527D03*
X299627173Y-153651287D03*
%TD*%
D20*
%TO.C,R2*%
X312484000Y-144674500D03*
X312484000Y-142849500D03*
%TD*%
D39*
%TO.C,L11*%
X300089282Y-128715282D03*
X301326718Y-129952718D03*
%TD*%
D36*
%TO.C,R60*%
X72542000Y-52209717D03*
X70542000Y-52209717D03*
%TD*%
D55*
%TO.C,U9*%
X308634000Y-134877000D03*
X308134000Y-134877000D03*
X307634000Y-134877000D03*
X307134000Y-134877000D03*
X306634000Y-134877000D03*
X306134000Y-134877000D03*
X305634000Y-134877000D03*
X305134000Y-134877000D03*
X304634000Y-134877000D03*
X304134000Y-134877000D03*
X303634000Y-134877000D03*
X303134000Y-134877000D03*
X302634000Y-134877000D03*
X302134000Y-134877000D03*
X301634000Y-134877000D03*
X301134000Y-134877000D03*
D56*
X299809000Y-136202000D03*
X299809000Y-136702000D03*
X299809000Y-137202000D03*
X299809000Y-137702000D03*
X299809000Y-138202000D03*
X299809000Y-138702000D03*
X299809000Y-139202000D03*
X299809000Y-139702000D03*
X299809000Y-140202000D03*
X299809000Y-140702000D03*
X299809000Y-141202000D03*
X299809000Y-141702000D03*
X299809000Y-142202000D03*
X299809000Y-142702000D03*
X299809000Y-143202000D03*
X299809000Y-143702000D03*
D55*
X301134000Y-145027000D03*
X301634000Y-145027000D03*
X302134000Y-145027000D03*
X302634000Y-145027000D03*
X303134000Y-145027000D03*
X303634000Y-145027000D03*
X304134000Y-145027000D03*
X304634000Y-145027000D03*
X305134000Y-145027000D03*
X305634000Y-145027000D03*
X306134000Y-145027000D03*
X306634000Y-145027000D03*
X307134000Y-145027000D03*
X307634000Y-145027000D03*
X308134000Y-145027000D03*
X308634000Y-145027000D03*
D56*
X309959000Y-143702000D03*
X309959000Y-143202000D03*
X309959000Y-142702000D03*
X309959000Y-142202000D03*
X309959000Y-141702000D03*
X309959000Y-141202000D03*
X309959000Y-140702000D03*
X309959000Y-140202000D03*
X309959000Y-139702000D03*
X309959000Y-139202000D03*
X309959000Y-138702000D03*
X309959000Y-138202000D03*
X309959000Y-137702000D03*
X309959000Y-137202000D03*
X309959000Y-136702000D03*
X309959000Y-136202000D03*
D57*
X304884000Y-139952000D03*
%TD*%
D48*
%TO.C,L10*%
X292263000Y-137327336D03*
X294013000Y-137327336D03*
%TD*%
D20*
%TO.C,R39*%
X309710000Y-127148499D03*
X309710000Y-125323499D03*
%TD*%
D19*
%TO.C,C5*%
X213036500Y-125982000D03*
X211311500Y-125982000D03*
%TD*%
D35*
%TO.C,L2*%
X303803782Y-153379318D03*
X305041218Y-152141882D03*
%TD*%
M02*
