%TF.GenerationSoftware,KiCad,Pcbnew,7.0.8*%
%TF.CreationDate,2023-12-06T14:39:46-05:00*%
%TF.ProjectId,BMS1,424d5331-2e6b-4696-9361-645f70636258,1*%
%TF.SameCoordinates,Original*%
%TF.FileFunction,Profile,NP*%
%FSLAX46Y46*%
G04 Gerber Fmt 4.6, Leading zero omitted, Abs format (unit mm)*
G04 Created by KiCad (PCBNEW 7.0.8) date 2023-12-06 14:39:46*
%MOMM*%
%LPD*%
G01*
G04 APERTURE LIST*
%TA.AperFunction,Profile*%
%ADD10C,0.300000*%
%TD*%
%TA.AperFunction,Profile*%
%ADD11C,0.100000*%
%TD*%
G04 APERTURE END LIST*
D10*
X36068000Y-171852000D02*
G75*
G03*
X40068000Y-175852000I4000000J0D01*
G01*
X33888000Y-20174500D02*
X338900000Y-20174500D01*
X40068000Y-104140000D02*
G75*
G03*
X36068000Y-108140000I0J-4000000D01*
G01*
X33888000Y-20174500D02*
G75*
G03*
X29888000Y-24174500I0J-4000000D01*
G01*
X324696000Y-108140000D02*
X324696000Y-171852000D01*
X338900000Y-91886500D02*
X33888000Y-91886500D01*
X320696000Y-175852000D02*
X40068000Y-175852000D01*
X342900000Y-24174500D02*
X342900000Y-87886500D01*
X29888000Y-87886500D02*
G75*
G03*
X33888000Y-91886500I4000000J0D01*
G01*
X342900000Y-24174500D02*
G75*
G03*
X338900000Y-20174500I-4000000J0D01*
G01*
X324696000Y-108140000D02*
G75*
G03*
X320696000Y-104140000I-4000000J0D01*
G01*
X36068000Y-171852000D02*
X36068000Y-108140000D01*
X29888000Y-87886500D02*
X29888000Y-24174500D01*
X40068000Y-104140000D02*
X320696000Y-104140000D01*
X320696000Y-175852000D02*
G75*
G03*
X324696000Y-171852000I0J4000000D01*
G01*
X338900000Y-91886500D02*
G75*
G03*
X342900000Y-87886500I0J4000000D01*
G01*
D11*
%TO.C,B3*%
X235926000Y-137208000D02*
X235926000Y-143208000D01*
X234926000Y-144208000D02*
X230426000Y-144208000D01*
X230426000Y-136208000D02*
X234926000Y-136208000D01*
X229426000Y-143208000D02*
X229426000Y-137208000D01*
X234926000Y-144208000D02*
G75*
G03*
X235926000Y-143208000I1J999999D01*
G01*
X235926000Y-137208000D02*
G75*
G03*
X234926000Y-136208000I-999999J1D01*
G01*
X229426000Y-143208000D02*
G75*
G03*
X230426000Y-144208000I1000000J0D01*
G01*
X230426000Y-136208000D02*
G75*
G03*
X229426000Y-137208000I0J-1000000D01*
G01*
%TO.C,B2*%
X250046000Y-143207999D02*
X250046000Y-137207999D01*
X251046000Y-136207999D02*
X255546000Y-136207999D01*
X255546000Y-144207999D02*
X251046000Y-144207999D01*
X256546000Y-137207999D02*
X256546000Y-143207999D01*
X251046000Y-136207999D02*
G75*
G03*
X250046000Y-137207999I-1J-999999D01*
G01*
X250046000Y-143207999D02*
G75*
G03*
X251046000Y-144207999I999999J-1D01*
G01*
X256546000Y-137207999D02*
G75*
G03*
X255546000Y-136207999I-1000000J0D01*
G01*
X255546000Y-144207999D02*
G75*
G03*
X256546000Y-143207999I0J1000000D01*
G01*
%TO.C,B4*%
X208826000Y-143208000D02*
X208826000Y-137208000D01*
X209826000Y-136208000D02*
X214326000Y-136208000D01*
X214326000Y-144208000D02*
X209826000Y-144208000D01*
X215326000Y-137208000D02*
X215326000Y-143208000D01*
X209826000Y-136208000D02*
G75*
G03*
X208826000Y-137208000I-1J-999999D01*
G01*
X208826000Y-143208000D02*
G75*
G03*
X209826000Y-144208000I999999J-1D01*
G01*
X215326000Y-137208000D02*
G75*
G03*
X214326000Y-136208000I-1000000J0D01*
G01*
X214326000Y-144208000D02*
G75*
G03*
X215326000Y-143208000I0J1000000D01*
G01*
%TO.C,B16*%
X267194000Y-59032500D02*
X267194000Y-53032500D01*
X268194000Y-52032500D02*
X272694000Y-52032500D01*
X272694000Y-60032500D02*
X268194000Y-60032500D01*
X273694000Y-53032500D02*
X273694000Y-59032500D01*
X268194000Y-52032500D02*
G75*
G03*
X267194000Y-53032500I-1J-999999D01*
G01*
X267194000Y-59032500D02*
G75*
G03*
X268194000Y-60032500I999999J-1D01*
G01*
X273694000Y-53032500D02*
G75*
G03*
X272694000Y-52032500I-1000000J0D01*
G01*
X272694000Y-60032500D02*
G75*
G03*
X273694000Y-59032500I0J1000000D01*
G01*
%TO.C,B15*%
X294294000Y-53032500D02*
X294294000Y-59032500D01*
X293294000Y-60032500D02*
X288794000Y-60032500D01*
X288794000Y-52032500D02*
X293294000Y-52032500D01*
X287794000Y-59032500D02*
X287794000Y-53032500D01*
X293294000Y-60032500D02*
G75*
G03*
X294294000Y-59032500I1J999999D01*
G01*
X294294000Y-53032500D02*
G75*
G03*
X293294000Y-52032500I-999999J1D01*
G01*
X287794000Y-59032500D02*
G75*
G03*
X288794000Y-60032500I1000000J0D01*
G01*
X288794000Y-52032500D02*
G75*
G03*
X287794000Y-53032500I0J-1000000D01*
G01*
%TO.C,B19*%
X211894000Y-53032500D02*
X211894000Y-59032500D01*
X210894000Y-60032500D02*
X206394000Y-60032500D01*
X206394000Y-52032500D02*
X210894000Y-52032500D01*
X205394000Y-59032500D02*
X205394000Y-53032500D01*
X210894000Y-60032500D02*
G75*
G03*
X211894000Y-59032500I1J999999D01*
G01*
X211894000Y-53032500D02*
G75*
G03*
X210894000Y-52032500I-999999J1D01*
G01*
X205394000Y-59032500D02*
G75*
G03*
X206394000Y-60032500I1000000J0D01*
G01*
X206394000Y-52032500D02*
G75*
G03*
X205394000Y-53032500I0J-1000000D01*
G01*
%TO.C,B13*%
X335494000Y-53032500D02*
X335494000Y-59032500D01*
X334494000Y-60032500D02*
X329994000Y-60032500D01*
X329994000Y-52032500D02*
X334494000Y-52032500D01*
X328994000Y-59032500D02*
X328994000Y-53032500D01*
X334494000Y-60032500D02*
G75*
G03*
X335494000Y-59032500I1J999999D01*
G01*
X335494000Y-53032500D02*
G75*
G03*
X334494000Y-52032500I-999999J1D01*
G01*
X328994000Y-59032500D02*
G75*
G03*
X329994000Y-60032500I1000000J0D01*
G01*
X329994000Y-52032500D02*
G75*
G03*
X328994000Y-53032500I0J-1000000D01*
G01*
%TO.C,B20*%
X184794000Y-59032500D02*
X184794000Y-53032500D01*
X185794000Y-52032500D02*
X190294000Y-52032500D01*
X190294000Y-60032500D02*
X185794000Y-60032500D01*
X191294000Y-53032500D02*
X191294000Y-59032500D01*
X185794000Y-52032500D02*
G75*
G03*
X184794000Y-53032500I-1J-999999D01*
G01*
X184794000Y-59032500D02*
G75*
G03*
X185794000Y-60032500I999999J-1D01*
G01*
X191294000Y-53032500D02*
G75*
G03*
X190294000Y-52032500I-1000000J0D01*
G01*
X190294000Y-60032500D02*
G75*
G03*
X191294000Y-59032500I0J1000000D01*
G01*
%TO.C,B18*%
X225994000Y-59032500D02*
X225994000Y-53032500D01*
X226994000Y-52032500D02*
X231494000Y-52032500D01*
X231494000Y-60032500D02*
X226994000Y-60032500D01*
X232494000Y-53032500D02*
X232494000Y-59032500D01*
X226994000Y-52032500D02*
G75*
G03*
X225994000Y-53032500I-1J-999999D01*
G01*
X225994000Y-59032500D02*
G75*
G03*
X226994000Y-60032500I999999J-1D01*
G01*
X232494000Y-53032500D02*
G75*
G03*
X231494000Y-52032500I-1000000J0D01*
G01*
X231494000Y-60032500D02*
G75*
G03*
X232494000Y-59032500I0J1000000D01*
G01*
%TO.C,B6*%
X167626000Y-143207999D02*
X167626000Y-137207999D01*
X168626000Y-136207999D02*
X173126000Y-136207999D01*
X173126000Y-144207999D02*
X168626000Y-144207999D01*
X174126000Y-137207999D02*
X174126000Y-143207999D01*
X168626000Y-136207999D02*
G75*
G03*
X167626000Y-137207999I-1J-999999D01*
G01*
X167626000Y-143207999D02*
G75*
G03*
X168626000Y-144207999I999999J-1D01*
G01*
X174126000Y-137207999D02*
G75*
G03*
X173126000Y-136207999I-1000000J0D01*
G01*
X173126000Y-144207999D02*
G75*
G03*
X174126000Y-143207999I0J1000000D01*
G01*
%TO.C,B17*%
X253094000Y-53032500D02*
X253094000Y-59032500D01*
X252094000Y-60032500D02*
X247594000Y-60032500D01*
X247594000Y-52032500D02*
X252094000Y-52032500D01*
X246594000Y-59032500D02*
X246594000Y-53032500D01*
X252094000Y-60032500D02*
G75*
G03*
X253094000Y-59032500I1J999999D01*
G01*
X253094000Y-53032500D02*
G75*
G03*
X252094000Y-52032500I-999999J1D01*
G01*
X246594000Y-59032500D02*
G75*
G03*
X247594000Y-60032500I1000000J0D01*
G01*
X247594000Y-52032500D02*
G75*
G03*
X246594000Y-53032500I0J-1000000D01*
G01*
%TO.C,B21*%
X170694000Y-53032500D02*
X170694000Y-59032500D01*
X169694000Y-60032500D02*
X165194000Y-60032500D01*
X165194000Y-52032500D02*
X169694000Y-52032500D01*
X164194000Y-59032500D02*
X164194000Y-53032500D01*
X169694000Y-60032500D02*
G75*
G03*
X170694000Y-59032500I1J999999D01*
G01*
X170694000Y-53032500D02*
G75*
G03*
X169694000Y-52032500I-999999J1D01*
G01*
X164194000Y-59032500D02*
G75*
G03*
X165194000Y-60032500I1000000J0D01*
G01*
X165194000Y-52032500D02*
G75*
G03*
X164194000Y-53032500I0J-1000000D01*
G01*
%TO.C,B14*%
X308394000Y-59032500D02*
X308394000Y-53032500D01*
X309394000Y-52032500D02*
X313894000Y-52032500D01*
X313894000Y-60032500D02*
X309394000Y-60032500D01*
X314894000Y-53032500D02*
X314894000Y-59032500D01*
X309394000Y-52032500D02*
G75*
G03*
X308394000Y-53032500I-1J-999999D01*
G01*
X308394000Y-59032500D02*
G75*
G03*
X309394000Y-60032500I999999J-1D01*
G01*
X314894000Y-53032500D02*
G75*
G03*
X313894000Y-52032500I-1000000J0D01*
G01*
X313894000Y-60032500D02*
G75*
G03*
X314894000Y-59032500I0J1000000D01*
G01*
%TO.C,B9*%
X112326000Y-137207999D02*
X112326000Y-143207999D01*
X111326000Y-144207999D02*
X106826000Y-144207999D01*
X106826000Y-136207999D02*
X111326000Y-136207999D01*
X105826000Y-143207999D02*
X105826000Y-137207999D01*
X111326000Y-144207999D02*
G75*
G03*
X112326000Y-143207999I1J999999D01*
G01*
X112326000Y-137207999D02*
G75*
G03*
X111326000Y-136207999I-999999J1D01*
G01*
X105826000Y-143207999D02*
G75*
G03*
X106826000Y-144207999I1000000J0D01*
G01*
X106826000Y-136207999D02*
G75*
G03*
X105826000Y-137207999I0J-1000000D01*
G01*
%TO.C,B24*%
X102394000Y-59032500D02*
X102394000Y-53032500D01*
X103394000Y-52032500D02*
X107894000Y-52032500D01*
X107894000Y-60032500D02*
X103394000Y-60032500D01*
X108894000Y-53032500D02*
X108894000Y-59032500D01*
X103394000Y-52032500D02*
G75*
G03*
X102394000Y-53032500I-1J-999999D01*
G01*
X102394000Y-59032500D02*
G75*
G03*
X103394000Y-60032500I999999J-1D01*
G01*
X108894000Y-53032500D02*
G75*
G03*
X107894000Y-52032500I-1000000J0D01*
G01*
X107894000Y-60032500D02*
G75*
G03*
X108894000Y-59032500I0J1000000D01*
G01*
%TO.C,B8*%
X126426000Y-143208000D02*
X126426000Y-137208000D01*
X127426000Y-136208000D02*
X131926000Y-136208000D01*
X131926000Y-144208000D02*
X127426000Y-144208000D01*
X132926000Y-137208000D02*
X132926000Y-143208000D01*
X127426000Y-136208000D02*
G75*
G03*
X126426000Y-137208000I-1J-999999D01*
G01*
X126426000Y-143208000D02*
G75*
G03*
X127426000Y-144208000I999999J-1D01*
G01*
X132926000Y-137208000D02*
G75*
G03*
X131926000Y-136208000I-1000000J0D01*
G01*
X131926000Y-144208000D02*
G75*
G03*
X132926000Y-143208000I0J1000000D01*
G01*
%TO.C,B10*%
X85226000Y-143208000D02*
X85226000Y-137208000D01*
X86226000Y-136208000D02*
X90726000Y-136208000D01*
X90726000Y-144208000D02*
X86226000Y-144208000D01*
X91726000Y-137208000D02*
X91726000Y-143208000D01*
X86226000Y-136208000D02*
G75*
G03*
X85226000Y-137208000I-1J-999999D01*
G01*
X85226000Y-143208000D02*
G75*
G03*
X86226000Y-144208000I999999J-1D01*
G01*
X91726000Y-137208000D02*
G75*
G03*
X90726000Y-136208000I-1000000J0D01*
G01*
X90726000Y-144208000D02*
G75*
G03*
X91726000Y-143208000I0J1000000D01*
G01*
%TO.C,B12*%
X44026000Y-143207999D02*
X44026000Y-137207999D01*
X45026000Y-136207999D02*
X49526000Y-136207999D01*
X49526000Y-144207999D02*
X45026000Y-144207999D01*
X50526000Y-137207999D02*
X50526000Y-143207999D01*
X45026000Y-136207999D02*
G75*
G03*
X44026000Y-137207999I-1J-999999D01*
G01*
X44026000Y-143207999D02*
G75*
G03*
X45026000Y-144207999I999999J-1D01*
G01*
X50526000Y-137207999D02*
G75*
G03*
X49526000Y-136207999I-1000000J0D01*
G01*
X49526000Y-144207999D02*
G75*
G03*
X50526000Y-143207999I0J1000000D01*
G01*
%TO.C,B25*%
X88294000Y-53032500D02*
X88294000Y-59032500D01*
X87294000Y-60032500D02*
X82794000Y-60032500D01*
X82794000Y-52032500D02*
X87294000Y-52032500D01*
X81794000Y-59032500D02*
X81794000Y-53032500D01*
X87294000Y-60032500D02*
G75*
G03*
X88294000Y-59032500I1J999999D01*
G01*
X88294000Y-53032500D02*
G75*
G03*
X87294000Y-52032500I-999999J1D01*
G01*
X81794000Y-59032500D02*
G75*
G03*
X82794000Y-60032500I1000000J0D01*
G01*
X82794000Y-52032500D02*
G75*
G03*
X81794000Y-53032500I0J-1000000D01*
G01*
%TO.C,B11*%
X71126000Y-137208000D02*
X71126000Y-143208000D01*
X70126000Y-144208000D02*
X65626000Y-144208000D01*
X65626000Y-136208000D02*
X70126000Y-136208000D01*
X64626000Y-143208000D02*
X64626000Y-137208000D01*
X70126000Y-144208000D02*
G75*
G03*
X71126000Y-143208000I1J999999D01*
G01*
X71126000Y-137208000D02*
G75*
G03*
X70126000Y-136208000I-999999J1D01*
G01*
X64626000Y-143208000D02*
G75*
G03*
X65626000Y-144208000I1000000J0D01*
G01*
X65626000Y-136208000D02*
G75*
G03*
X64626000Y-137208000I0J-1000000D01*
G01*
%TO.C,B22*%
X143594000Y-59032500D02*
X143594000Y-53032500D01*
X144594000Y-52032500D02*
X149094000Y-52032500D01*
X149094000Y-60032500D02*
X144594000Y-60032500D01*
X150094000Y-53032500D02*
X150094000Y-59032500D01*
X144594000Y-52032500D02*
G75*
G03*
X143594000Y-53032500I-1J-999999D01*
G01*
X143594000Y-59032500D02*
G75*
G03*
X144594000Y-60032500I999999J-1D01*
G01*
X150094000Y-53032500D02*
G75*
G03*
X149094000Y-52032500I-1000000J0D01*
G01*
X149094000Y-60032500D02*
G75*
G03*
X150094000Y-59032500I0J1000000D01*
G01*
%TO.C,B1*%
X277126000Y-137208000D02*
X277126000Y-143208000D01*
X276126000Y-144208000D02*
X271626000Y-144208000D01*
X271626000Y-136208000D02*
X276126000Y-136208000D01*
X270626000Y-143208000D02*
X270626000Y-137208000D01*
X276126000Y-144208000D02*
G75*
G03*
X277126000Y-143208000I1J999999D01*
G01*
X277126000Y-137208000D02*
G75*
G03*
X276126000Y-136208000I-999999J1D01*
G01*
X270626000Y-143208000D02*
G75*
G03*
X271626000Y-144208000I1000000J0D01*
G01*
X271626000Y-136208000D02*
G75*
G03*
X270626000Y-137208000I0J-1000000D01*
G01*
%TO.C,B5*%
X194726000Y-137208000D02*
X194726000Y-143208000D01*
X193726000Y-144208000D02*
X189226000Y-144208000D01*
X189226000Y-136208000D02*
X193726000Y-136208000D01*
X188226000Y-143208000D02*
X188226000Y-137208000D01*
X193726000Y-144208000D02*
G75*
G03*
X194726000Y-143208000I1J999999D01*
G01*
X194726000Y-137208000D02*
G75*
G03*
X193726000Y-136208000I-999999J1D01*
G01*
X188226000Y-143208000D02*
G75*
G03*
X189226000Y-144208000I1000000J0D01*
G01*
X189226000Y-136208000D02*
G75*
G03*
X188226000Y-137208000I0J-1000000D01*
G01*
%TO.C,B23*%
X129494000Y-53032500D02*
X129494000Y-59032500D01*
X128494000Y-60032500D02*
X123994000Y-60032500D01*
X123994000Y-52032500D02*
X128494000Y-52032500D01*
X122994000Y-59032500D02*
X122994000Y-53032500D01*
X128494000Y-60032500D02*
G75*
G03*
X129494000Y-59032500I1J999999D01*
G01*
X129494000Y-53032500D02*
G75*
G03*
X128494000Y-52032500I-999999J1D01*
G01*
X122994000Y-59032500D02*
G75*
G03*
X123994000Y-60032500I1000000J0D01*
G01*
X123994000Y-52032500D02*
G75*
G03*
X122994000Y-53032500I0J-1000000D01*
G01*
%TO.C,B7*%
X153526000Y-137208000D02*
X153526000Y-143208000D01*
X152526000Y-144208000D02*
X148026000Y-144208000D01*
X148026000Y-136208000D02*
X152526000Y-136208000D01*
X147026000Y-143208000D02*
X147026000Y-137208000D01*
X152526000Y-144208000D02*
G75*
G03*
X153526000Y-143208000I1J999999D01*
G01*
X153526000Y-137208000D02*
G75*
G03*
X152526000Y-136208000I-999999J1D01*
G01*
X147026000Y-143208000D02*
G75*
G03*
X148026000Y-144208000I1000000J0D01*
G01*
X148026000Y-136208000D02*
G75*
G03*
X147026000Y-137208000I0J-1000000D01*
G01*
%TD*%
M02*
