%TF.GenerationSoftware,KiCad,Pcbnew,7.0.8*%
%TF.CreationDate,2023-11-08T15:44:53-05:00*%
%TF.ProjectId,Test Flex,54657374-2046-46c6-9578-2e6b69636164,rev?*%
%TF.SameCoordinates,Original*%
%TF.FileFunction,Copper,L1,Top*%
%TF.FilePolarity,Positive*%
%FSLAX46Y46*%
G04 Gerber Fmt 4.6, Leading zero omitted, Abs format (unit mm)*
G04 Created by KiCad (PCBNEW 7.0.8) date 2023-11-08 15:44:53*
%MOMM*%
%LPD*%
G01*
G04 APERTURE LIST*
G04 Aperture macros list*
%AMRoundRect*
0 Rectangle with rounded corners*
0 $1 Rounding radius*
0 $2 $3 $4 $5 $6 $7 $8 $9 X,Y pos of 4 corners*
0 Add a 4 corners polygon primitive as box body*
4,1,4,$2,$3,$4,$5,$6,$7,$8,$9,$2,$3,0*
0 Add four circle primitives for the rounded corners*
1,1,$1+$1,$2,$3*
1,1,$1+$1,$4,$5*
1,1,$1+$1,$6,$7*
1,1,$1+$1,$8,$9*
0 Add four rect primitives between the rounded corners*
20,1,$1+$1,$2,$3,$4,$5,0*
20,1,$1+$1,$4,$5,$6,$7,0*
20,1,$1+$1,$6,$7,$8,$9,0*
20,1,$1+$1,$8,$9,$2,$3,0*%
G04 Aperture macros list end*
%ADD10C,0.100000*%
%ADD11C,0.150000*%
%ADD12C,0.300000*%
%ADD13C,0.400000*%
%TA.AperFunction,ComponentPad*%
%ADD14C,10.000000*%
%TD*%
%TA.AperFunction,ComponentPad*%
%ADD15C,2.000000*%
%TD*%
%TA.AperFunction,SMDPad,CuDef*%
%ADD16RoundRect,0.100000X-0.637500X-0.100000X0.637500X-0.100000X0.637500X0.100000X-0.637500X0.100000X0*%
%TD*%
%TA.AperFunction,SMDPad,CuDef*%
%ADD17RoundRect,0.237500X-0.237500X0.287500X-0.237500X-0.287500X0.237500X-0.287500X0.237500X0.287500X0*%
%TD*%
%TA.AperFunction,SMDPad,CuDef*%
%ADD18RoundRect,0.237500X-0.250000X-0.237500X0.250000X-0.237500X0.250000X0.237500X-0.250000X0.237500X0*%
%TD*%
%TA.AperFunction,ComponentPad*%
%ADD19RoundRect,0.250000X0.750000X-0.600000X0.750000X0.600000X-0.750000X0.600000X-0.750000X-0.600000X0*%
%TD*%
%TA.AperFunction,ComponentPad*%
%ADD20O,2.000000X1.700000*%
%TD*%
%TA.AperFunction,SMDPad,CuDef*%
%ADD21RoundRect,0.237500X-0.287500X-0.237500X0.287500X-0.237500X0.287500X0.237500X-0.287500X0.237500X0*%
%TD*%
%TA.AperFunction,SMDPad,CuDef*%
%ADD22RoundRect,0.100000X0.100000X-0.637500X0.100000X0.637500X-0.100000X0.637500X-0.100000X-0.637500X0*%
%TD*%
%TA.AperFunction,ViaPad*%
%ADD23C,0.800000*%
%TD*%
%TA.AperFunction,Conductor*%
%ADD24C,1.000000*%
%TD*%
%TA.AperFunction,Conductor*%
%ADD25C,0.500000*%
%TD*%
%TA.AperFunction,Conductor*%
%ADD26C,0.250000*%
%TD*%
%TA.AperFunction,Conductor*%
%ADD27C,2.000000*%
%TD*%
G04 APERTURE END LIST*
D10*
D11*
X177002200Y-166007200D02*
X285002200Y-166007200D01*
X285002200Y-198007200D01*
X177002200Y-198007200D01*
X177002200Y-166007200D01*
D10*
D11*
X10000000Y-10000000D02*
X287002200Y-10000000D01*
X287002200Y-200007200D01*
X10000000Y-200007200D01*
X10000000Y-10000000D01*
D10*
D11*
X12000000Y-12000000D02*
X285002200Y-12000000D01*
X285002200Y-198007200D01*
X12000000Y-198007200D01*
X12000000Y-12000000D01*
D10*
D11*
X60000000Y-12000000D02*
X60000000Y-10000000D01*
D10*
D11*
X110000000Y-12000000D02*
X110000000Y-10000000D01*
D10*
D11*
X160000000Y-12000000D02*
X160000000Y-10000000D01*
D10*
D11*
X210000000Y-12000000D02*
X210000000Y-10000000D01*
D10*
D11*
X260000000Y-12000000D02*
X260000000Y-10000000D01*
D10*
D11*
X36089160Y-11593604D02*
X35346303Y-11593604D01*
X35717731Y-11593604D02*
X35717731Y-10293604D01*
X35717731Y-10293604D02*
X35593922Y-10479319D01*
X35593922Y-10479319D02*
X35470112Y-10603128D01*
X35470112Y-10603128D02*
X35346303Y-10665033D01*
D10*
D11*
X85346303Y-10417414D02*
X85408207Y-10355509D01*
X85408207Y-10355509D02*
X85532017Y-10293604D01*
X85532017Y-10293604D02*
X85841541Y-10293604D01*
X85841541Y-10293604D02*
X85965350Y-10355509D01*
X85965350Y-10355509D02*
X86027255Y-10417414D01*
X86027255Y-10417414D02*
X86089160Y-10541223D01*
X86089160Y-10541223D02*
X86089160Y-10665033D01*
X86089160Y-10665033D02*
X86027255Y-10850747D01*
X86027255Y-10850747D02*
X85284398Y-11593604D01*
X85284398Y-11593604D02*
X86089160Y-11593604D01*
D10*
D11*
X135284398Y-10293604D02*
X136089160Y-10293604D01*
X136089160Y-10293604D02*
X135655826Y-10788842D01*
X135655826Y-10788842D02*
X135841541Y-10788842D01*
X135841541Y-10788842D02*
X135965350Y-10850747D01*
X135965350Y-10850747D02*
X136027255Y-10912652D01*
X136027255Y-10912652D02*
X136089160Y-11036461D01*
X136089160Y-11036461D02*
X136089160Y-11345985D01*
X136089160Y-11345985D02*
X136027255Y-11469795D01*
X136027255Y-11469795D02*
X135965350Y-11531700D01*
X135965350Y-11531700D02*
X135841541Y-11593604D01*
X135841541Y-11593604D02*
X135470112Y-11593604D01*
X135470112Y-11593604D02*
X135346303Y-11531700D01*
X135346303Y-11531700D02*
X135284398Y-11469795D01*
D10*
D11*
X185965350Y-10726938D02*
X185965350Y-11593604D01*
X185655826Y-10231700D02*
X185346303Y-11160271D01*
X185346303Y-11160271D02*
X186151064Y-11160271D01*
D10*
D11*
X236027255Y-10293604D02*
X235408207Y-10293604D01*
X235408207Y-10293604D02*
X235346303Y-10912652D01*
X235346303Y-10912652D02*
X235408207Y-10850747D01*
X235408207Y-10850747D02*
X235532017Y-10788842D01*
X235532017Y-10788842D02*
X235841541Y-10788842D01*
X235841541Y-10788842D02*
X235965350Y-10850747D01*
X235965350Y-10850747D02*
X236027255Y-10912652D01*
X236027255Y-10912652D02*
X236089160Y-11036461D01*
X236089160Y-11036461D02*
X236089160Y-11345985D01*
X236089160Y-11345985D02*
X236027255Y-11469795D01*
X236027255Y-11469795D02*
X235965350Y-11531700D01*
X235965350Y-11531700D02*
X235841541Y-11593604D01*
X235841541Y-11593604D02*
X235532017Y-11593604D01*
X235532017Y-11593604D02*
X235408207Y-11531700D01*
X235408207Y-11531700D02*
X235346303Y-11469795D01*
D10*
D11*
X285965350Y-10293604D02*
X285717731Y-10293604D01*
X285717731Y-10293604D02*
X285593922Y-10355509D01*
X285593922Y-10355509D02*
X285532017Y-10417414D01*
X285532017Y-10417414D02*
X285408207Y-10603128D01*
X285408207Y-10603128D02*
X285346303Y-10850747D01*
X285346303Y-10850747D02*
X285346303Y-11345985D01*
X285346303Y-11345985D02*
X285408207Y-11469795D01*
X285408207Y-11469795D02*
X285470112Y-11531700D01*
X285470112Y-11531700D02*
X285593922Y-11593604D01*
X285593922Y-11593604D02*
X285841541Y-11593604D01*
X285841541Y-11593604D02*
X285965350Y-11531700D01*
X285965350Y-11531700D02*
X286027255Y-11469795D01*
X286027255Y-11469795D02*
X286089160Y-11345985D01*
X286089160Y-11345985D02*
X286089160Y-11036461D01*
X286089160Y-11036461D02*
X286027255Y-10912652D01*
X286027255Y-10912652D02*
X285965350Y-10850747D01*
X285965350Y-10850747D02*
X285841541Y-10788842D01*
X285841541Y-10788842D02*
X285593922Y-10788842D01*
X285593922Y-10788842D02*
X285470112Y-10850747D01*
X285470112Y-10850747D02*
X285408207Y-10912652D01*
X285408207Y-10912652D02*
X285346303Y-11036461D01*
D10*
D11*
X60000000Y-198007200D02*
X60000000Y-200007200D01*
D10*
D11*
X110000000Y-198007200D02*
X110000000Y-200007200D01*
D10*
D11*
X160000000Y-198007200D02*
X160000000Y-200007200D01*
D10*
D11*
X210000000Y-198007200D02*
X210000000Y-200007200D01*
D10*
D11*
X260000000Y-198007200D02*
X260000000Y-200007200D01*
D10*
D11*
X36089160Y-199600804D02*
X35346303Y-199600804D01*
X35717731Y-199600804D02*
X35717731Y-198300804D01*
X35717731Y-198300804D02*
X35593922Y-198486519D01*
X35593922Y-198486519D02*
X35470112Y-198610328D01*
X35470112Y-198610328D02*
X35346303Y-198672233D01*
D10*
D11*
X85346303Y-198424614D02*
X85408207Y-198362709D01*
X85408207Y-198362709D02*
X85532017Y-198300804D01*
X85532017Y-198300804D02*
X85841541Y-198300804D01*
X85841541Y-198300804D02*
X85965350Y-198362709D01*
X85965350Y-198362709D02*
X86027255Y-198424614D01*
X86027255Y-198424614D02*
X86089160Y-198548423D01*
X86089160Y-198548423D02*
X86089160Y-198672233D01*
X86089160Y-198672233D02*
X86027255Y-198857947D01*
X86027255Y-198857947D02*
X85284398Y-199600804D01*
X85284398Y-199600804D02*
X86089160Y-199600804D01*
D10*
D11*
X135284398Y-198300804D02*
X136089160Y-198300804D01*
X136089160Y-198300804D02*
X135655826Y-198796042D01*
X135655826Y-198796042D02*
X135841541Y-198796042D01*
X135841541Y-198796042D02*
X135965350Y-198857947D01*
X135965350Y-198857947D02*
X136027255Y-198919852D01*
X136027255Y-198919852D02*
X136089160Y-199043661D01*
X136089160Y-199043661D02*
X136089160Y-199353185D01*
X136089160Y-199353185D02*
X136027255Y-199476995D01*
X136027255Y-199476995D02*
X135965350Y-199538900D01*
X135965350Y-199538900D02*
X135841541Y-199600804D01*
X135841541Y-199600804D02*
X135470112Y-199600804D01*
X135470112Y-199600804D02*
X135346303Y-199538900D01*
X135346303Y-199538900D02*
X135284398Y-199476995D01*
D10*
D11*
X185965350Y-198734138D02*
X185965350Y-199600804D01*
X185655826Y-198238900D02*
X185346303Y-199167471D01*
X185346303Y-199167471D02*
X186151064Y-199167471D01*
D10*
D11*
X236027255Y-198300804D02*
X235408207Y-198300804D01*
X235408207Y-198300804D02*
X235346303Y-198919852D01*
X235346303Y-198919852D02*
X235408207Y-198857947D01*
X235408207Y-198857947D02*
X235532017Y-198796042D01*
X235532017Y-198796042D02*
X235841541Y-198796042D01*
X235841541Y-198796042D02*
X235965350Y-198857947D01*
X235965350Y-198857947D02*
X236027255Y-198919852D01*
X236027255Y-198919852D02*
X236089160Y-199043661D01*
X236089160Y-199043661D02*
X236089160Y-199353185D01*
X236089160Y-199353185D02*
X236027255Y-199476995D01*
X236027255Y-199476995D02*
X235965350Y-199538900D01*
X235965350Y-199538900D02*
X235841541Y-199600804D01*
X235841541Y-199600804D02*
X235532017Y-199600804D01*
X235532017Y-199600804D02*
X235408207Y-199538900D01*
X235408207Y-199538900D02*
X235346303Y-199476995D01*
D10*
D11*
X285965350Y-198300804D02*
X285717731Y-198300804D01*
X285717731Y-198300804D02*
X285593922Y-198362709D01*
X285593922Y-198362709D02*
X285532017Y-198424614D01*
X285532017Y-198424614D02*
X285408207Y-198610328D01*
X285408207Y-198610328D02*
X285346303Y-198857947D01*
X285346303Y-198857947D02*
X285346303Y-199353185D01*
X285346303Y-199353185D02*
X285408207Y-199476995D01*
X285408207Y-199476995D02*
X285470112Y-199538900D01*
X285470112Y-199538900D02*
X285593922Y-199600804D01*
X285593922Y-199600804D02*
X285841541Y-199600804D01*
X285841541Y-199600804D02*
X285965350Y-199538900D01*
X285965350Y-199538900D02*
X286027255Y-199476995D01*
X286027255Y-199476995D02*
X286089160Y-199353185D01*
X286089160Y-199353185D02*
X286089160Y-199043661D01*
X286089160Y-199043661D02*
X286027255Y-198919852D01*
X286027255Y-198919852D02*
X285965350Y-198857947D01*
X285965350Y-198857947D02*
X285841541Y-198796042D01*
X285841541Y-198796042D02*
X285593922Y-198796042D01*
X285593922Y-198796042D02*
X285470112Y-198857947D01*
X285470112Y-198857947D02*
X285408207Y-198919852D01*
X285408207Y-198919852D02*
X285346303Y-199043661D01*
D10*
D11*
X10000000Y-60000000D02*
X12000000Y-60000000D01*
D10*
D11*
X10000000Y-110000000D02*
X12000000Y-110000000D01*
D10*
D11*
X10000000Y-160000000D02*
X12000000Y-160000000D01*
D10*
D11*
X10690476Y-35222176D02*
X11309523Y-35222176D01*
X10566666Y-35593604D02*
X10999999Y-34293604D01*
X10999999Y-34293604D02*
X11433333Y-35593604D01*
D10*
D11*
X11092857Y-84912652D02*
X11278571Y-84974557D01*
X11278571Y-84974557D02*
X11340476Y-85036461D01*
X11340476Y-85036461D02*
X11402380Y-85160271D01*
X11402380Y-85160271D02*
X11402380Y-85345985D01*
X11402380Y-85345985D02*
X11340476Y-85469795D01*
X11340476Y-85469795D02*
X11278571Y-85531700D01*
X11278571Y-85531700D02*
X11154761Y-85593604D01*
X11154761Y-85593604D02*
X10659523Y-85593604D01*
X10659523Y-85593604D02*
X10659523Y-84293604D01*
X10659523Y-84293604D02*
X11092857Y-84293604D01*
X11092857Y-84293604D02*
X11216666Y-84355509D01*
X11216666Y-84355509D02*
X11278571Y-84417414D01*
X11278571Y-84417414D02*
X11340476Y-84541223D01*
X11340476Y-84541223D02*
X11340476Y-84665033D01*
X11340476Y-84665033D02*
X11278571Y-84788842D01*
X11278571Y-84788842D02*
X11216666Y-84850747D01*
X11216666Y-84850747D02*
X11092857Y-84912652D01*
X11092857Y-84912652D02*
X10659523Y-84912652D01*
D10*
D11*
X11402380Y-135469795D02*
X11340476Y-135531700D01*
X11340476Y-135531700D02*
X11154761Y-135593604D01*
X11154761Y-135593604D02*
X11030952Y-135593604D01*
X11030952Y-135593604D02*
X10845238Y-135531700D01*
X10845238Y-135531700D02*
X10721428Y-135407890D01*
X10721428Y-135407890D02*
X10659523Y-135284080D01*
X10659523Y-135284080D02*
X10597619Y-135036461D01*
X10597619Y-135036461D02*
X10597619Y-134850747D01*
X10597619Y-134850747D02*
X10659523Y-134603128D01*
X10659523Y-134603128D02*
X10721428Y-134479319D01*
X10721428Y-134479319D02*
X10845238Y-134355509D01*
X10845238Y-134355509D02*
X11030952Y-134293604D01*
X11030952Y-134293604D02*
X11154761Y-134293604D01*
X11154761Y-134293604D02*
X11340476Y-134355509D01*
X11340476Y-134355509D02*
X11402380Y-134417414D01*
D10*
D11*
X10659523Y-185593604D02*
X10659523Y-184293604D01*
X10659523Y-184293604D02*
X10969047Y-184293604D01*
X10969047Y-184293604D02*
X11154761Y-184355509D01*
X11154761Y-184355509D02*
X11278571Y-184479319D01*
X11278571Y-184479319D02*
X11340476Y-184603128D01*
X11340476Y-184603128D02*
X11402380Y-184850747D01*
X11402380Y-184850747D02*
X11402380Y-185036461D01*
X11402380Y-185036461D02*
X11340476Y-185284080D01*
X11340476Y-185284080D02*
X11278571Y-185407890D01*
X11278571Y-185407890D02*
X11154761Y-185531700D01*
X11154761Y-185531700D02*
X10969047Y-185593604D01*
X10969047Y-185593604D02*
X10659523Y-185593604D01*
D10*
D11*
X287002200Y-60000000D02*
X285002200Y-60000000D01*
D10*
D11*
X287002200Y-110000000D02*
X285002200Y-110000000D01*
D10*
D11*
X287002200Y-160000000D02*
X285002200Y-160000000D01*
D10*
D11*
X285692676Y-35222176D02*
X286311723Y-35222176D01*
X285568866Y-35593604D02*
X286002199Y-34293604D01*
X286002199Y-34293604D02*
X286435533Y-35593604D01*
D10*
D11*
X286095057Y-84912652D02*
X286280771Y-84974557D01*
X286280771Y-84974557D02*
X286342676Y-85036461D01*
X286342676Y-85036461D02*
X286404580Y-85160271D01*
X286404580Y-85160271D02*
X286404580Y-85345985D01*
X286404580Y-85345985D02*
X286342676Y-85469795D01*
X286342676Y-85469795D02*
X286280771Y-85531700D01*
X286280771Y-85531700D02*
X286156961Y-85593604D01*
X286156961Y-85593604D02*
X285661723Y-85593604D01*
X285661723Y-85593604D02*
X285661723Y-84293604D01*
X285661723Y-84293604D02*
X286095057Y-84293604D01*
X286095057Y-84293604D02*
X286218866Y-84355509D01*
X286218866Y-84355509D02*
X286280771Y-84417414D01*
X286280771Y-84417414D02*
X286342676Y-84541223D01*
X286342676Y-84541223D02*
X286342676Y-84665033D01*
X286342676Y-84665033D02*
X286280771Y-84788842D01*
X286280771Y-84788842D02*
X286218866Y-84850747D01*
X286218866Y-84850747D02*
X286095057Y-84912652D01*
X286095057Y-84912652D02*
X285661723Y-84912652D01*
D10*
D11*
X286404580Y-135469795D02*
X286342676Y-135531700D01*
X286342676Y-135531700D02*
X286156961Y-135593604D01*
X286156961Y-135593604D02*
X286033152Y-135593604D01*
X286033152Y-135593604D02*
X285847438Y-135531700D01*
X285847438Y-135531700D02*
X285723628Y-135407890D01*
X285723628Y-135407890D02*
X285661723Y-135284080D01*
X285661723Y-135284080D02*
X285599819Y-135036461D01*
X285599819Y-135036461D02*
X285599819Y-134850747D01*
X285599819Y-134850747D02*
X285661723Y-134603128D01*
X285661723Y-134603128D02*
X285723628Y-134479319D01*
X285723628Y-134479319D02*
X285847438Y-134355509D01*
X285847438Y-134355509D02*
X286033152Y-134293604D01*
X286033152Y-134293604D02*
X286156961Y-134293604D01*
X286156961Y-134293604D02*
X286342676Y-134355509D01*
X286342676Y-134355509D02*
X286404580Y-134417414D01*
D10*
D11*
X285661723Y-185593604D02*
X285661723Y-184293604D01*
X285661723Y-184293604D02*
X285971247Y-184293604D01*
X285971247Y-184293604D02*
X286156961Y-184355509D01*
X286156961Y-184355509D02*
X286280771Y-184479319D01*
X286280771Y-184479319D02*
X286342676Y-184603128D01*
X286342676Y-184603128D02*
X286404580Y-184850747D01*
X286404580Y-184850747D02*
X286404580Y-185036461D01*
X286404580Y-185036461D02*
X286342676Y-185284080D01*
X286342676Y-185284080D02*
X286280771Y-185407890D01*
X286280771Y-185407890D02*
X286156961Y-185531700D01*
X286156961Y-185531700D02*
X285971247Y-185593604D01*
X285971247Y-185593604D02*
X285661723Y-185593604D01*
D10*
D11*
X200458026Y-193793328D02*
X200458026Y-192293328D01*
X200458026Y-192293328D02*
X200815169Y-192293328D01*
X200815169Y-192293328D02*
X201029455Y-192364757D01*
X201029455Y-192364757D02*
X201172312Y-192507614D01*
X201172312Y-192507614D02*
X201243741Y-192650471D01*
X201243741Y-192650471D02*
X201315169Y-192936185D01*
X201315169Y-192936185D02*
X201315169Y-193150471D01*
X201315169Y-193150471D02*
X201243741Y-193436185D01*
X201243741Y-193436185D02*
X201172312Y-193579042D01*
X201172312Y-193579042D02*
X201029455Y-193721900D01*
X201029455Y-193721900D02*
X200815169Y-193793328D01*
X200815169Y-193793328D02*
X200458026Y-193793328D01*
X202600884Y-193793328D02*
X202600884Y-193007614D01*
X202600884Y-193007614D02*
X202529455Y-192864757D01*
X202529455Y-192864757D02*
X202386598Y-192793328D01*
X202386598Y-192793328D02*
X202100884Y-192793328D01*
X202100884Y-192793328D02*
X201958026Y-192864757D01*
X202600884Y-193721900D02*
X202458026Y-193793328D01*
X202458026Y-193793328D02*
X202100884Y-193793328D01*
X202100884Y-193793328D02*
X201958026Y-193721900D01*
X201958026Y-193721900D02*
X201886598Y-193579042D01*
X201886598Y-193579042D02*
X201886598Y-193436185D01*
X201886598Y-193436185D02*
X201958026Y-193293328D01*
X201958026Y-193293328D02*
X202100884Y-193221900D01*
X202100884Y-193221900D02*
X202458026Y-193221900D01*
X202458026Y-193221900D02*
X202600884Y-193150471D01*
X203100884Y-192793328D02*
X203672312Y-192793328D01*
X203315169Y-192293328D02*
X203315169Y-193579042D01*
X203315169Y-193579042D02*
X203386598Y-193721900D01*
X203386598Y-193721900D02*
X203529455Y-193793328D01*
X203529455Y-193793328D02*
X203672312Y-193793328D01*
X204743741Y-193721900D02*
X204600884Y-193793328D01*
X204600884Y-193793328D02*
X204315170Y-193793328D01*
X204315170Y-193793328D02*
X204172312Y-193721900D01*
X204172312Y-193721900D02*
X204100884Y-193579042D01*
X204100884Y-193579042D02*
X204100884Y-193007614D01*
X204100884Y-193007614D02*
X204172312Y-192864757D01*
X204172312Y-192864757D02*
X204315170Y-192793328D01*
X204315170Y-192793328D02*
X204600884Y-192793328D01*
X204600884Y-192793328D02*
X204743741Y-192864757D01*
X204743741Y-192864757D02*
X204815170Y-193007614D01*
X204815170Y-193007614D02*
X204815170Y-193150471D01*
X204815170Y-193150471D02*
X204100884Y-193293328D01*
X205458026Y-193650471D02*
X205529455Y-193721900D01*
X205529455Y-193721900D02*
X205458026Y-193793328D01*
X205458026Y-193793328D02*
X205386598Y-193721900D01*
X205386598Y-193721900D02*
X205458026Y-193650471D01*
X205458026Y-193650471D02*
X205458026Y-193793328D01*
X205458026Y-192864757D02*
X205529455Y-192936185D01*
X205529455Y-192936185D02*
X205458026Y-193007614D01*
X205458026Y-193007614D02*
X205386598Y-192936185D01*
X205386598Y-192936185D02*
X205458026Y-192864757D01*
X205458026Y-192864757D02*
X205458026Y-193007614D01*
D10*
D11*
X177002200Y-194507200D02*
X285002200Y-194507200D01*
D10*
D11*
X178458026Y-196593328D02*
X178458026Y-195093328D01*
X179315169Y-196593328D02*
X178672312Y-195736185D01*
X179315169Y-195093328D02*
X178458026Y-195950471D01*
X179958026Y-196593328D02*
X179958026Y-195593328D01*
X179958026Y-195093328D02*
X179886598Y-195164757D01*
X179886598Y-195164757D02*
X179958026Y-195236185D01*
X179958026Y-195236185D02*
X180029455Y-195164757D01*
X180029455Y-195164757D02*
X179958026Y-195093328D01*
X179958026Y-195093328D02*
X179958026Y-195236185D01*
X181529455Y-196450471D02*
X181458027Y-196521900D01*
X181458027Y-196521900D02*
X181243741Y-196593328D01*
X181243741Y-196593328D02*
X181100884Y-196593328D01*
X181100884Y-196593328D02*
X180886598Y-196521900D01*
X180886598Y-196521900D02*
X180743741Y-196379042D01*
X180743741Y-196379042D02*
X180672312Y-196236185D01*
X180672312Y-196236185D02*
X180600884Y-195950471D01*
X180600884Y-195950471D02*
X180600884Y-195736185D01*
X180600884Y-195736185D02*
X180672312Y-195450471D01*
X180672312Y-195450471D02*
X180743741Y-195307614D01*
X180743741Y-195307614D02*
X180886598Y-195164757D01*
X180886598Y-195164757D02*
X181100884Y-195093328D01*
X181100884Y-195093328D02*
X181243741Y-195093328D01*
X181243741Y-195093328D02*
X181458027Y-195164757D01*
X181458027Y-195164757D02*
X181529455Y-195236185D01*
X182815170Y-196593328D02*
X182815170Y-195807614D01*
X182815170Y-195807614D02*
X182743741Y-195664757D01*
X182743741Y-195664757D02*
X182600884Y-195593328D01*
X182600884Y-195593328D02*
X182315170Y-195593328D01*
X182315170Y-195593328D02*
X182172312Y-195664757D01*
X182815170Y-196521900D02*
X182672312Y-196593328D01*
X182672312Y-196593328D02*
X182315170Y-196593328D01*
X182315170Y-196593328D02*
X182172312Y-196521900D01*
X182172312Y-196521900D02*
X182100884Y-196379042D01*
X182100884Y-196379042D02*
X182100884Y-196236185D01*
X182100884Y-196236185D02*
X182172312Y-196093328D01*
X182172312Y-196093328D02*
X182315170Y-196021900D01*
X182315170Y-196021900D02*
X182672312Y-196021900D01*
X182672312Y-196021900D02*
X182815170Y-195950471D01*
X184172313Y-196593328D02*
X184172313Y-195093328D01*
X184172313Y-196521900D02*
X184029455Y-196593328D01*
X184029455Y-196593328D02*
X183743741Y-196593328D01*
X183743741Y-196593328D02*
X183600884Y-196521900D01*
X183600884Y-196521900D02*
X183529455Y-196450471D01*
X183529455Y-196450471D02*
X183458027Y-196307614D01*
X183458027Y-196307614D02*
X183458027Y-195879042D01*
X183458027Y-195879042D02*
X183529455Y-195736185D01*
X183529455Y-195736185D02*
X183600884Y-195664757D01*
X183600884Y-195664757D02*
X183743741Y-195593328D01*
X183743741Y-195593328D02*
X184029455Y-195593328D01*
X184029455Y-195593328D02*
X184172313Y-195664757D01*
X186029455Y-195807614D02*
X186529455Y-195807614D01*
X186743741Y-196593328D02*
X186029455Y-196593328D01*
X186029455Y-196593328D02*
X186029455Y-195093328D01*
X186029455Y-195093328D02*
X186743741Y-195093328D01*
X187386598Y-196450471D02*
X187458027Y-196521900D01*
X187458027Y-196521900D02*
X187386598Y-196593328D01*
X187386598Y-196593328D02*
X187315170Y-196521900D01*
X187315170Y-196521900D02*
X187386598Y-196450471D01*
X187386598Y-196450471D02*
X187386598Y-196593328D01*
X188100884Y-196593328D02*
X188100884Y-195093328D01*
X188100884Y-195093328D02*
X188458027Y-195093328D01*
X188458027Y-195093328D02*
X188672313Y-195164757D01*
X188672313Y-195164757D02*
X188815170Y-195307614D01*
X188815170Y-195307614D02*
X188886599Y-195450471D01*
X188886599Y-195450471D02*
X188958027Y-195736185D01*
X188958027Y-195736185D02*
X188958027Y-195950471D01*
X188958027Y-195950471D02*
X188886599Y-196236185D01*
X188886599Y-196236185D02*
X188815170Y-196379042D01*
X188815170Y-196379042D02*
X188672313Y-196521900D01*
X188672313Y-196521900D02*
X188458027Y-196593328D01*
X188458027Y-196593328D02*
X188100884Y-196593328D01*
X189600884Y-196450471D02*
X189672313Y-196521900D01*
X189672313Y-196521900D02*
X189600884Y-196593328D01*
X189600884Y-196593328D02*
X189529456Y-196521900D01*
X189529456Y-196521900D02*
X189600884Y-196450471D01*
X189600884Y-196450471D02*
X189600884Y-196593328D01*
X190243742Y-196164757D02*
X190958028Y-196164757D01*
X190100885Y-196593328D02*
X190600885Y-195093328D01*
X190600885Y-195093328D02*
X191100885Y-196593328D01*
X191600884Y-196450471D02*
X191672313Y-196521900D01*
X191672313Y-196521900D02*
X191600884Y-196593328D01*
X191600884Y-196593328D02*
X191529456Y-196521900D01*
X191529456Y-196521900D02*
X191600884Y-196450471D01*
X191600884Y-196450471D02*
X191600884Y-196593328D01*
X194600884Y-196593328D02*
X194600884Y-195093328D01*
X194743742Y-196021900D02*
X195172313Y-196593328D01*
X195172313Y-195593328D02*
X194600884Y-196164757D01*
X195815170Y-196593328D02*
X195815170Y-195593328D01*
X195815170Y-195093328D02*
X195743742Y-195164757D01*
X195743742Y-195164757D02*
X195815170Y-195236185D01*
X195815170Y-195236185D02*
X195886599Y-195164757D01*
X195886599Y-195164757D02*
X195815170Y-195093328D01*
X195815170Y-195093328D02*
X195815170Y-195236185D01*
X197172314Y-196521900D02*
X197029456Y-196593328D01*
X197029456Y-196593328D02*
X196743742Y-196593328D01*
X196743742Y-196593328D02*
X196600885Y-196521900D01*
X196600885Y-196521900D02*
X196529456Y-196450471D01*
X196529456Y-196450471D02*
X196458028Y-196307614D01*
X196458028Y-196307614D02*
X196458028Y-195879042D01*
X196458028Y-195879042D02*
X196529456Y-195736185D01*
X196529456Y-195736185D02*
X196600885Y-195664757D01*
X196600885Y-195664757D02*
X196743742Y-195593328D01*
X196743742Y-195593328D02*
X197029456Y-195593328D01*
X197029456Y-195593328D02*
X197172314Y-195664757D01*
X198458028Y-196593328D02*
X198458028Y-195807614D01*
X198458028Y-195807614D02*
X198386599Y-195664757D01*
X198386599Y-195664757D02*
X198243742Y-195593328D01*
X198243742Y-195593328D02*
X197958028Y-195593328D01*
X197958028Y-195593328D02*
X197815170Y-195664757D01*
X198458028Y-196521900D02*
X198315170Y-196593328D01*
X198315170Y-196593328D02*
X197958028Y-196593328D01*
X197958028Y-196593328D02*
X197815170Y-196521900D01*
X197815170Y-196521900D02*
X197743742Y-196379042D01*
X197743742Y-196379042D02*
X197743742Y-196236185D01*
X197743742Y-196236185D02*
X197815170Y-196093328D01*
X197815170Y-196093328D02*
X197958028Y-196021900D01*
X197958028Y-196021900D02*
X198315170Y-196021900D01*
X198315170Y-196021900D02*
X198458028Y-195950471D01*
X199815171Y-196593328D02*
X199815171Y-195093328D01*
X199815171Y-196521900D02*
X199672313Y-196593328D01*
X199672313Y-196593328D02*
X199386599Y-196593328D01*
X199386599Y-196593328D02*
X199243742Y-196521900D01*
X199243742Y-196521900D02*
X199172313Y-196450471D01*
X199172313Y-196450471D02*
X199100885Y-196307614D01*
X199100885Y-196307614D02*
X199100885Y-195879042D01*
X199100885Y-195879042D02*
X199172313Y-195736185D01*
X199172313Y-195736185D02*
X199243742Y-195664757D01*
X199243742Y-195664757D02*
X199386599Y-195593328D01*
X199386599Y-195593328D02*
X199672313Y-195593328D01*
X199672313Y-195593328D02*
X199815171Y-195664757D01*
X201529456Y-195093328D02*
X202529456Y-195093328D01*
X202529456Y-195093328D02*
X201886599Y-196593328D01*
X203100884Y-196450471D02*
X203172313Y-196521900D01*
X203172313Y-196521900D02*
X203100884Y-196593328D01*
X203100884Y-196593328D02*
X203029456Y-196521900D01*
X203029456Y-196521900D02*
X203100884Y-196450471D01*
X203100884Y-196450471D02*
X203100884Y-196593328D01*
X204100885Y-195093328D02*
X204243742Y-195093328D01*
X204243742Y-195093328D02*
X204386599Y-195164757D01*
X204386599Y-195164757D02*
X204458028Y-195236185D01*
X204458028Y-195236185D02*
X204529456Y-195379042D01*
X204529456Y-195379042D02*
X204600885Y-195664757D01*
X204600885Y-195664757D02*
X204600885Y-196021900D01*
X204600885Y-196021900D02*
X204529456Y-196307614D01*
X204529456Y-196307614D02*
X204458028Y-196450471D01*
X204458028Y-196450471D02*
X204386599Y-196521900D01*
X204386599Y-196521900D02*
X204243742Y-196593328D01*
X204243742Y-196593328D02*
X204100885Y-196593328D01*
X204100885Y-196593328D02*
X203958028Y-196521900D01*
X203958028Y-196521900D02*
X203886599Y-196450471D01*
X203886599Y-196450471D02*
X203815170Y-196307614D01*
X203815170Y-196307614D02*
X203743742Y-196021900D01*
X203743742Y-196021900D02*
X203743742Y-195664757D01*
X203743742Y-195664757D02*
X203815170Y-195379042D01*
X203815170Y-195379042D02*
X203886599Y-195236185D01*
X203886599Y-195236185D02*
X203958028Y-195164757D01*
X203958028Y-195164757D02*
X204100885Y-195093328D01*
X205243741Y-196450471D02*
X205315170Y-196521900D01*
X205315170Y-196521900D02*
X205243741Y-196593328D01*
X205243741Y-196593328D02*
X205172313Y-196521900D01*
X205172313Y-196521900D02*
X205243741Y-196450471D01*
X205243741Y-196450471D02*
X205243741Y-196593328D01*
X206172313Y-195736185D02*
X206029456Y-195664757D01*
X206029456Y-195664757D02*
X205958027Y-195593328D01*
X205958027Y-195593328D02*
X205886599Y-195450471D01*
X205886599Y-195450471D02*
X205886599Y-195379042D01*
X205886599Y-195379042D02*
X205958027Y-195236185D01*
X205958027Y-195236185D02*
X206029456Y-195164757D01*
X206029456Y-195164757D02*
X206172313Y-195093328D01*
X206172313Y-195093328D02*
X206458027Y-195093328D01*
X206458027Y-195093328D02*
X206600885Y-195164757D01*
X206600885Y-195164757D02*
X206672313Y-195236185D01*
X206672313Y-195236185D02*
X206743742Y-195379042D01*
X206743742Y-195379042D02*
X206743742Y-195450471D01*
X206743742Y-195450471D02*
X206672313Y-195593328D01*
X206672313Y-195593328D02*
X206600885Y-195664757D01*
X206600885Y-195664757D02*
X206458027Y-195736185D01*
X206458027Y-195736185D02*
X206172313Y-195736185D01*
X206172313Y-195736185D02*
X206029456Y-195807614D01*
X206029456Y-195807614D02*
X205958027Y-195879042D01*
X205958027Y-195879042D02*
X205886599Y-196021900D01*
X205886599Y-196021900D02*
X205886599Y-196307614D01*
X205886599Y-196307614D02*
X205958027Y-196450471D01*
X205958027Y-196450471D02*
X206029456Y-196521900D01*
X206029456Y-196521900D02*
X206172313Y-196593328D01*
X206172313Y-196593328D02*
X206458027Y-196593328D01*
X206458027Y-196593328D02*
X206600885Y-196521900D01*
X206600885Y-196521900D02*
X206672313Y-196450471D01*
X206672313Y-196450471D02*
X206743742Y-196307614D01*
X206743742Y-196307614D02*
X206743742Y-196021900D01*
X206743742Y-196021900D02*
X206672313Y-195879042D01*
X206672313Y-195879042D02*
X206600885Y-195807614D01*
X206600885Y-195807614D02*
X206458027Y-195736185D01*
D10*
D11*
X177002200Y-191507200D02*
X285002200Y-191507200D01*
D10*
D12*
X264413853Y-193785528D02*
X263913853Y-193071242D01*
X263556710Y-193785528D02*
X263556710Y-192285528D01*
X263556710Y-192285528D02*
X264128139Y-192285528D01*
X264128139Y-192285528D02*
X264270996Y-192356957D01*
X264270996Y-192356957D02*
X264342425Y-192428385D01*
X264342425Y-192428385D02*
X264413853Y-192571242D01*
X264413853Y-192571242D02*
X264413853Y-192785528D01*
X264413853Y-192785528D02*
X264342425Y-192928385D01*
X264342425Y-192928385D02*
X264270996Y-192999814D01*
X264270996Y-192999814D02*
X264128139Y-193071242D01*
X264128139Y-193071242D02*
X263556710Y-193071242D01*
X265628139Y-193714100D02*
X265485282Y-193785528D01*
X265485282Y-193785528D02*
X265199568Y-193785528D01*
X265199568Y-193785528D02*
X265056710Y-193714100D01*
X265056710Y-193714100D02*
X264985282Y-193571242D01*
X264985282Y-193571242D02*
X264985282Y-192999814D01*
X264985282Y-192999814D02*
X265056710Y-192856957D01*
X265056710Y-192856957D02*
X265199568Y-192785528D01*
X265199568Y-192785528D02*
X265485282Y-192785528D01*
X265485282Y-192785528D02*
X265628139Y-192856957D01*
X265628139Y-192856957D02*
X265699568Y-192999814D01*
X265699568Y-192999814D02*
X265699568Y-193142671D01*
X265699568Y-193142671D02*
X264985282Y-193285528D01*
X266199567Y-192785528D02*
X266556710Y-193785528D01*
X266556710Y-193785528D02*
X266913853Y-192785528D01*
X267485281Y-193642671D02*
X267556710Y-193714100D01*
X267556710Y-193714100D02*
X267485281Y-193785528D01*
X267485281Y-193785528D02*
X267413853Y-193714100D01*
X267413853Y-193714100D02*
X267485281Y-193642671D01*
X267485281Y-193642671D02*
X267485281Y-193785528D01*
X267485281Y-192856957D02*
X267556710Y-192928385D01*
X267556710Y-192928385D02*
X267485281Y-192999814D01*
X267485281Y-192999814D02*
X267413853Y-192928385D01*
X267413853Y-192928385D02*
X267485281Y-192856957D01*
X267485281Y-192856957D02*
X267485281Y-192999814D01*
D10*
D11*
X178386598Y-193721900D02*
X178600884Y-193793328D01*
X178600884Y-193793328D02*
X178958026Y-193793328D01*
X178958026Y-193793328D02*
X179100884Y-193721900D01*
X179100884Y-193721900D02*
X179172312Y-193650471D01*
X179172312Y-193650471D02*
X179243741Y-193507614D01*
X179243741Y-193507614D02*
X179243741Y-193364757D01*
X179243741Y-193364757D02*
X179172312Y-193221900D01*
X179172312Y-193221900D02*
X179100884Y-193150471D01*
X179100884Y-193150471D02*
X178958026Y-193079042D01*
X178958026Y-193079042D02*
X178672312Y-193007614D01*
X178672312Y-193007614D02*
X178529455Y-192936185D01*
X178529455Y-192936185D02*
X178458026Y-192864757D01*
X178458026Y-192864757D02*
X178386598Y-192721900D01*
X178386598Y-192721900D02*
X178386598Y-192579042D01*
X178386598Y-192579042D02*
X178458026Y-192436185D01*
X178458026Y-192436185D02*
X178529455Y-192364757D01*
X178529455Y-192364757D02*
X178672312Y-192293328D01*
X178672312Y-192293328D02*
X179029455Y-192293328D01*
X179029455Y-192293328D02*
X179243741Y-192364757D01*
X179886597Y-193793328D02*
X179886597Y-192793328D01*
X179886597Y-192293328D02*
X179815169Y-192364757D01*
X179815169Y-192364757D02*
X179886597Y-192436185D01*
X179886597Y-192436185D02*
X179958026Y-192364757D01*
X179958026Y-192364757D02*
X179886597Y-192293328D01*
X179886597Y-192293328D02*
X179886597Y-192436185D01*
X180458026Y-192793328D02*
X181243741Y-192793328D01*
X181243741Y-192793328D02*
X180458026Y-193793328D01*
X180458026Y-193793328D02*
X181243741Y-193793328D01*
X182386598Y-193721900D02*
X182243741Y-193793328D01*
X182243741Y-193793328D02*
X181958027Y-193793328D01*
X181958027Y-193793328D02*
X181815169Y-193721900D01*
X181815169Y-193721900D02*
X181743741Y-193579042D01*
X181743741Y-193579042D02*
X181743741Y-193007614D01*
X181743741Y-193007614D02*
X181815169Y-192864757D01*
X181815169Y-192864757D02*
X181958027Y-192793328D01*
X181958027Y-192793328D02*
X182243741Y-192793328D01*
X182243741Y-192793328D02*
X182386598Y-192864757D01*
X182386598Y-192864757D02*
X182458027Y-193007614D01*
X182458027Y-193007614D02*
X182458027Y-193150471D01*
X182458027Y-193150471D02*
X181743741Y-193293328D01*
X183100883Y-193650471D02*
X183172312Y-193721900D01*
X183172312Y-193721900D02*
X183100883Y-193793328D01*
X183100883Y-193793328D02*
X183029455Y-193721900D01*
X183029455Y-193721900D02*
X183100883Y-193650471D01*
X183100883Y-193650471D02*
X183100883Y-193793328D01*
X183100883Y-192864757D02*
X183172312Y-192936185D01*
X183172312Y-192936185D02*
X183100883Y-193007614D01*
X183100883Y-193007614D02*
X183029455Y-192936185D01*
X183029455Y-192936185D02*
X183100883Y-192864757D01*
X183100883Y-192864757D02*
X183100883Y-193007614D01*
X184886598Y-193364757D02*
X185600884Y-193364757D01*
X184743741Y-193793328D02*
X185243741Y-192293328D01*
X185243741Y-192293328D02*
X185743741Y-193793328D01*
X186886598Y-192793328D02*
X186886598Y-193793328D01*
X186529455Y-192221900D02*
X186172312Y-193293328D01*
X186172312Y-193293328D02*
X187100883Y-193293328D01*
D10*
D11*
X263458026Y-196593328D02*
X263458026Y-195093328D01*
X264815170Y-196593328D02*
X264815170Y-195093328D01*
X264815170Y-196521900D02*
X264672312Y-196593328D01*
X264672312Y-196593328D02*
X264386598Y-196593328D01*
X264386598Y-196593328D02*
X264243741Y-196521900D01*
X264243741Y-196521900D02*
X264172312Y-196450471D01*
X264172312Y-196450471D02*
X264100884Y-196307614D01*
X264100884Y-196307614D02*
X264100884Y-195879042D01*
X264100884Y-195879042D02*
X264172312Y-195736185D01*
X264172312Y-195736185D02*
X264243741Y-195664757D01*
X264243741Y-195664757D02*
X264386598Y-195593328D01*
X264386598Y-195593328D02*
X264672312Y-195593328D01*
X264672312Y-195593328D02*
X264815170Y-195664757D01*
X265529455Y-196450471D02*
X265600884Y-196521900D01*
X265600884Y-196521900D02*
X265529455Y-196593328D01*
X265529455Y-196593328D02*
X265458027Y-196521900D01*
X265458027Y-196521900D02*
X265529455Y-196450471D01*
X265529455Y-196450471D02*
X265529455Y-196593328D01*
X265529455Y-195664757D02*
X265600884Y-195736185D01*
X265600884Y-195736185D02*
X265529455Y-195807614D01*
X265529455Y-195807614D02*
X265458027Y-195736185D01*
X265458027Y-195736185D02*
X265529455Y-195664757D01*
X265529455Y-195664757D02*
X265529455Y-195807614D01*
X268172313Y-196593328D02*
X267315170Y-196593328D01*
X267743741Y-196593328D02*
X267743741Y-195093328D01*
X267743741Y-195093328D02*
X267600884Y-195307614D01*
X267600884Y-195307614D02*
X267458027Y-195450471D01*
X267458027Y-195450471D02*
X267315170Y-195521900D01*
X269886598Y-195021900D02*
X268600884Y-196950471D01*
X271172313Y-196593328D02*
X270315170Y-196593328D01*
X270743741Y-196593328D02*
X270743741Y-195093328D01*
X270743741Y-195093328D02*
X270600884Y-195307614D01*
X270600884Y-195307614D02*
X270458027Y-195450471D01*
X270458027Y-195450471D02*
X270315170Y-195521900D01*
D10*
D11*
X177002200Y-187507200D02*
X285002200Y-187507200D01*
D10*
D13*
X178693928Y-188211638D02*
X179836785Y-188211638D01*
X179015357Y-190211638D02*
X179265357Y-188211638D01*
X180253452Y-190211638D02*
X180420119Y-188878304D01*
X180503452Y-188211638D02*
X180396309Y-188306876D01*
X180396309Y-188306876D02*
X180479643Y-188402114D01*
X180479643Y-188402114D02*
X180586786Y-188306876D01*
X180586786Y-188306876D02*
X180503452Y-188211638D01*
X180503452Y-188211638D02*
X180479643Y-188402114D01*
X181086786Y-188878304D02*
X181848690Y-188878304D01*
X181455833Y-188211638D02*
X181241548Y-189925923D01*
X181241548Y-189925923D02*
X181312976Y-190116400D01*
X181312976Y-190116400D02*
X181491548Y-190211638D01*
X181491548Y-190211638D02*
X181682024Y-190211638D01*
X182634405Y-190211638D02*
X182455833Y-190116400D01*
X182455833Y-190116400D02*
X182384405Y-189925923D01*
X182384405Y-189925923D02*
X182598690Y-188211638D01*
X184170119Y-190116400D02*
X183967738Y-190211638D01*
X183967738Y-190211638D02*
X183586785Y-190211638D01*
X183586785Y-190211638D02*
X183408214Y-190116400D01*
X183408214Y-190116400D02*
X183336785Y-189925923D01*
X183336785Y-189925923D02*
X183432024Y-189164019D01*
X183432024Y-189164019D02*
X183551071Y-188973542D01*
X183551071Y-188973542D02*
X183753452Y-188878304D01*
X183753452Y-188878304D02*
X184134404Y-188878304D01*
X184134404Y-188878304D02*
X184312976Y-188973542D01*
X184312976Y-188973542D02*
X184384404Y-189164019D01*
X184384404Y-189164019D02*
X184360595Y-189354495D01*
X184360595Y-189354495D02*
X183384404Y-189544971D01*
X185134405Y-190021161D02*
X185217738Y-190116400D01*
X185217738Y-190116400D02*
X185110595Y-190211638D01*
X185110595Y-190211638D02*
X185027262Y-190116400D01*
X185027262Y-190116400D02*
X185134405Y-190021161D01*
X185134405Y-190021161D02*
X185110595Y-190211638D01*
X185265357Y-188973542D02*
X185348690Y-189068780D01*
X185348690Y-189068780D02*
X185241548Y-189164019D01*
X185241548Y-189164019D02*
X185158214Y-189068780D01*
X185158214Y-189068780D02*
X185265357Y-188973542D01*
X185265357Y-188973542D02*
X185241548Y-189164019D01*
D10*
D11*
X178958026Y-185607614D02*
X178458026Y-185607614D01*
X178458026Y-186393328D02*
X178458026Y-184893328D01*
X178458026Y-184893328D02*
X179172312Y-184893328D01*
X179743740Y-186393328D02*
X179743740Y-185393328D01*
X179743740Y-184893328D02*
X179672312Y-184964757D01*
X179672312Y-184964757D02*
X179743740Y-185036185D01*
X179743740Y-185036185D02*
X179815169Y-184964757D01*
X179815169Y-184964757D02*
X179743740Y-184893328D01*
X179743740Y-184893328D02*
X179743740Y-185036185D01*
X180672312Y-186393328D02*
X180529455Y-186321900D01*
X180529455Y-186321900D02*
X180458026Y-186179042D01*
X180458026Y-186179042D02*
X180458026Y-184893328D01*
X181815169Y-186321900D02*
X181672312Y-186393328D01*
X181672312Y-186393328D02*
X181386598Y-186393328D01*
X181386598Y-186393328D02*
X181243740Y-186321900D01*
X181243740Y-186321900D02*
X181172312Y-186179042D01*
X181172312Y-186179042D02*
X181172312Y-185607614D01*
X181172312Y-185607614D02*
X181243740Y-185464757D01*
X181243740Y-185464757D02*
X181386598Y-185393328D01*
X181386598Y-185393328D02*
X181672312Y-185393328D01*
X181672312Y-185393328D02*
X181815169Y-185464757D01*
X181815169Y-185464757D02*
X181886598Y-185607614D01*
X181886598Y-185607614D02*
X181886598Y-185750471D01*
X181886598Y-185750471D02*
X181172312Y-185893328D01*
X182529454Y-186250471D02*
X182600883Y-186321900D01*
X182600883Y-186321900D02*
X182529454Y-186393328D01*
X182529454Y-186393328D02*
X182458026Y-186321900D01*
X182458026Y-186321900D02*
X182529454Y-186250471D01*
X182529454Y-186250471D02*
X182529454Y-186393328D01*
X182529454Y-185464757D02*
X182600883Y-185536185D01*
X182600883Y-185536185D02*
X182529454Y-185607614D01*
X182529454Y-185607614D02*
X182458026Y-185536185D01*
X182458026Y-185536185D02*
X182529454Y-185464757D01*
X182529454Y-185464757D02*
X182529454Y-185607614D01*
X184172312Y-184893328D02*
X185029455Y-184893328D01*
X184600883Y-186393328D02*
X184600883Y-184893328D01*
X186100883Y-186321900D02*
X185958026Y-186393328D01*
X185958026Y-186393328D02*
X185672312Y-186393328D01*
X185672312Y-186393328D02*
X185529454Y-186321900D01*
X185529454Y-186321900D02*
X185458026Y-186179042D01*
X185458026Y-186179042D02*
X185458026Y-185607614D01*
X185458026Y-185607614D02*
X185529454Y-185464757D01*
X185529454Y-185464757D02*
X185672312Y-185393328D01*
X185672312Y-185393328D02*
X185958026Y-185393328D01*
X185958026Y-185393328D02*
X186100883Y-185464757D01*
X186100883Y-185464757D02*
X186172312Y-185607614D01*
X186172312Y-185607614D02*
X186172312Y-185750471D01*
X186172312Y-185750471D02*
X185458026Y-185893328D01*
X186743740Y-186321900D02*
X186886597Y-186393328D01*
X186886597Y-186393328D02*
X187172311Y-186393328D01*
X187172311Y-186393328D02*
X187315168Y-186321900D01*
X187315168Y-186321900D02*
X187386597Y-186179042D01*
X187386597Y-186179042D02*
X187386597Y-186107614D01*
X187386597Y-186107614D02*
X187315168Y-185964757D01*
X187315168Y-185964757D02*
X187172311Y-185893328D01*
X187172311Y-185893328D02*
X186958026Y-185893328D01*
X186958026Y-185893328D02*
X186815168Y-185821900D01*
X186815168Y-185821900D02*
X186743740Y-185679042D01*
X186743740Y-185679042D02*
X186743740Y-185607614D01*
X186743740Y-185607614D02*
X186815168Y-185464757D01*
X186815168Y-185464757D02*
X186958026Y-185393328D01*
X186958026Y-185393328D02*
X187172311Y-185393328D01*
X187172311Y-185393328D02*
X187315168Y-185464757D01*
X187815169Y-185393328D02*
X188386597Y-185393328D01*
X188029454Y-184893328D02*
X188029454Y-186179042D01*
X188029454Y-186179042D02*
X188100883Y-186321900D01*
X188100883Y-186321900D02*
X188243740Y-186393328D01*
X188243740Y-186393328D02*
X188386597Y-186393328D01*
X190529454Y-185607614D02*
X190029454Y-185607614D01*
X190029454Y-186393328D02*
X190029454Y-184893328D01*
X190029454Y-184893328D02*
X190743740Y-184893328D01*
X191529454Y-186393328D02*
X191386597Y-186321900D01*
X191386597Y-186321900D02*
X191315168Y-186179042D01*
X191315168Y-186179042D02*
X191315168Y-184893328D01*
X192672311Y-186321900D02*
X192529454Y-186393328D01*
X192529454Y-186393328D02*
X192243740Y-186393328D01*
X192243740Y-186393328D02*
X192100882Y-186321900D01*
X192100882Y-186321900D02*
X192029454Y-186179042D01*
X192029454Y-186179042D02*
X192029454Y-185607614D01*
X192029454Y-185607614D02*
X192100882Y-185464757D01*
X192100882Y-185464757D02*
X192243740Y-185393328D01*
X192243740Y-185393328D02*
X192529454Y-185393328D01*
X192529454Y-185393328D02*
X192672311Y-185464757D01*
X192672311Y-185464757D02*
X192743740Y-185607614D01*
X192743740Y-185607614D02*
X192743740Y-185750471D01*
X192743740Y-185750471D02*
X192029454Y-185893328D01*
X193243739Y-186393328D02*
X194029454Y-185393328D01*
X193243739Y-185393328D02*
X194029454Y-186393328D01*
X194600882Y-186250471D02*
X194672311Y-186321900D01*
X194672311Y-186321900D02*
X194600882Y-186393328D01*
X194600882Y-186393328D02*
X194529454Y-186321900D01*
X194529454Y-186321900D02*
X194600882Y-186250471D01*
X194600882Y-186250471D02*
X194600882Y-186393328D01*
X195315168Y-186393328D02*
X195315168Y-184893328D01*
X195458026Y-185821900D02*
X195886597Y-186393328D01*
X195886597Y-185393328D02*
X195315168Y-185964757D01*
X196529454Y-186393328D02*
X196529454Y-185393328D01*
X196529454Y-184893328D02*
X196458026Y-184964757D01*
X196458026Y-184964757D02*
X196529454Y-185036185D01*
X196529454Y-185036185D02*
X196600883Y-184964757D01*
X196600883Y-184964757D02*
X196529454Y-184893328D01*
X196529454Y-184893328D02*
X196529454Y-185036185D01*
X197886598Y-186321900D02*
X197743740Y-186393328D01*
X197743740Y-186393328D02*
X197458026Y-186393328D01*
X197458026Y-186393328D02*
X197315169Y-186321900D01*
X197315169Y-186321900D02*
X197243740Y-186250471D01*
X197243740Y-186250471D02*
X197172312Y-186107614D01*
X197172312Y-186107614D02*
X197172312Y-185679042D01*
X197172312Y-185679042D02*
X197243740Y-185536185D01*
X197243740Y-185536185D02*
X197315169Y-185464757D01*
X197315169Y-185464757D02*
X197458026Y-185393328D01*
X197458026Y-185393328D02*
X197743740Y-185393328D01*
X197743740Y-185393328D02*
X197886598Y-185464757D01*
X199172312Y-186393328D02*
X199172312Y-185607614D01*
X199172312Y-185607614D02*
X199100883Y-185464757D01*
X199100883Y-185464757D02*
X198958026Y-185393328D01*
X198958026Y-185393328D02*
X198672312Y-185393328D01*
X198672312Y-185393328D02*
X198529454Y-185464757D01*
X199172312Y-186321900D02*
X199029454Y-186393328D01*
X199029454Y-186393328D02*
X198672312Y-186393328D01*
X198672312Y-186393328D02*
X198529454Y-186321900D01*
X198529454Y-186321900D02*
X198458026Y-186179042D01*
X198458026Y-186179042D02*
X198458026Y-186036185D01*
X198458026Y-186036185D02*
X198529454Y-185893328D01*
X198529454Y-185893328D02*
X198672312Y-185821900D01*
X198672312Y-185821900D02*
X199029454Y-185821900D01*
X199029454Y-185821900D02*
X199172312Y-185750471D01*
X200529455Y-186393328D02*
X200529455Y-184893328D01*
X200529455Y-186321900D02*
X200386597Y-186393328D01*
X200386597Y-186393328D02*
X200100883Y-186393328D01*
X200100883Y-186393328D02*
X199958026Y-186321900D01*
X199958026Y-186321900D02*
X199886597Y-186250471D01*
X199886597Y-186250471D02*
X199815169Y-186107614D01*
X199815169Y-186107614D02*
X199815169Y-185679042D01*
X199815169Y-185679042D02*
X199886597Y-185536185D01*
X199886597Y-185536185D02*
X199958026Y-185464757D01*
X199958026Y-185464757D02*
X200100883Y-185393328D01*
X200100883Y-185393328D02*
X200386597Y-185393328D01*
X200386597Y-185393328D02*
X200529455Y-185464757D01*
X200886598Y-186536185D02*
X202029455Y-186536185D01*
X202386597Y-185393328D02*
X202386597Y-186893328D01*
X202386597Y-185464757D02*
X202529455Y-185393328D01*
X202529455Y-185393328D02*
X202815169Y-185393328D01*
X202815169Y-185393328D02*
X202958026Y-185464757D01*
X202958026Y-185464757D02*
X203029455Y-185536185D01*
X203029455Y-185536185D02*
X203100883Y-185679042D01*
X203100883Y-185679042D02*
X203100883Y-186107614D01*
X203100883Y-186107614D02*
X203029455Y-186250471D01*
X203029455Y-186250471D02*
X202958026Y-186321900D01*
X202958026Y-186321900D02*
X202815169Y-186393328D01*
X202815169Y-186393328D02*
X202529455Y-186393328D01*
X202529455Y-186393328D02*
X202386597Y-186321900D01*
X204386598Y-186321900D02*
X204243740Y-186393328D01*
X204243740Y-186393328D02*
X203958026Y-186393328D01*
X203958026Y-186393328D02*
X203815169Y-186321900D01*
X203815169Y-186321900D02*
X203743740Y-186250471D01*
X203743740Y-186250471D02*
X203672312Y-186107614D01*
X203672312Y-186107614D02*
X203672312Y-185679042D01*
X203672312Y-185679042D02*
X203743740Y-185536185D01*
X203743740Y-185536185D02*
X203815169Y-185464757D01*
X203815169Y-185464757D02*
X203958026Y-185393328D01*
X203958026Y-185393328D02*
X204243740Y-185393328D01*
X204243740Y-185393328D02*
X204386598Y-185464757D01*
X205029454Y-186393328D02*
X205029454Y-184893328D01*
X205029454Y-185464757D02*
X205172312Y-185393328D01*
X205172312Y-185393328D02*
X205458026Y-185393328D01*
X205458026Y-185393328D02*
X205600883Y-185464757D01*
X205600883Y-185464757D02*
X205672312Y-185536185D01*
X205672312Y-185536185D02*
X205743740Y-185679042D01*
X205743740Y-185679042D02*
X205743740Y-186107614D01*
X205743740Y-186107614D02*
X205672312Y-186250471D01*
X205672312Y-186250471D02*
X205600883Y-186321900D01*
X205600883Y-186321900D02*
X205458026Y-186393328D01*
X205458026Y-186393328D02*
X205172312Y-186393328D01*
X205172312Y-186393328D02*
X205029454Y-186321900D01*
D10*
D11*
X177002200Y-181507200D02*
X285002200Y-181507200D01*
D10*
D11*
X178386598Y-183621900D02*
X178600884Y-183693328D01*
X178600884Y-183693328D02*
X178958026Y-183693328D01*
X178958026Y-183693328D02*
X179100884Y-183621900D01*
X179100884Y-183621900D02*
X179172312Y-183550471D01*
X179172312Y-183550471D02*
X179243741Y-183407614D01*
X179243741Y-183407614D02*
X179243741Y-183264757D01*
X179243741Y-183264757D02*
X179172312Y-183121900D01*
X179172312Y-183121900D02*
X179100884Y-183050471D01*
X179100884Y-183050471D02*
X178958026Y-182979042D01*
X178958026Y-182979042D02*
X178672312Y-182907614D01*
X178672312Y-182907614D02*
X178529455Y-182836185D01*
X178529455Y-182836185D02*
X178458026Y-182764757D01*
X178458026Y-182764757D02*
X178386598Y-182621900D01*
X178386598Y-182621900D02*
X178386598Y-182479042D01*
X178386598Y-182479042D02*
X178458026Y-182336185D01*
X178458026Y-182336185D02*
X178529455Y-182264757D01*
X178529455Y-182264757D02*
X178672312Y-182193328D01*
X178672312Y-182193328D02*
X179029455Y-182193328D01*
X179029455Y-182193328D02*
X179243741Y-182264757D01*
X179886597Y-183693328D02*
X179886597Y-182193328D01*
X180529455Y-183693328D02*
X180529455Y-182907614D01*
X180529455Y-182907614D02*
X180458026Y-182764757D01*
X180458026Y-182764757D02*
X180315169Y-182693328D01*
X180315169Y-182693328D02*
X180100883Y-182693328D01*
X180100883Y-182693328D02*
X179958026Y-182764757D01*
X179958026Y-182764757D02*
X179886597Y-182836185D01*
X181815169Y-183621900D02*
X181672312Y-183693328D01*
X181672312Y-183693328D02*
X181386598Y-183693328D01*
X181386598Y-183693328D02*
X181243740Y-183621900D01*
X181243740Y-183621900D02*
X181172312Y-183479042D01*
X181172312Y-183479042D02*
X181172312Y-182907614D01*
X181172312Y-182907614D02*
X181243740Y-182764757D01*
X181243740Y-182764757D02*
X181386598Y-182693328D01*
X181386598Y-182693328D02*
X181672312Y-182693328D01*
X181672312Y-182693328D02*
X181815169Y-182764757D01*
X181815169Y-182764757D02*
X181886598Y-182907614D01*
X181886598Y-182907614D02*
X181886598Y-183050471D01*
X181886598Y-183050471D02*
X181172312Y-183193328D01*
X183100883Y-183621900D02*
X182958026Y-183693328D01*
X182958026Y-183693328D02*
X182672312Y-183693328D01*
X182672312Y-183693328D02*
X182529454Y-183621900D01*
X182529454Y-183621900D02*
X182458026Y-183479042D01*
X182458026Y-183479042D02*
X182458026Y-182907614D01*
X182458026Y-182907614D02*
X182529454Y-182764757D01*
X182529454Y-182764757D02*
X182672312Y-182693328D01*
X182672312Y-182693328D02*
X182958026Y-182693328D01*
X182958026Y-182693328D02*
X183100883Y-182764757D01*
X183100883Y-182764757D02*
X183172312Y-182907614D01*
X183172312Y-182907614D02*
X183172312Y-183050471D01*
X183172312Y-183050471D02*
X182458026Y-183193328D01*
X183600883Y-182693328D02*
X184172311Y-182693328D01*
X183815168Y-182193328D02*
X183815168Y-183479042D01*
X183815168Y-183479042D02*
X183886597Y-183621900D01*
X183886597Y-183621900D02*
X184029454Y-183693328D01*
X184029454Y-183693328D02*
X184172311Y-183693328D01*
X184672311Y-183550471D02*
X184743740Y-183621900D01*
X184743740Y-183621900D02*
X184672311Y-183693328D01*
X184672311Y-183693328D02*
X184600883Y-183621900D01*
X184600883Y-183621900D02*
X184672311Y-183550471D01*
X184672311Y-183550471D02*
X184672311Y-183693328D01*
X184672311Y-182764757D02*
X184743740Y-182836185D01*
X184743740Y-182836185D02*
X184672311Y-182907614D01*
X184672311Y-182907614D02*
X184600883Y-182836185D01*
X184600883Y-182836185D02*
X184672311Y-182764757D01*
X184672311Y-182764757D02*
X184672311Y-182907614D01*
D10*
D12*
D10*
D11*
D10*
D11*
D10*
D11*
D10*
D11*
D10*
D11*
X197002200Y-191507200D02*
X197002200Y-194507200D01*
D10*
D11*
X261002200Y-191507200D02*
X261002200Y-198007200D01*
D14*
%TO.P,B1,1,+*%
%TO.N,GND*%
X75692000Y-102362000D03*
%TO.P,B1,2,-*%
X75692000Y-57362000D03*
D15*
%TO.P,B1,3,T+*%
%TO.N,Net-(B1-T+)*%
X70692000Y-78462000D03*
%TO.P,B1,4,T-*%
%TO.N,Net-(B1-T-)*%
X70692000Y-81262000D03*
%TD*%
D16*
%TO.P,U1,1,SCL*%
%TO.N,N/C*%
X133281500Y-77735000D03*
%TO.P,U1,2,~{RESET}*%
X133281500Y-78385000D03*
%TO.P,U1,3,SDA*%
X133281500Y-79035000D03*
%TO.P,U1,4,S1*%
X133281500Y-79685000D03*
%TO.P,U1,5,S2*%
X133281500Y-80335000D03*
%TO.P,U1,6,S3*%
X133281500Y-80985000D03*
%TO.P,U1,7,S4*%
X133281500Y-81635000D03*
%TO.P,U1,8,D*%
X133281500Y-82285000D03*
%TO.P,U1,9,S8*%
X139006500Y-82285000D03*
%TO.P,U1,10,S7*%
X139006500Y-81635000D03*
%TO.P,U1,11,S6*%
X139006500Y-80985000D03*
%TO.P,U1,12,S5*%
X139006500Y-80335000D03*
%TO.P,U1,13,VDD*%
X139006500Y-79685000D03*
%TO.P,U1,14,GND*%
X139006500Y-79035000D03*
%TO.P,U1,15,A1*%
X139006500Y-78385000D03*
%TO.P,U1,16,A0*%
X139006500Y-77735000D03*
%TD*%
D17*
%TO.P,D1,1,K*%
%TO.N,Net-(B3-T+)*%
X85852000Y-90169999D03*
%TO.P,D1,2,A*%
%TO.N,Net-(D1-A)*%
X85852000Y-91919999D03*
%TD*%
D18*
%TO.P,R1,1*%
%TO.N,Net-(D1-A)*%
X92964000Y-92456000D03*
%TO.P,R1,2*%
%TO.N,Net-(J1-Pin_2)*%
X94789000Y-92456000D03*
%TD*%
D19*
%TO.P,J1,1,Pin_1*%
%TO.N,GND*%
X50800000Y-92162000D03*
D20*
%TO.P,J1,2,Pin_2*%
%TO.N,Net-(J1-Pin_2)*%
X50800000Y-89662000D03*
%TD*%
D18*
%TO.P,R2,1*%
%TO.N,Net-(D2-A)*%
X110490000Y-64262000D03*
%TO.P,R2,2*%
%TO.N,Net-(J2-Pin_2)*%
X112315000Y-64262000D03*
%TD*%
D16*
%TO.P,U1,1,SCL*%
%TO.N,Net-(B1-T+)*%
X102235000Y-91335000D03*
%TO.P,U1,2,~{RESET}*%
%TO.N,unconnected-(U1-~{RESET}-Pad2)*%
X102235000Y-91985000D03*
%TO.P,U1,3,SDA*%
%TO.N,Net-(B1-T-)*%
X102235000Y-92635000D03*
%TO.P,U1,4,S1*%
%TO.N,unconnected-(U1-S1-Pad4)*%
X102235000Y-93285000D03*
%TO.P,U1,5,S2*%
%TO.N,unconnected-(U1-S2-Pad5)*%
X102235000Y-93935000D03*
%TO.P,U1,6,S3*%
%TO.N,unconnected-(U1-S3-Pad6)*%
X102235000Y-94585000D03*
%TO.P,U1,7,S4*%
%TO.N,unconnected-(U1-S4-Pad7)*%
X102235000Y-95235000D03*
%TO.P,U1,8,D*%
%TO.N,unconnected-(U1-D-Pad8)*%
X102235000Y-95885000D03*
%TO.P,U1,9,S8*%
%TO.N,Net-(B2-T-)*%
X107960000Y-95885000D03*
%TO.P,U1,10,S7*%
%TO.N,unconnected-(U1-S7-Pad10)*%
X107960000Y-95235000D03*
%TO.P,U1,11,S6*%
%TO.N,unconnected-(U1-S6-Pad11)*%
X107960000Y-94585000D03*
%TO.P,U1,12,S5*%
%TO.N,Net-(B2-T+)*%
X107960000Y-93935000D03*
%TO.P,U1,13,VDD*%
%TO.N,unconnected-(U1-VDD-Pad13)*%
X107960000Y-93285000D03*
%TO.P,U1,14,GND*%
%TO.N,unconnected-(U1-GND-Pad14)*%
X107960000Y-92635000D03*
%TO.P,U1,15,A1*%
%TO.N,unconnected-(U1-A1-Pad15)*%
X107960000Y-91985000D03*
%TO.P,U1,16,A0*%
%TO.N,unconnected-(U1-A0-Pad16)*%
X107960000Y-91335000D03*
%TD*%
D14*
%TO.P,B2,1,+*%
%TO.N,unconnected-(B2-+-Pad1)*%
X96182000Y-57362000D03*
%TO.P,B2,2,-*%
%TO.N,unconnected-(B2---Pad2)*%
X96182000Y-102362000D03*
D15*
%TO.P,B2,3,T+*%
%TO.N,Net-(B2-T+)*%
X101182000Y-81262000D03*
%TO.P,B2,4,T-*%
%TO.N,Net-(B2-T-)*%
X101182000Y-78462000D03*
%TD*%
D21*
%TO.P,D2,1,K*%
%TO.N,Net-(B3-T-)*%
X105664000Y-64262000D03*
%TO.P,D2,2,A*%
%TO.N,Net-(D2-A)*%
X107414000Y-64262000D03*
%TD*%
D19*
%TO.P,J2,1,Pin_1*%
%TO.N,GND*%
X141914000Y-64750000D03*
D20*
%TO.P,J2,2,Pin_2*%
%TO.N,Net-(J2-Pin_2)*%
X141914000Y-62250000D03*
%TD*%
D16*
%TO.P,U1,1,SCL*%
%TO.N,N/C*%
X53779500Y-77481000D03*
%TO.P,U1,2,~{RESET}*%
X53779500Y-78131000D03*
%TO.P,U1,3,SDA*%
X53779500Y-78781000D03*
%TO.P,U1,4,S1*%
X53779500Y-79431000D03*
%TO.P,U1,5,S2*%
X53779500Y-80081000D03*
%TO.P,U1,6,S3*%
X53779500Y-80731000D03*
%TO.P,U1,7,S4*%
X53779500Y-81381000D03*
%TO.P,U1,8,D*%
X53779500Y-82031000D03*
%TO.P,U1,9,S8*%
X59504500Y-82031000D03*
%TO.P,U1,10,S7*%
X59504500Y-81381000D03*
%TO.P,U1,11,S6*%
X59504500Y-80731000D03*
%TO.P,U1,12,S5*%
X59504500Y-80081000D03*
%TO.P,U1,13,VDD*%
X59504500Y-79431000D03*
%TO.P,U1,14,GND*%
X59504500Y-78781000D03*
%TO.P,U1,15,A1*%
X59504500Y-78131000D03*
%TO.P,U1,16,A0*%
X59504500Y-77481000D03*
%TD*%
D22*
%TO.P,U1,1,SCL*%
%TO.N,N/C*%
X83577000Y-71950500D03*
%TO.P,U1,2,~{RESET}*%
X84227000Y-71950500D03*
%TO.P,U1,3,SDA*%
X84877000Y-71950500D03*
%TO.P,U1,4,S1*%
X85527000Y-71950500D03*
%TO.P,U1,5,S2*%
X86177000Y-71950500D03*
%TO.P,U1,6,S3*%
X86827000Y-71950500D03*
%TO.P,U1,7,S4*%
X87477000Y-71950500D03*
%TO.P,U1,8,D*%
X88127000Y-71950500D03*
%TO.P,U1,9,S8*%
X88127000Y-66225500D03*
%TO.P,U1,10,S7*%
X87477000Y-66225500D03*
%TO.P,U1,11,S6*%
X86827000Y-66225500D03*
%TO.P,U1,12,S5*%
X86177000Y-66225500D03*
%TO.P,U1,13,VDD*%
X85527000Y-66225500D03*
%TO.P,U1,14,GND*%
X84877000Y-66225500D03*
%TO.P,U1,15,A1*%
X84227000Y-66225500D03*
%TO.P,U1,16,A0*%
X83577000Y-66225500D03*
%TD*%
D14*
%TO.P,B3,1,+*%
%TO.N,GND*%
X116840000Y-102362000D03*
%TO.P,B3,2,-*%
%TO.N,unconnected-(B3---Pad2)*%
X116840000Y-57362000D03*
D15*
%TO.P,B3,3,T+*%
%TO.N,Net-(B3-T+)*%
X111840000Y-78462000D03*
%TO.P,B3,4,T-*%
%TO.N,Net-(B3-T-)*%
X111840000Y-81262000D03*
%TD*%
D23*
%TO.N,Net-(B3-T-)*%
X105410000Y-68580000D03*
%TO.N,GND*%
X69850000Y-97790000D03*
X100330000Y-109220000D03*
X80010000Y-85090000D03*
X66040000Y-93650500D03*
%TO.N,Net-(B1-T+)*%
X104282464Y-86502464D03*
%TO.N,Net-(B1-T-)*%
X83820000Y-87630000D03*
X101600000Y-90170000D03*
%TO.N,Net-(B2-T-)*%
X106680000Y-86360000D03*
%TO.N,Net-(B2-T+)*%
X105410000Y-90170000D03*
%TD*%
D24*
%TO.N,Net-(B3-T+)*%
X110768000Y-78462000D02*
X111840000Y-78462000D01*
X99060001Y-90169999D02*
X110768000Y-78462000D01*
X85852000Y-90169999D02*
X99060001Y-90169999D01*
%TO.N,Net-(D1-A)*%
X92964000Y-92456000D02*
X86388001Y-92456000D01*
X86388001Y-92456000D02*
X85852000Y-91919999D01*
D25*
%TO.N,Net-(B3-T-)*%
X105410000Y-64516000D02*
X105664000Y-64262000D01*
X105410000Y-68580000D02*
X105410000Y-64516000D01*
%TO.N,Net-(D2-A)*%
X107414000Y-64262000D02*
X110490000Y-64262000D01*
D26*
%TO.N,GND*%
X75692000Y-102362000D02*
X66802000Y-102362000D01*
X68580000Y-70360000D02*
X69250644Y-70360000D01*
X58208000Y-57362000D02*
X53340000Y-62230000D01*
X68580000Y-69160000D02*
X69250644Y-69160000D01*
X67909367Y-70360000D02*
X68580000Y-70360000D01*
D27*
X53340000Y-109220000D02*
X52070000Y-107950000D01*
X100330000Y-109220000D02*
X53340000Y-109220000D01*
D26*
X69250644Y-66160000D02*
X68580000Y-66160000D01*
X138430000Y-66040000D02*
X139720000Y-64750000D01*
X68580000Y-59860000D02*
X68580000Y-55880000D01*
X69250644Y-62560000D02*
X68580000Y-62560000D01*
X120650000Y-72390000D02*
X127000000Y-66040000D01*
X68580000Y-68560000D02*
X67909356Y-68560000D01*
X68580000Y-64360000D02*
X69250644Y-64360000D01*
X67909367Y-71560000D02*
X68580000Y-71560000D01*
D25*
X90170000Y-74930000D02*
X131734000Y-74930000D01*
D26*
X66369500Y-93650500D02*
X69850000Y-90170000D01*
X68280000Y-72760000D02*
X69250633Y-72760000D01*
X68580000Y-61360000D02*
X67909356Y-61360000D01*
X68580000Y-63760000D02*
X67909356Y-63760000D01*
X67909356Y-67960000D02*
X68580000Y-67960000D01*
X67909356Y-64360000D02*
X68580000Y-64360000D01*
X68580000Y-88900000D02*
X68580000Y-73660000D01*
X68580000Y-65560000D02*
X69250644Y-65560000D01*
X127000000Y-66040000D02*
X138430000Y-66040000D01*
X68580000Y-67960000D02*
X69250644Y-67960000D01*
D27*
X50800000Y-101600000D02*
X50800000Y-92162000D01*
D26*
X68580000Y-61960000D02*
X69250644Y-61960000D01*
X68580000Y-70960000D02*
X67909367Y-70960000D01*
X69250633Y-70960000D02*
X68580000Y-70960000D01*
X67909356Y-69160000D02*
X68580000Y-69160000D01*
X75692000Y-57362000D02*
X58208000Y-57362000D01*
X69250644Y-61360000D02*
X68580000Y-61360000D01*
X68280000Y-73360000D02*
X67909367Y-73360000D01*
X67909356Y-66760000D02*
X68580000Y-66760000D01*
X68580000Y-60760000D02*
X69250650Y-60760000D01*
X68580000Y-63160000D02*
X69250644Y-63160000D01*
X69850000Y-90170000D02*
X68580000Y-88900000D01*
X68580000Y-66760000D02*
X69250644Y-66760000D01*
X67909356Y-63160000D02*
X68580000Y-63160000D01*
X68580000Y-71560000D02*
X69250633Y-71560000D01*
X69250644Y-63760000D02*
X68580000Y-63760000D01*
X68580000Y-64960000D02*
X67909356Y-64960000D01*
X67909356Y-61960000D02*
X68580000Y-61960000D01*
X66040000Y-93650500D02*
X66369500Y-93650500D01*
X67909356Y-60760000D02*
X68580000Y-60760000D01*
D25*
X131734000Y-74930000D02*
X141914000Y-64750000D01*
D26*
X69250644Y-67360000D02*
X68580000Y-67360000D01*
X139720000Y-64750000D02*
X141914000Y-64750000D01*
X68580000Y-67360000D02*
X67909356Y-67360000D01*
X66802000Y-102362000D02*
X66040000Y-101600000D01*
X69250644Y-69760000D02*
X68580000Y-69760000D01*
X96520000Y-68580000D02*
X100330000Y-72390000D01*
X59690000Y-68580000D02*
X96520000Y-68580000D01*
X53340000Y-62230000D02*
X59690000Y-68580000D01*
X69250644Y-68560000D02*
X68580000Y-68560000D01*
X69250633Y-72160000D02*
X68580000Y-72160000D01*
D27*
X52070000Y-107950000D02*
X54610000Y-105410000D01*
D26*
X66040000Y-101600000D02*
X69850000Y-97790000D01*
X67909367Y-72760000D02*
X68280000Y-72760000D01*
X100330000Y-72390000D02*
X120650000Y-72390000D01*
X69250644Y-64960000D02*
X68580000Y-64960000D01*
X69250650Y-60160000D02*
X68880000Y-60160000D01*
X68580000Y-66160000D02*
X67909356Y-66160000D01*
X67909356Y-65560000D02*
X68580000Y-65560000D01*
X68580000Y-62560000D02*
X67909356Y-62560000D01*
X68580000Y-69760000D02*
X67909356Y-69760000D01*
X68580000Y-72160000D02*
X67909367Y-72160000D01*
D27*
X54610000Y-105410000D02*
X50800000Y-101600000D01*
D25*
X80010000Y-85090000D02*
X90170000Y-74930000D01*
D26*
X67909356Y-65559956D02*
G75*
G03*
X67609356Y-65860000I44J-300044D01*
G01*
X69250650Y-60760050D02*
G75*
G03*
X69550650Y-60460000I-50J300050D01*
G01*
X69550600Y-64060000D02*
G75*
G03*
X69250644Y-63760000I-300000J0D01*
G01*
X67609400Y-69460000D02*
G75*
G03*
X67909356Y-69760000I300000J0D01*
G01*
X69550600Y-68860000D02*
G75*
G03*
X69250644Y-68560000I-300000J0D01*
G01*
X67609400Y-63460000D02*
G75*
G03*
X67909356Y-63760000I300000J0D01*
G01*
X67909367Y-71559967D02*
G75*
G03*
X67609367Y-71860000I33J-300033D01*
G01*
X67909356Y-63159956D02*
G75*
G03*
X67609356Y-63460000I44J-300044D01*
G01*
X67609400Y-73060000D02*
G75*
G03*
X67909367Y-73360000I300000J0D01*
G01*
X69250644Y-63160044D02*
G75*
G03*
X69550644Y-62860000I-44J300044D01*
G01*
X69550600Y-66460000D02*
G75*
G03*
X69250644Y-66160000I-300000J0D01*
G01*
X67609400Y-62260000D02*
G75*
G03*
X67909356Y-62560000I300000J0D01*
G01*
X69550600Y-71260000D02*
G75*
G03*
X69250633Y-70960000I-300000J0D01*
G01*
X67609400Y-68260000D02*
G75*
G03*
X67909356Y-68560000I300000J0D01*
G01*
X69550600Y-70060000D02*
G75*
G03*
X69250644Y-69760000I-300000J0D01*
G01*
X67609400Y-70660000D02*
G75*
G03*
X67909367Y-70960000I300000J0D01*
G01*
X69250644Y-65560044D02*
G75*
G03*
X69550644Y-65260000I-44J300044D01*
G01*
X67609400Y-71860000D02*
G75*
G03*
X67909367Y-72160000I300000J0D01*
G01*
X69250644Y-61960044D02*
G75*
G03*
X69550644Y-61660000I-44J300044D01*
G01*
X69250644Y-69160044D02*
G75*
G03*
X69550644Y-68860000I-44J300044D01*
G01*
X67909356Y-60759956D02*
G75*
G03*
X67609356Y-61060000I44J-300044D01*
G01*
X69550600Y-60460000D02*
G75*
G03*
X69250650Y-60160000I-300000J0D01*
G01*
X67909367Y-72759967D02*
G75*
G03*
X67609367Y-73060000I33J-300033D01*
G01*
X69550600Y-62860000D02*
G75*
G03*
X69250644Y-62560000I-300000J0D01*
G01*
X69250644Y-70360044D02*
G75*
G03*
X69550644Y-70060000I-44J300044D01*
G01*
X69250644Y-66760044D02*
G75*
G03*
X69550644Y-66460000I-44J300044D01*
G01*
X67909356Y-61959956D02*
G75*
G03*
X67609356Y-62260000I44J-300044D01*
G01*
X69250644Y-64360044D02*
G75*
G03*
X69550644Y-64060000I-44J300044D01*
G01*
X69550600Y-67660000D02*
G75*
G03*
X69250644Y-67360000I-300000J0D01*
G01*
X69550600Y-65260000D02*
G75*
G03*
X69250644Y-64960000I-300000J0D01*
G01*
X69250644Y-67960044D02*
G75*
G03*
X69550644Y-67660000I-44J300044D01*
G01*
X67909356Y-67959956D02*
G75*
G03*
X67609356Y-68260000I44J-300044D01*
G01*
X67909356Y-69159956D02*
G75*
G03*
X67609356Y-69460000I44J-300044D01*
G01*
X67609400Y-65860000D02*
G75*
G03*
X67909356Y-66160000I300000J0D01*
G01*
X69250633Y-71560033D02*
G75*
G03*
X69550633Y-71260000I-33J300033D01*
G01*
X68580000Y-59860000D02*
G75*
G03*
X68880000Y-60160000I300000J0D01*
G01*
X67909356Y-64359956D02*
G75*
G03*
X67609356Y-64660000I44J-300044D01*
G01*
X67609400Y-67060000D02*
G75*
G03*
X67909356Y-67360000I300000J0D01*
G01*
X69550600Y-61660000D02*
G75*
G03*
X69250644Y-61360000I-300000J0D01*
G01*
X67909356Y-66759956D02*
G75*
G03*
X67609356Y-67060000I44J-300044D01*
G01*
X68580000Y-73660000D02*
G75*
G03*
X68280000Y-73360000I-300000J0D01*
G01*
X67609400Y-61060000D02*
G75*
G03*
X67909356Y-61360000I300000J0D01*
G01*
X69250633Y-72760033D02*
G75*
G03*
X69550633Y-72460000I-33J300033D01*
G01*
X69550600Y-72460000D02*
G75*
G03*
X69250633Y-72160000I-300000J0D01*
G01*
X67909367Y-70359967D02*
G75*
G03*
X67609367Y-70660000I33J-300033D01*
G01*
X67609400Y-64660000D02*
G75*
G03*
X67909356Y-64960000I300000J0D01*
G01*
D27*
%TO.N,Net-(J1-Pin_2)*%
X50800000Y-89662000D02*
X53234002Y-89662000D01*
X94789000Y-93151434D02*
X94789000Y-92456000D01*
X58822002Y-95250000D02*
X92690434Y-95250000D01*
X53234002Y-89662000D02*
X58822002Y-95250000D01*
X92690434Y-95250000D02*
X94789000Y-93151434D01*
D24*
%TO.N,Net-(J2-Pin_2)*%
X112315000Y-64262000D02*
X127508000Y-64262000D01*
X129560000Y-62250000D02*
X141914000Y-62250000D01*
X127508000Y-64262000D02*
X129540000Y-62230000D01*
X129540000Y-62230000D02*
X129560000Y-62250000D01*
D25*
%TO.N,Net-(B1-T+)*%
X103632000Y-87152928D02*
X103632000Y-89938000D01*
X104282464Y-86502464D02*
X103632000Y-87152928D01*
X103632000Y-89938000D02*
X102235000Y-91335000D01*
%TO.N,Net-(B1-T-)*%
X101047500Y-90722500D02*
X101047500Y-92312818D01*
X101600000Y-90170000D02*
X101047500Y-90722500D01*
X101047500Y-92312818D02*
X101369682Y-92635000D01*
X75856447Y-87630000D02*
X83820000Y-87630000D01*
X70692000Y-81262000D02*
X70692000Y-82465553D01*
X70692000Y-82465553D02*
X75856447Y-87630000D01*
X101369682Y-92635000D02*
X102235000Y-92635000D01*
%TO.N,Net-(B2-T-)*%
X109147500Y-95562818D02*
X108825318Y-95885000D01*
X109147500Y-91007182D02*
X109147500Y-95562818D01*
X108825318Y-95885000D02*
X107960000Y-95885000D01*
X108310318Y-90170000D02*
X109147500Y-91007182D01*
X107950000Y-90170000D02*
X108310318Y-90170000D01*
X106680000Y-86360000D02*
X106680000Y-90622318D01*
X107497682Y-90622318D02*
X107950000Y-90170000D01*
X106680000Y-90622318D02*
X107497682Y-90622318D01*
%TO.N,Net-(B2-T+)*%
X107094682Y-93935000D02*
X107960000Y-93935000D01*
X105410000Y-90170000D02*
X105410000Y-92250318D01*
X105410000Y-92250318D02*
X107094682Y-93935000D01*
D26*
%TO.N,unconnected-(B3---Pad2)*%
X102870000Y-64770000D02*
X102870000Y-69850000D01*
X106680000Y-67310000D02*
X106564000Y-67194000D01*
X111302500Y-65227500D02*
X111302500Y-62899500D01*
X111302500Y-62899500D02*
X116840000Y-57362000D01*
X102870000Y-69850000D02*
X106680000Y-69850000D01*
X106564000Y-61076000D02*
X102870000Y-64770000D01*
X106680000Y-69850000D02*
X111302500Y-65227500D01*
X106564000Y-67194000D02*
X106564000Y-61076000D01*
%TD*%
%TA.AperFunction,Conductor*%
%TO.N,Net-(B1-T-)*%
G36*
X71678239Y-81261990D02*
G01*
X71686510Y-81265423D01*
X71689931Y-81273698D01*
X71689778Y-81275579D01*
X71432557Y-82848230D01*
X71429283Y-82854614D01*
X71087191Y-83196706D01*
X71078918Y-83200133D01*
X71070645Y-83196706D01*
X71070168Y-83196199D01*
X69992174Y-81977340D01*
X69989261Y-81968874D01*
X69992656Y-81961327D01*
X70687862Y-81264730D01*
X70696128Y-81261296D01*
X71678239Y-81261990D01*
G37*
%TD.AperFunction*%
%TD*%
%TA.AperFunction,Conductor*%
%TO.N,Net-(B1-T+)*%
G36*
X104007943Y-86228176D02*
G01*
X104009588Y-86229538D01*
X104283171Y-86501757D01*
X104555388Y-86775339D01*
X104558794Y-86783620D01*
X104555346Y-86791885D01*
X104553701Y-86793247D01*
X103901568Y-87239442D01*
X103892805Y-87241286D01*
X103886688Y-87238059D01*
X103546868Y-86898239D01*
X103543441Y-86889966D01*
X103545485Y-86883359D01*
X103991682Y-86231223D01*
X103999180Y-86226332D01*
X104007943Y-86228176D01*
G37*
%TD.AperFunction*%
%TD*%
%TA.AperFunction,Conductor*%
%TO.N,GND*%
G36*
X141908585Y-64748061D02*
G01*
X141916019Y-64753052D01*
X141917090Y-64755063D01*
X142261832Y-65589713D01*
X142261823Y-65598668D01*
X142256020Y-65604757D01*
X140663775Y-66357703D01*
X140654831Y-66358142D01*
X140650500Y-66355399D01*
X140308324Y-66013223D01*
X140304897Y-66004950D01*
X140305803Y-66000437D01*
X140910298Y-64556758D01*
X140916653Y-64550452D01*
X140923397Y-64549809D01*
X141908585Y-64748061D01*
G37*
%TD.AperFunction*%
%TD*%
%TA.AperFunction,Conductor*%
%TO.N,GND*%
G36*
X70808577Y-56363086D02*
G01*
X73065151Y-56824578D01*
X75636948Y-57350537D01*
X75644367Y-57355552D01*
X75646067Y-57364344D01*
X75641052Y-57371763D01*
X75636948Y-57373463D01*
X70808582Y-58360912D01*
X70799790Y-58359212D01*
X70799000Y-58358641D01*
X69696462Y-57490513D01*
X69692082Y-57482703D01*
X69692000Y-57481321D01*
X69692000Y-57242678D01*
X69695427Y-57234405D01*
X69696455Y-57233491D01*
X70799001Y-56365357D01*
X70807620Y-56362932D01*
X70808577Y-56363086D01*
G37*
%TD.AperFunction*%
%TD*%
%TA.AperFunction,Conductor*%
%TO.N,GND*%
G36*
X80405775Y-84354404D02*
G01*
X80745595Y-84694224D01*
X80749022Y-84702497D01*
X80746978Y-84709104D01*
X80300783Y-85361237D01*
X80293283Y-85366130D01*
X80284520Y-85364286D01*
X80282875Y-85362924D01*
X80009293Y-85090707D01*
X79737075Y-84817124D01*
X79733669Y-84808843D01*
X79737117Y-84800578D01*
X79738756Y-84799220D01*
X80390895Y-84353020D01*
X80399658Y-84351177D01*
X80405775Y-84354404D01*
G37*
%TD.AperFunction*%
%TD*%
%TA.AperFunction,Conductor*%
%TO.N,Net-(J2-Pin_2)*%
G36*
X141439421Y-61468055D02*
G01*
X141443006Y-61471770D01*
X141911320Y-62243933D01*
X141912680Y-62252784D01*
X141911320Y-62256067D01*
X141443006Y-63028229D01*
X141435786Y-63033526D01*
X141430625Y-63033618D01*
X140073323Y-62751934D01*
X140065918Y-62746897D01*
X140064000Y-62740478D01*
X140064000Y-61759521D01*
X140067427Y-61751248D01*
X140073322Y-61748065D01*
X141430626Y-61466381D01*
X141439421Y-61468055D01*
G37*
%TD.AperFunction*%
%TD*%
%TA.AperFunction,Conductor*%
%TO.N,Net-(D2-A)*%
G36*
X107799970Y-63807603D02*
G01*
X108405995Y-64009335D01*
X108412763Y-64015199D01*
X108414000Y-64020436D01*
X108414000Y-64503563D01*
X108410573Y-64511836D01*
X108405995Y-64514664D01*
X107799975Y-64716395D01*
X107791043Y-64715757D01*
X107787278Y-64712768D01*
X107620578Y-64512000D01*
X107419204Y-64269472D01*
X107416557Y-64260920D01*
X107419204Y-64254527D01*
X107787279Y-63811230D01*
X107795200Y-63807055D01*
X107799970Y-63807603D01*
G37*
%TD.AperFunction*%
%TD*%
%TA.AperFunction,Conductor*%
%TO.N,GND*%
G36*
X140994124Y-63979001D02*
G01*
X141761524Y-64621503D01*
X141904285Y-64741029D01*
X141908428Y-64748968D01*
X141905745Y-64757511D01*
X141904285Y-64758971D01*
X140994126Y-65520997D01*
X140985583Y-65523680D01*
X140979867Y-65521584D01*
X140068952Y-64878496D01*
X140064170Y-64870925D01*
X140064000Y-64868938D01*
X140064000Y-64631061D01*
X140067427Y-64622788D01*
X140068944Y-64621509D01*
X140979869Y-63978414D01*
X140988602Y-63976443D01*
X140994124Y-63979001D01*
G37*
%TD.AperFunction*%
%TD*%
%TA.AperFunction,Conductor*%
%TO.N,Net-(B3-T+)*%
G36*
X111139994Y-77761980D02*
G01*
X111740928Y-78361714D01*
X111837268Y-78457861D01*
X111840703Y-78466130D01*
X111840703Y-78466150D01*
X111840008Y-79450390D01*
X111836575Y-79458661D01*
X111828391Y-79462082D01*
X110470253Y-79471713D01*
X110461956Y-79468345D01*
X109767887Y-78774276D01*
X109764460Y-78766003D01*
X109767887Y-78757730D01*
X109769234Y-78756574D01*
X111124807Y-77760832D01*
X111133501Y-77758697D01*
X111139994Y-77761980D01*
G37*
%TD.AperFunction*%
%TD*%
%TA.AperFunction,Conductor*%
%TO.N,Net-(B3-T-)*%
G36*
X105658563Y-67783427D02*
G01*
X105661790Y-67789544D01*
X105807408Y-68566179D01*
X105805564Y-68574942D01*
X105798064Y-68579835D01*
X105795937Y-68580035D01*
X105410000Y-68581000D01*
X105024062Y-68580035D01*
X105015797Y-68576587D01*
X105012391Y-68568306D01*
X105012591Y-68566179D01*
X105158210Y-67789544D01*
X105163103Y-67782044D01*
X105169710Y-67780000D01*
X105650290Y-67780000D01*
X105658563Y-67783427D01*
G37*
%TD.AperFunction*%
%TD*%
%TA.AperFunction,Conductor*%
%TO.N,Net-(B3-T-)*%
G36*
X105669688Y-64268091D02*
G01*
X106027125Y-64713698D01*
X106029628Y-64722296D01*
X106027317Y-64728093D01*
X105663511Y-65207374D01*
X105655780Y-65211892D01*
X105654192Y-65212000D01*
X105171360Y-65212000D01*
X105163087Y-65208573D01*
X105159665Y-65200645D01*
X105145566Y-64722296D01*
X105139229Y-64507277D01*
X105142411Y-64498907D01*
X105146083Y-64496282D01*
X105655723Y-64264759D01*
X105664671Y-64264458D01*
X105669688Y-64268091D01*
G37*
%TD.AperFunction*%
%TD*%
%TA.AperFunction,Conductor*%
%TO.N,Net-(D2-A)*%
G36*
X110150038Y-63808382D02*
G01*
X110154169Y-63811836D01*
X110485755Y-64254991D01*
X110487968Y-64263668D01*
X110485755Y-64269009D01*
X110154169Y-64712163D01*
X110146469Y-64716735D01*
X110141106Y-64716255D01*
X109535505Y-64514664D01*
X109528737Y-64508800D01*
X109527500Y-64503563D01*
X109527500Y-64020436D01*
X109530927Y-64012163D01*
X109535503Y-64009335D01*
X110141106Y-63807744D01*
X110150038Y-63808382D01*
G37*
%TD.AperFunction*%
%TD*%
%TA.AperFunction,Conductor*%
%TO.N,GND*%
G36*
X69490909Y-97641232D02*
G01*
X69633763Y-97700018D01*
X69846195Y-97787436D01*
X69852542Y-97793754D01*
X69852563Y-97793804D01*
X69998767Y-98149090D01*
X69998746Y-98158044D01*
X69992760Y-98164206D01*
X69380071Y-98440747D01*
X69371121Y-98441027D01*
X69366985Y-98438356D01*
X69201643Y-98273014D01*
X69198216Y-98264741D01*
X69199252Y-98259928D01*
X69245238Y-98158044D01*
X69475794Y-97647238D01*
X69482320Y-97641108D01*
X69490909Y-97641232D01*
G37*
%TD.AperFunction*%
%TD*%
%TA.AperFunction,Conductor*%
%TO.N,Net-(B1-T-)*%
G36*
X101239767Y-90020761D02*
G01*
X101595496Y-90167146D01*
X101601843Y-90173464D01*
X101601858Y-90173499D01*
X101748715Y-90529004D01*
X101748706Y-90537959D01*
X101742636Y-90544170D01*
X101299762Y-90740147D01*
X101295027Y-90741148D01*
X100818125Y-90741148D01*
X100809852Y-90737721D01*
X100806425Y-90729448D01*
X100808083Y-90723445D01*
X100915256Y-90544170D01*
X101225276Y-90025578D01*
X101232461Y-90020236D01*
X101239767Y-90020761D01*
G37*
%TD.AperFunction*%
%TD*%
%TA.AperFunction,Conductor*%
%TO.N,GND*%
G36*
X66625998Y-93223729D02*
G01*
X66626435Y-93224144D01*
X66791732Y-93389441D01*
X66795159Y-93397714D01*
X66792202Y-93405488D01*
X66331066Y-93924094D01*
X66323008Y-93928000D01*
X66314549Y-93925063D01*
X66314071Y-93924614D01*
X66042749Y-93654646D01*
X66039301Y-93646382D01*
X66039980Y-93261590D01*
X66043421Y-93253325D01*
X66051077Y-93249929D01*
X66617562Y-93220733D01*
X66625998Y-93223729D01*
G37*
%TD.AperFunction*%
%TD*%
%TA.AperFunction,Conductor*%
%TO.N,Net-(B2-T+)*%
G36*
X105795939Y-90169964D02*
G01*
X105804202Y-90173412D01*
X105807608Y-90181693D01*
X105807408Y-90183820D01*
X105661790Y-90960456D01*
X105656897Y-90967956D01*
X105650290Y-90970000D01*
X105169710Y-90970000D01*
X105161437Y-90966573D01*
X105158210Y-90960456D01*
X105012591Y-90183820D01*
X105014435Y-90175057D01*
X105021935Y-90170164D01*
X105024052Y-90169964D01*
X105410000Y-90169000D01*
X105795939Y-90169964D01*
G37*
%TD.AperFunction*%
%TD*%
%TA.AperFunction,Conductor*%
%TO.N,Net-(B2-T-)*%
G36*
X107065939Y-86359964D02*
G01*
X107074202Y-86363412D01*
X107077608Y-86371693D01*
X107077408Y-86373820D01*
X106931790Y-87150456D01*
X106926897Y-87157956D01*
X106920290Y-87160000D01*
X106439710Y-87160000D01*
X106431437Y-87156573D01*
X106428210Y-87150456D01*
X106282591Y-86373820D01*
X106284435Y-86365057D01*
X106291935Y-86360164D01*
X106294052Y-86359964D01*
X106680000Y-86359000D01*
X107065939Y-86359964D01*
G37*
%TD.AperFunction*%
%TD*%
%TA.AperFunction,Conductor*%
%TO.N,GND*%
G36*
X70808577Y-101363086D02*
G01*
X73065151Y-101824578D01*
X75636948Y-102350537D01*
X75644367Y-102355552D01*
X75646067Y-102364344D01*
X75641052Y-102371763D01*
X75636948Y-102373463D01*
X70808582Y-103360912D01*
X70799790Y-103359212D01*
X70799000Y-103358641D01*
X69696462Y-102490513D01*
X69692082Y-102482703D01*
X69692000Y-102481321D01*
X69692000Y-102242678D01*
X69695427Y-102234405D01*
X69696455Y-102233491D01*
X70799001Y-101365357D01*
X70807620Y-101362932D01*
X70808577Y-101363086D01*
G37*
%TD.AperFunction*%
%TD*%
%TA.AperFunction,Conductor*%
%TO.N,unconnected-(B3---Pad2)*%
G36*
X116809239Y-57396080D02*
G01*
X116810936Y-57404873D01*
X116809239Y-57408970D01*
X114098386Y-61516276D01*
X114090969Y-61521293D01*
X114089943Y-61521456D01*
X112704807Y-61678937D01*
X112696199Y-61676467D01*
X112695212Y-61675585D01*
X112526414Y-61506787D01*
X112522987Y-61498514D01*
X112523062Y-61497192D01*
X112680543Y-60112054D01*
X112684882Y-60104223D01*
X112685706Y-60103624D01*
X116793030Y-57392759D01*
X116801822Y-57391063D01*
X116809239Y-57396080D01*
G37*
%TD.AperFunction*%
%TD*%
%TA.AperFunction,Conductor*%
%TO.N,Net-(B1-T-)*%
G36*
X83814942Y-87234435D02*
G01*
X83819835Y-87241935D01*
X83820035Y-87244062D01*
X83821000Y-87630000D01*
X83820035Y-88015937D01*
X83816587Y-88024202D01*
X83808306Y-88027608D01*
X83806179Y-88027408D01*
X83029544Y-87881789D01*
X83022044Y-87876896D01*
X83020000Y-87870289D01*
X83020000Y-87389710D01*
X83023427Y-87381437D01*
X83029542Y-87378210D01*
X83806180Y-87232591D01*
X83814942Y-87234435D01*
G37*
%TD.AperFunction*%
%TD*%
%TA.AperFunction,NonConductor*%
G36*
X105857834Y-62769270D02*
G01*
X105913767Y-62811142D01*
X105938184Y-62876606D01*
X105938500Y-62885452D01*
X105938500Y-63162500D01*
X105918815Y-63229539D01*
X105866011Y-63275294D01*
X105814500Y-63286500D01*
X105537451Y-63286500D01*
X105470412Y-63266815D01*
X105424657Y-63214011D01*
X105414713Y-63144853D01*
X105443738Y-63081297D01*
X105449756Y-63074833D01*
X105726819Y-62797771D01*
X105788142Y-62764286D01*
X105857834Y-62769270D01*
G37*
%TD.AperFunction*%
%TA.AperFunction,NonConductor*%
G36*
X140000474Y-63253086D02*
G01*
X140594412Y-63376348D01*
X140656051Y-63409243D01*
X140690121Y-63470243D01*
X140685804Y-63539979D01*
X140644470Y-63596311D01*
X140640728Y-63599059D01*
X139928614Y-64101799D01*
X139862495Y-64124383D01*
X139857099Y-64124500D01*
X139802737Y-64124500D01*
X139787120Y-64122776D01*
X139787093Y-64123062D01*
X139779331Y-64122327D01*
X139710203Y-64124500D01*
X139680650Y-64124500D01*
X139679929Y-64124590D01*
X139673757Y-64125369D01*
X139667945Y-64125826D01*
X139621372Y-64127290D01*
X139621369Y-64127291D01*
X139602126Y-64132881D01*
X139583083Y-64136825D01*
X139563204Y-64139336D01*
X139563203Y-64139337D01*
X139519878Y-64156490D01*
X139514352Y-64158382D01*
X139469608Y-64171383D01*
X139469604Y-64171385D01*
X139452365Y-64181580D01*
X139434898Y-64190137D01*
X139416269Y-64197512D01*
X139416267Y-64197513D01*
X139378564Y-64224906D01*
X139373682Y-64228112D01*
X139333580Y-64251828D01*
X139319408Y-64266000D01*
X139304623Y-64278628D01*
X139288412Y-64290407D01*
X139258709Y-64326310D01*
X139254776Y-64330631D01*
X138718002Y-64867407D01*
X138207228Y-65378181D01*
X138145905Y-65411666D01*
X138119547Y-65414500D01*
X127972113Y-65414500D01*
X127905074Y-65394815D01*
X127859319Y-65342011D01*
X127849375Y-65272853D01*
X127878400Y-65209297D01*
X127911928Y-65182085D01*
X127917587Y-65178943D01*
X127934627Y-65169485D01*
X127941708Y-65166122D01*
X127973617Y-65153377D01*
X128024854Y-65119608D01*
X128028851Y-65117187D01*
X128082502Y-65087409D01*
X128108568Y-65065030D01*
X128114843Y-65060300D01*
X128126536Y-65052594D01*
X128143519Y-65041402D01*
X128186892Y-64998027D01*
X128190350Y-64994823D01*
X128198880Y-64987500D01*
X128236895Y-64954866D01*
X128257928Y-64927691D01*
X128263098Y-64921821D01*
X129898101Y-63286819D01*
X129959424Y-63253334D01*
X129985782Y-63250500D01*
X139975278Y-63250500D01*
X140000474Y-63253086D01*
G37*
%TD.AperFunction*%
%TA.AperFunction,NonConductor*%
G36*
X67897539Y-58007185D02*
G01*
X67943294Y-58059989D01*
X67954500Y-58111500D01*
X67954500Y-59940973D01*
X67962957Y-59988934D01*
X67955213Y-60058373D01*
X67911156Y-60112602D01*
X67844775Y-60134404D01*
X67840862Y-60134466D01*
X67828354Y-60134467D01*
X67828297Y-60134468D01*
X67828293Y-60134468D01*
X67828288Y-60134469D01*
X67668838Y-60162605D01*
X67668825Y-60162608D01*
X67516665Y-60218009D01*
X67516662Y-60218010D01*
X67376435Y-60298989D01*
X67252402Y-60403082D01*
X67252393Y-60403091D01*
X67148312Y-60527146D01*
X67148310Y-60527150D01*
X67067351Y-60667388D01*
X67067351Y-60667389D01*
X67011974Y-60819552D01*
X67011972Y-60819558D01*
X66995900Y-60910719D01*
X66983856Y-60979033D01*
X66983856Y-60979038D01*
X66983856Y-61139346D01*
X66983900Y-61140071D01*
X66983900Y-61140963D01*
X67012015Y-61300432D01*
X67067392Y-61452594D01*
X67151055Y-61597517D01*
X67148913Y-61598753D01*
X67167884Y-61655116D01*
X67150948Y-61722417D01*
X67151019Y-61722458D01*
X67150876Y-61722704D01*
X67150834Y-61722874D01*
X67150284Y-61723731D01*
X67067351Y-61867388D01*
X67067351Y-61867389D01*
X67011974Y-62019552D01*
X67011972Y-62019558D01*
X66995900Y-62110719D01*
X66983856Y-62179033D01*
X66983856Y-62179038D01*
X66983856Y-62339346D01*
X66983900Y-62340071D01*
X66983900Y-62340963D01*
X67012015Y-62500432D01*
X67067392Y-62652594D01*
X67151055Y-62797517D01*
X67148913Y-62798753D01*
X67167884Y-62855116D01*
X67150948Y-62922417D01*
X67151019Y-62922458D01*
X67150876Y-62922704D01*
X67150834Y-62922874D01*
X67150284Y-62923731D01*
X67067351Y-63067388D01*
X67067351Y-63067389D01*
X67011974Y-63219552D01*
X67011972Y-63219558D01*
X67000170Y-63286501D01*
X66983856Y-63379033D01*
X66983856Y-63379038D01*
X66983856Y-63539346D01*
X66983900Y-63540071D01*
X66983900Y-63540963D01*
X67012015Y-63700432D01*
X67067392Y-63852594D01*
X67151055Y-63997517D01*
X67148913Y-63998753D01*
X67167884Y-64055116D01*
X67150948Y-64122417D01*
X67151019Y-64122458D01*
X67150876Y-64122704D01*
X67150834Y-64122874D01*
X67150284Y-64123731D01*
X67067351Y-64267388D01*
X67067351Y-64267389D01*
X67011974Y-64419552D01*
X67011972Y-64419558D01*
X66998304Y-64497084D01*
X66983856Y-64579033D01*
X66983856Y-64579038D01*
X66983856Y-64739346D01*
X66983900Y-64740071D01*
X66983900Y-64740963D01*
X67012015Y-64900432D01*
X67067392Y-65052594D01*
X67151055Y-65197517D01*
X67148913Y-65198753D01*
X67167884Y-65255116D01*
X67150948Y-65322417D01*
X67151019Y-65322458D01*
X67150876Y-65322704D01*
X67150834Y-65322874D01*
X67150284Y-65323731D01*
X67067351Y-65467388D01*
X67067351Y-65467389D01*
X67011974Y-65619552D01*
X67011972Y-65619558D01*
X66995900Y-65710719D01*
X66983856Y-65779033D01*
X66983856Y-65779038D01*
X66983856Y-65939346D01*
X66983900Y-65940071D01*
X66983900Y-65940963D01*
X67012015Y-66100432D01*
X67067392Y-66252594D01*
X67151055Y-66397517D01*
X67148913Y-66398753D01*
X67167884Y-66455116D01*
X67150948Y-66522417D01*
X67151019Y-66522458D01*
X67150876Y-66522704D01*
X67150834Y-66522874D01*
X67150284Y-66523731D01*
X67067351Y-66667388D01*
X67067351Y-66667389D01*
X67011974Y-66819552D01*
X67011972Y-66819558D01*
X66996236Y-66908814D01*
X66983856Y-66979033D01*
X66983856Y-66979038D01*
X66983856Y-67139346D01*
X66983900Y-67140071D01*
X66983900Y-67140963D01*
X67012015Y-67300432D01*
X67067392Y-67452594D01*
X67151055Y-67597517D01*
X67148913Y-67598753D01*
X67167884Y-67655116D01*
X67150948Y-67722417D01*
X67151019Y-67722458D01*
X67150876Y-67722704D01*
X67150834Y-67722874D01*
X67150284Y-67723731D01*
X67067354Y-67867384D01*
X67067352Y-67867388D01*
X67067352Y-67867389D01*
X67065764Y-67871754D01*
X67065345Y-67872905D01*
X67023921Y-67929171D01*
X66958654Y-67954110D01*
X66948821Y-67954500D01*
X60000453Y-67954500D01*
X59933414Y-67934815D01*
X59912772Y-67918181D01*
X54312271Y-62317680D01*
X54278786Y-62256357D01*
X54283770Y-62186665D01*
X54312271Y-62142318D01*
X56354138Y-60100452D01*
X58430771Y-58023819D01*
X58492094Y-57990334D01*
X58518452Y-57987500D01*
X67830500Y-57987500D01*
X67897539Y-58007185D01*
G37*
%TD.AperFunction*%
%TA.AperFunction,NonConductor*%
G36*
X109449624Y-65018847D02*
G01*
X109981450Y-65195880D01*
X110015264Y-65202920D01*
X110022126Y-65204766D01*
X110035800Y-65209297D01*
X110089747Y-65227174D01*
X110128187Y-65231101D01*
X110192879Y-65257497D01*
X110233031Y-65314677D01*
X110235895Y-65384488D01*
X110203267Y-65442140D01*
X106457228Y-69188181D01*
X106395905Y-69221666D01*
X106369547Y-69224500D01*
X106292480Y-69224500D01*
X106225441Y-69204815D01*
X106179686Y-69152011D01*
X106169742Y-69082853D01*
X106185093Y-69038500D01*
X106191103Y-69028089D01*
X106237179Y-68948284D01*
X106295674Y-68768256D01*
X106315460Y-68580000D01*
X106305412Y-68484400D01*
X106304479Y-68475522D01*
X106304378Y-68474141D01*
X106303825Y-68469307D01*
X106295674Y-68391744D01*
X106281153Y-68347055D01*
X106279182Y-68339328D01*
X106215819Y-68001388D01*
X106222812Y-67931870D01*
X106266280Y-67877168D01*
X106332421Y-67854650D01*
X106386935Y-67864735D01*
X106504105Y-67915438D01*
X106660196Y-67940160D01*
X106817533Y-67925287D01*
X106966229Y-67871754D01*
X107096938Y-67782924D01*
X107201450Y-67664378D01*
X107273198Y-67523565D01*
X107307673Y-67369333D01*
X107302710Y-67211373D01*
X107282254Y-67140963D01*
X107258620Y-67059614D01*
X107258619Y-67059613D01*
X107258618Y-67059612D01*
X107258618Y-67059610D01*
X107206767Y-66971934D01*
X107189500Y-66908814D01*
X107189500Y-65361499D01*
X107209185Y-65294460D01*
X107261989Y-65248705D01*
X107313500Y-65237499D01*
X107750670Y-65237499D01*
X107750676Y-65237499D01*
X107750684Y-65237498D01*
X107750687Y-65237498D01*
X107774165Y-65235099D01*
X107851753Y-65227174D01*
X107925025Y-65202893D01*
X107933512Y-65200733D01*
X107959632Y-65196020D01*
X108491877Y-65018847D01*
X108531041Y-65012500D01*
X109410460Y-65012500D01*
X109449624Y-65018847D01*
G37*
%TD.AperFunction*%
%TA.AperFunction,NonConductor*%
G36*
X104557834Y-64069270D02*
G01*
X104613767Y-64111142D01*
X104638184Y-64176606D01*
X104638500Y-64185452D01*
X104638500Y-64478647D01*
X104638102Y-64485662D01*
X104633948Y-64522165D01*
X104633947Y-64522183D01*
X104649902Y-65063463D01*
X104654384Y-65215537D01*
X104656242Y-65240037D01*
X104658358Y-65267950D01*
X104658309Y-65267953D01*
X104659500Y-65281903D01*
X104659500Y-67694823D01*
X104657376Y-67717675D01*
X104540817Y-68339322D01*
X104538843Y-68347061D01*
X104524326Y-68391743D01*
X104524325Y-68391746D01*
X104516088Y-68470114D01*
X104515367Y-68475049D01*
X104513618Y-68484389D01*
X104513616Y-68484399D01*
X104510396Y-68507323D01*
X104510396Y-68507322D01*
X104509111Y-68520978D01*
X104509110Y-68520997D01*
X104509172Y-68532327D01*
X104508833Y-68539144D01*
X104504540Y-68579997D01*
X104504540Y-68580000D01*
X104524326Y-68768256D01*
X104524327Y-68768259D01*
X104582818Y-68948277D01*
X104582821Y-68948284D01*
X104634907Y-69038500D01*
X104651380Y-69106401D01*
X104628527Y-69172427D01*
X104573606Y-69215618D01*
X104527520Y-69224500D01*
X103619500Y-69224500D01*
X103552461Y-69204815D01*
X103506706Y-69152011D01*
X103495500Y-69100500D01*
X103495500Y-65080452D01*
X103515185Y-65013413D01*
X103531819Y-64992771D01*
X104426819Y-64097771D01*
X104488142Y-64064286D01*
X104557834Y-64069270D01*
G37*
%TD.AperFunction*%
%TA.AperFunction,NonConductor*%
G36*
X69410703Y-79252943D02*
G01*
X69433309Y-79278835D01*
X69503833Y-79386782D01*
X69503836Y-79386785D01*
X69672256Y-79569738D01*
X69868491Y-79722474D01*
X69924797Y-79752945D01*
X69974387Y-79802165D01*
X69989495Y-79870381D01*
X69965325Y-79935937D01*
X69924797Y-79971054D01*
X69921245Y-79972977D01*
X69868493Y-80001524D01*
X69672257Y-80154261D01*
X69503836Y-80337215D01*
X69433309Y-80445165D01*
X69380162Y-80490521D01*
X69310931Y-80499945D01*
X69247595Y-80470443D01*
X69210264Y-80411383D01*
X69205500Y-80377343D01*
X69205500Y-79346656D01*
X69225185Y-79279617D01*
X69277989Y-79233862D01*
X69347147Y-79223918D01*
X69410703Y-79252943D01*
G37*
%TD.AperFunction*%
%TA.AperFunction,NonConductor*%
G36*
X110585968Y-80161463D02*
G01*
X110641902Y-80203334D01*
X110666319Y-80268799D01*
X110651467Y-80337072D01*
X110646444Y-80345466D01*
X110515826Y-80545392D01*
X110504678Y-80570810D01*
X110459722Y-80624296D01*
X110392987Y-80644986D01*
X110391122Y-80645000D01*
X110299281Y-80645000D01*
X110232242Y-80625315D01*
X110186487Y-80572511D01*
X110176543Y-80503353D01*
X110205568Y-80439797D01*
X110211600Y-80433319D01*
X110307847Y-80337072D01*
X110454956Y-80189962D01*
X110516277Y-80156479D01*
X110585968Y-80161463D01*
G37*
%TD.AperFunction*%
%TA.AperFunction,NonConductor*%
G36*
X113546081Y-75700185D02*
G01*
X113591836Y-75752989D01*
X113601780Y-75822147D01*
X113593672Y-75851787D01*
X113589459Y-75861999D01*
X113589476Y-75886616D01*
X113589471Y-75886616D01*
X113589500Y-75886759D01*
X113589500Y-78406872D01*
X113572467Y-78464877D01*
X113586956Y-78492136D01*
X113589500Y-78517127D01*
X113589500Y-80521000D01*
X113569815Y-80588039D01*
X113517011Y-80633794D01*
X113465500Y-80645000D01*
X113288878Y-80645000D01*
X113221839Y-80625315D01*
X113176084Y-80572511D01*
X113175322Y-80570810D01*
X113164173Y-80545393D01*
X113028166Y-80337217D01*
X113006557Y-80313744D01*
X112859744Y-80154262D01*
X112663509Y-80001526D01*
X112663508Y-80001525D01*
X112663505Y-80001523D01*
X112663503Y-80001522D01*
X112610755Y-79972977D01*
X112607202Y-79971054D01*
X112557612Y-79921836D01*
X112542504Y-79853620D01*
X112566674Y-79788064D01*
X112607202Y-79752945D01*
X112663509Y-79722474D01*
X112859744Y-79569738D01*
X113028164Y-79386785D01*
X113164173Y-79178607D01*
X113264063Y-78950881D01*
X113325108Y-78709821D01*
X113326500Y-78693022D01*
X113341924Y-78506887D01*
X113359340Y-78461751D01*
X113346523Y-78441807D01*
X113341924Y-78417112D01*
X113325109Y-78214187D01*
X113325107Y-78214175D01*
X113264063Y-77973118D01*
X113164173Y-77745393D01*
X113028166Y-77537217D01*
X112966346Y-77470063D01*
X112859744Y-77354262D01*
X112663509Y-77201526D01*
X112663507Y-77201525D01*
X112663506Y-77201524D01*
X112444811Y-77083172D01*
X112444802Y-77083169D01*
X112209616Y-77002429D01*
X111964335Y-76961500D01*
X111715665Y-76961500D01*
X111470383Y-77002429D01*
X111235197Y-77083169D01*
X111235188Y-77083172D01*
X111016491Y-77201525D01*
X111016487Y-77201528D01*
X110820257Y-77354261D01*
X110820243Y-77354273D01*
X110819689Y-77354876D01*
X110801876Y-77370820D01*
X110701428Y-77444604D01*
X110649901Y-77466722D01*
X110633373Y-77469684D01*
X110631261Y-77470063D01*
X110626597Y-77470718D01*
X110565564Y-77476925D01*
X110565562Y-77476926D01*
X110532780Y-77487210D01*
X110525156Y-77489081D01*
X110517308Y-77490488D01*
X110491349Y-77495141D01*
X110434381Y-77517895D01*
X110429945Y-77519474D01*
X110371414Y-77537840D01*
X110371410Y-77537842D01*
X110341378Y-77554510D01*
X110334284Y-77557879D01*
X110302382Y-77570623D01*
X110302377Y-77570625D01*
X110251156Y-77604381D01*
X110247128Y-77606822D01*
X110193501Y-77636588D01*
X110167434Y-77658965D01*
X110161165Y-77663692D01*
X110132484Y-77682595D01*
X110132478Y-77682600D01*
X110089109Y-77725968D01*
X110085655Y-77729169D01*
X110039102Y-77769136D01*
X110018076Y-77796298D01*
X110012885Y-77802192D01*
X109454924Y-78360153D01*
X109449666Y-78364846D01*
X109447296Y-78366730D01*
X109438681Y-78374122D01*
X109438678Y-78374125D01*
X109371745Y-78443161D01*
X109370527Y-78444551D01*
X107206397Y-80608681D01*
X107145074Y-80642166D01*
X107118716Y-80645000D01*
X102630878Y-80645000D01*
X102563839Y-80625315D01*
X102518084Y-80572511D01*
X102517322Y-80570810D01*
X102506173Y-80545393D01*
X102370166Y-80337217D01*
X102348557Y-80313744D01*
X102201744Y-80154262D01*
X102005509Y-80001526D01*
X102005508Y-80001525D01*
X102005505Y-80001523D01*
X102005503Y-80001522D01*
X101952755Y-79972977D01*
X101949202Y-79971054D01*
X101899612Y-79921836D01*
X101884504Y-79853620D01*
X101908674Y-79788064D01*
X101949202Y-79752945D01*
X102005509Y-79722474D01*
X102201744Y-79569738D01*
X102370164Y-79386785D01*
X102506173Y-79178607D01*
X102606063Y-78950881D01*
X102667108Y-78709821D01*
X102668500Y-78693022D01*
X102687643Y-78462005D01*
X102687643Y-78461994D01*
X102667109Y-78214187D01*
X102667107Y-78214175D01*
X102606063Y-77973118D01*
X102506173Y-77745393D01*
X102370166Y-77537217D01*
X102308346Y-77470063D01*
X102201744Y-77354262D01*
X102005509Y-77201526D01*
X102005507Y-77201525D01*
X102005506Y-77201524D01*
X101786811Y-77083172D01*
X101786802Y-77083169D01*
X101551616Y-77002429D01*
X101306335Y-76961500D01*
X101057665Y-76961500D01*
X100812383Y-77002429D01*
X100577197Y-77083169D01*
X100577188Y-77083172D01*
X100358493Y-77201524D01*
X100162257Y-77354261D01*
X99993833Y-77537217D01*
X99857826Y-77745393D01*
X99757936Y-77973118D01*
X99696892Y-78214175D01*
X99696890Y-78214187D01*
X99680076Y-78417112D01*
X99662659Y-78462247D01*
X99675477Y-78482192D01*
X99680076Y-78506887D01*
X99696890Y-78709812D01*
X99696892Y-78709824D01*
X99757936Y-78950881D01*
X99857826Y-79178606D01*
X99993833Y-79386782D01*
X99993836Y-79386785D01*
X100162256Y-79569738D01*
X100358491Y-79722474D01*
X100414797Y-79752945D01*
X100464387Y-79802165D01*
X100479495Y-79870381D01*
X100455325Y-79935937D01*
X100414797Y-79971054D01*
X100411245Y-79972977D01*
X100358493Y-80001524D01*
X100162257Y-80154261D01*
X99993833Y-80337217D01*
X99857826Y-80545393D01*
X99846678Y-80570810D01*
X99801722Y-80624296D01*
X99734987Y-80644986D01*
X99733122Y-80645000D01*
X99556500Y-80645000D01*
X99489461Y-80625315D01*
X99443706Y-80572511D01*
X99432500Y-80521000D01*
X99432500Y-78517127D01*
X99449532Y-78459121D01*
X99435044Y-78431862D01*
X99432500Y-78406872D01*
X99432500Y-75886759D01*
X99432528Y-75886616D01*
X99432524Y-75886616D01*
X99432539Y-75862002D01*
X99432541Y-75862000D01*
X99432383Y-75861617D01*
X99432382Y-75861616D01*
X99428328Y-75851787D01*
X99420960Y-75782307D01*
X99452325Y-75719873D01*
X99512466Y-75684308D01*
X99542958Y-75680500D01*
X113479042Y-75680500D01*
X113546081Y-75700185D01*
G37*
%TD.AperFunction*%
%TA.AperFunction,NonConductor*%
G36*
X92888081Y-75700185D02*
G01*
X92933836Y-75752989D01*
X92943780Y-75822147D01*
X92935672Y-75851787D01*
X92931459Y-75861999D01*
X92931476Y-75886616D01*
X92931471Y-75886616D01*
X92931500Y-75886759D01*
X92931500Y-80521000D01*
X92911815Y-80588039D01*
X92859011Y-80633794D01*
X92807500Y-80645000D01*
X85815730Y-80645000D01*
X85748691Y-80625315D01*
X85702936Y-80572511D01*
X85692992Y-80503353D01*
X85722017Y-80439797D01*
X85728049Y-80433319D01*
X90444549Y-75716819D01*
X90505872Y-75683334D01*
X90532230Y-75680500D01*
X92821042Y-75680500D01*
X92888081Y-75700185D01*
G37*
%TD.AperFunction*%
%TA.AperFunction,NonConductor*%
G36*
X138714436Y-66629220D02*
G01*
X138773109Y-66667159D01*
X138801956Y-66730795D01*
X138791819Y-66799926D01*
X138766850Y-66835780D01*
X131459451Y-74143181D01*
X131398128Y-74176666D01*
X131371770Y-74179500D01*
X90233705Y-74179500D01*
X90215735Y-74178191D01*
X90191972Y-74174710D01*
X90146533Y-74178686D01*
X90139931Y-74179264D01*
X90134530Y-74179500D01*
X90126289Y-74179500D01*
X90104579Y-74182037D01*
X90093724Y-74183306D01*
X90078419Y-74184645D01*
X90017199Y-74190001D01*
X90010132Y-74191460D01*
X90010120Y-74191404D01*
X90002763Y-74193035D01*
X90002777Y-74193092D01*
X89995743Y-74194759D01*
X89923575Y-74221025D01*
X89850675Y-74245181D01*
X89844126Y-74248236D01*
X89844101Y-74248183D01*
X89837308Y-74251471D01*
X89837334Y-74251523D01*
X89830880Y-74254764D01*
X89766708Y-74296971D01*
X89701347Y-74337285D01*
X89695683Y-74341765D01*
X89695647Y-74341719D01*
X89689798Y-74346484D01*
X89689835Y-74346528D01*
X89684310Y-74351164D01*
X89631597Y-74407035D01*
X83429951Y-80608681D01*
X83368628Y-80642166D01*
X83342270Y-80645000D01*
X79066500Y-80645000D01*
X78999461Y-80625315D01*
X78953706Y-80572511D01*
X78942500Y-80521000D01*
X78942500Y-75886759D01*
X78942528Y-75886616D01*
X78942524Y-75886616D01*
X78942539Y-75862002D01*
X78942541Y-75862000D01*
X78942462Y-75861808D01*
X78942384Y-75861618D01*
X78942382Y-75861616D01*
X78942099Y-75861500D01*
X78942000Y-75861459D01*
X78917446Y-75861459D01*
X78917240Y-75861500D01*
X72466760Y-75861500D01*
X72466554Y-75861459D01*
X72442000Y-75861459D01*
X72441901Y-75861500D01*
X72441617Y-75861616D01*
X72441615Y-75861618D01*
X72441459Y-75861999D01*
X72441476Y-75886616D01*
X72441471Y-75886616D01*
X72441500Y-75886759D01*
X72441500Y-78406872D01*
X72424467Y-78464877D01*
X72438956Y-78492136D01*
X72441500Y-78517127D01*
X72441500Y-80521000D01*
X72421815Y-80588039D01*
X72369011Y-80633794D01*
X72317500Y-80645000D01*
X72140878Y-80645000D01*
X72073839Y-80625315D01*
X72028084Y-80572511D01*
X72027322Y-80570810D01*
X72016173Y-80545393D01*
X71880166Y-80337217D01*
X71858557Y-80313744D01*
X71711744Y-80154262D01*
X71515509Y-80001526D01*
X71515508Y-80001525D01*
X71515505Y-80001523D01*
X71515503Y-80001522D01*
X71462755Y-79972977D01*
X71459202Y-79971054D01*
X71409612Y-79921836D01*
X71394504Y-79853620D01*
X71418674Y-79788064D01*
X71459202Y-79752945D01*
X71515509Y-79722474D01*
X71711744Y-79569738D01*
X71880164Y-79386785D01*
X72016173Y-79178607D01*
X72116063Y-78950881D01*
X72177108Y-78709821D01*
X72178500Y-78693022D01*
X72193924Y-78506887D01*
X72211340Y-78461751D01*
X72198523Y-78441807D01*
X72193924Y-78417112D01*
X72177109Y-78214187D01*
X72177107Y-78214175D01*
X72116063Y-77973118D01*
X72016173Y-77745393D01*
X71880166Y-77537217D01*
X71818346Y-77470063D01*
X71711744Y-77354262D01*
X71515509Y-77201526D01*
X71515507Y-77201525D01*
X71515506Y-77201524D01*
X71296811Y-77083172D01*
X71296802Y-77083169D01*
X71061616Y-77002429D01*
X70816335Y-76961500D01*
X70567665Y-76961500D01*
X70322383Y-77002429D01*
X70087197Y-77083169D01*
X70087188Y-77083172D01*
X69868493Y-77201524D01*
X69672257Y-77354261D01*
X69503836Y-77537215D01*
X69433309Y-77645165D01*
X69380162Y-77690521D01*
X69310931Y-77699945D01*
X69247595Y-77670443D01*
X69210264Y-77611383D01*
X69205500Y-77577343D01*
X69205500Y-73579031D01*
X69205500Y-73579029D01*
X69197041Y-73531056D01*
X69204785Y-73461619D01*
X69248841Y-73407389D01*
X69315222Y-73385587D01*
X69319118Y-73385525D01*
X69331670Y-73385524D01*
X69331676Y-73385523D01*
X69331677Y-73385523D01*
X69491140Y-73357390D01*
X69491143Y-73357389D01*
X69643308Y-73301990D01*
X69783543Y-73221012D01*
X69907586Y-73116914D01*
X70011671Y-72992859D01*
X70092634Y-72852615D01*
X70093734Y-72849594D01*
X70116860Y-72786048D01*
X70148015Y-72700444D01*
X70160900Y-72627363D01*
X82876500Y-72627363D01*
X82891953Y-72744753D01*
X82891956Y-72744762D01*
X82951357Y-72888170D01*
X82952464Y-72890841D01*
X83048718Y-73016282D01*
X83174159Y-73112536D01*
X83320238Y-73173044D01*
X83437639Y-73188500D01*
X83716360Y-73188499D01*
X83716361Y-73188499D01*
X83728594Y-73186888D01*
X83833762Y-73173044D01*
X83854545Y-73164434D01*
X83924014Y-73156965D01*
X83949453Y-73164434D01*
X83970238Y-73173044D01*
X84087639Y-73188500D01*
X84366360Y-73188499D01*
X84366361Y-73188499D01*
X84378594Y-73186888D01*
X84483762Y-73173044D01*
X84504545Y-73164434D01*
X84574014Y-73156965D01*
X84599453Y-73164434D01*
X84620238Y-73173044D01*
X84737639Y-73188500D01*
X85016360Y-73188499D01*
X85016361Y-73188499D01*
X85028594Y-73186888D01*
X85133762Y-73173044D01*
X85154545Y-73164434D01*
X85224014Y-73156965D01*
X85249453Y-73164434D01*
X85270238Y-73173044D01*
X85387639Y-73188500D01*
X85666360Y-73188499D01*
X85666361Y-73188499D01*
X85678594Y-73186888D01*
X85783762Y-73173044D01*
X85804545Y-73164434D01*
X85874014Y-73156965D01*
X85899453Y-73164434D01*
X85920238Y-73173044D01*
X86037639Y-73188500D01*
X86316360Y-73188499D01*
X86316361Y-73188499D01*
X86328594Y-73186888D01*
X86433762Y-73173044D01*
X86454545Y-73164434D01*
X86524014Y-73156965D01*
X86549453Y-73164434D01*
X86570238Y-73173044D01*
X86687639Y-73188500D01*
X86966360Y-73188499D01*
X86966361Y-73188499D01*
X86978594Y-73186888D01*
X87083762Y-73173044D01*
X87104545Y-73164434D01*
X87174014Y-73156965D01*
X87199453Y-73164434D01*
X87220238Y-73173044D01*
X87337639Y-73188500D01*
X87616360Y-73188499D01*
X87616361Y-73188499D01*
X87628594Y-73186888D01*
X87733762Y-73173044D01*
X87754545Y-73164434D01*
X87824014Y-73156965D01*
X87849453Y-73164434D01*
X87870238Y-73173044D01*
X87987639Y-73188500D01*
X88266360Y-73188499D01*
X88266363Y-73188499D01*
X88383753Y-73173046D01*
X88383757Y-73173044D01*
X88383762Y-73173044D01*
X88529841Y-73112536D01*
X88655282Y-73016282D01*
X88751536Y-72890841D01*
X88812044Y-72744762D01*
X88827500Y-72627361D01*
X88827499Y-71273640D01*
X88827499Y-71273639D01*
X88827499Y-71273636D01*
X88812046Y-71156246D01*
X88812044Y-71156239D01*
X88812044Y-71156238D01*
X88751536Y-71010159D01*
X88655282Y-70884718D01*
X88529841Y-70788464D01*
X88415168Y-70740965D01*
X88383762Y-70727956D01*
X88383760Y-70727955D01*
X88266361Y-70712500D01*
X87987636Y-70712500D01*
X87870246Y-70727953D01*
X87870234Y-70727957D01*
X87849450Y-70736566D01*
X87779981Y-70744033D01*
X87754550Y-70736566D01*
X87733765Y-70727957D01*
X87733760Y-70727955D01*
X87616361Y-70712500D01*
X87337636Y-70712500D01*
X87220246Y-70727953D01*
X87220234Y-70727957D01*
X87199450Y-70736566D01*
X87129981Y-70744033D01*
X87104550Y-70736566D01*
X87083765Y-70727957D01*
X87083760Y-70727955D01*
X86966361Y-70712500D01*
X86687636Y-70712500D01*
X86570246Y-70727953D01*
X86570234Y-70727957D01*
X86549450Y-70736566D01*
X86479981Y-70744033D01*
X86454550Y-70736566D01*
X86433765Y-70727957D01*
X86433760Y-70727955D01*
X86316361Y-70712500D01*
X86037636Y-70712500D01*
X85920246Y-70727953D01*
X85920234Y-70727957D01*
X85899450Y-70736566D01*
X85829981Y-70744033D01*
X85804550Y-70736566D01*
X85783765Y-70727957D01*
X85783760Y-70727955D01*
X85666361Y-70712500D01*
X85387636Y-70712500D01*
X85270246Y-70727953D01*
X85270234Y-70727957D01*
X85249450Y-70736566D01*
X85179981Y-70744033D01*
X85154550Y-70736566D01*
X85133765Y-70727957D01*
X85133760Y-70727955D01*
X85016361Y-70712500D01*
X84737636Y-70712500D01*
X84620246Y-70727953D01*
X84620234Y-70727957D01*
X84599450Y-70736566D01*
X84529981Y-70744033D01*
X84504550Y-70736566D01*
X84483765Y-70727957D01*
X84483760Y-70727955D01*
X84366361Y-70712500D01*
X84087636Y-70712500D01*
X83970246Y-70727953D01*
X83970234Y-70727957D01*
X83949450Y-70736566D01*
X83879981Y-70744033D01*
X83854550Y-70736566D01*
X83833765Y-70727957D01*
X83833760Y-70727955D01*
X83716361Y-70712500D01*
X83437636Y-70712500D01*
X83320246Y-70727953D01*
X83320237Y-70727956D01*
X83174160Y-70788463D01*
X83048718Y-70884718D01*
X82952463Y-71010160D01*
X82891956Y-71156237D01*
X82891955Y-71156239D01*
X82876501Y-71273629D01*
X82876501Y-71273636D01*
X82876500Y-71273645D01*
X82876500Y-72627363D01*
X70160900Y-72627363D01*
X70176133Y-72540968D01*
X70176133Y-72460000D01*
X70176133Y-72384051D01*
X70176133Y-72380562D01*
X70176100Y-72380014D01*
X70176100Y-72379039D01*
X70176099Y-72379030D01*
X70147983Y-72219566D01*
X70092607Y-72067407D01*
X70092606Y-72067406D01*
X70092604Y-72067399D01*
X70019055Y-71939997D01*
X70008937Y-71922470D01*
X70011092Y-71921225D01*
X69992112Y-71864947D01*
X70009020Y-71797580D01*
X70008964Y-71797548D01*
X70009077Y-71797350D01*
X70009121Y-71797179D01*
X70009663Y-71796337D01*
X70019656Y-71779027D01*
X70092634Y-71652615D01*
X70148015Y-71500444D01*
X70176133Y-71340968D01*
X70176133Y-71260000D01*
X70176133Y-71184051D01*
X70176133Y-71180562D01*
X70176100Y-71180014D01*
X70176100Y-71179039D01*
X70176099Y-71179030D01*
X70172081Y-71156239D01*
X70147983Y-71019565D01*
X70092604Y-70867399D01*
X70011644Y-70727160D01*
X70011642Y-70727157D01*
X70008937Y-70722472D01*
X70011082Y-70721233D01*
X69992115Y-70664880D01*
X70009050Y-70597582D01*
X70008980Y-70597542D01*
X70009122Y-70597294D01*
X70009166Y-70597123D01*
X70009708Y-70596279D01*
X70011681Y-70592860D01*
X70011687Y-70592854D01*
X70092648Y-70452611D01*
X70148027Y-70300441D01*
X70176144Y-70140967D01*
X70176144Y-70060000D01*
X70176144Y-69984051D01*
X70176144Y-69980667D01*
X70176100Y-69979936D01*
X70176100Y-69979036D01*
X70160289Y-69889356D01*
X70147985Y-69819570D01*
X70092608Y-69667407D01*
X70018680Y-69539346D01*
X70008945Y-69522483D01*
X70011105Y-69521236D01*
X69992118Y-69464992D01*
X70009021Y-69397566D01*
X70008980Y-69397543D01*
X70009063Y-69397399D01*
X70009108Y-69397220D01*
X70009672Y-69396342D01*
X70011682Y-69392859D01*
X70011687Y-69392854D01*
X70084050Y-69267505D01*
X70134615Y-69219287D01*
X70191440Y-69205500D01*
X96209548Y-69205500D01*
X96276587Y-69225185D01*
X96297229Y-69241819D01*
X99829194Y-72773784D01*
X99839019Y-72786048D01*
X99839240Y-72785866D01*
X99844210Y-72791873D01*
X99844213Y-72791876D01*
X99844214Y-72791877D01*
X99894651Y-72839241D01*
X99915530Y-72860120D01*
X99921004Y-72864366D01*
X99925442Y-72868156D01*
X99959418Y-72900062D01*
X99959422Y-72900064D01*
X99976973Y-72909713D01*
X99993231Y-72920392D01*
X100009064Y-72932674D01*
X100031015Y-72942172D01*
X100051837Y-72951183D01*
X100057081Y-72953752D01*
X100097908Y-72976197D01*
X100117312Y-72981179D01*
X100135710Y-72987478D01*
X100154105Y-72995438D01*
X100200129Y-73002726D01*
X100205832Y-73003907D01*
X100250981Y-73015500D01*
X100271016Y-73015500D01*
X100290413Y-73017026D01*
X100310196Y-73020160D01*
X100356584Y-73015775D01*
X100362422Y-73015500D01*
X120567257Y-73015500D01*
X120582877Y-73017224D01*
X120582904Y-73016939D01*
X120590660Y-73017671D01*
X120590667Y-73017673D01*
X120659814Y-73015500D01*
X120689350Y-73015500D01*
X120696228Y-73014630D01*
X120702041Y-73014172D01*
X120748627Y-73012709D01*
X120767869Y-73007117D01*
X120786912Y-73003174D01*
X120806792Y-73000664D01*
X120850122Y-72983507D01*
X120855646Y-72981617D01*
X120859396Y-72980527D01*
X120900390Y-72968618D01*
X120917629Y-72958422D01*
X120935103Y-72949862D01*
X120953727Y-72942488D01*
X120953727Y-72942487D01*
X120953732Y-72942486D01*
X120991449Y-72915082D01*
X120996305Y-72911892D01*
X121036420Y-72888170D01*
X121050589Y-72873999D01*
X121065379Y-72861368D01*
X121081587Y-72849594D01*
X121111299Y-72813676D01*
X121115212Y-72809376D01*
X127222772Y-66701819D01*
X127284095Y-66668334D01*
X127310453Y-66665500D01*
X138347257Y-66665500D01*
X138362877Y-66667224D01*
X138362904Y-66666939D01*
X138370660Y-66667671D01*
X138370667Y-66667673D01*
X138439814Y-66665500D01*
X138469350Y-66665500D01*
X138476228Y-66664630D01*
X138482041Y-66664172D01*
X138528627Y-66662709D01*
X138547869Y-66657117D01*
X138566912Y-66653174D01*
X138586792Y-66650664D01*
X138630116Y-66633510D01*
X138635640Y-66631619D01*
X138640898Y-66630090D01*
X138644567Y-66629025D01*
X138714436Y-66629220D01*
G37*
%TD.AperFunction*%
%TA.AperFunction,NonConductor*%
G36*
X145430677Y-48914685D02*
G01*
X145451319Y-48931319D01*
X145759181Y-49239181D01*
X145792666Y-49300504D01*
X145795500Y-49326862D01*
X145795500Y-80521000D01*
X145775815Y-80588039D01*
X145723011Y-80633794D01*
X145671500Y-80645000D01*
X140363430Y-80645000D01*
X140296391Y-80625315D01*
X140250636Y-80572511D01*
X140240491Y-80504816D01*
X140241993Y-80493399D01*
X140244500Y-80474361D01*
X140244499Y-80195640D01*
X140229044Y-80078238D01*
X140229042Y-80078234D01*
X140220435Y-80057455D01*
X140212965Y-79987986D01*
X140220435Y-79962545D01*
X140229044Y-79941762D01*
X140244500Y-79824361D01*
X140244499Y-79545640D01*
X140229044Y-79428238D01*
X140229042Y-79428234D01*
X140220435Y-79407455D01*
X140212965Y-79337986D01*
X140220435Y-79312545D01*
X140229044Y-79291762D01*
X140244500Y-79174361D01*
X140244499Y-78895640D01*
X140229044Y-78778238D01*
X140229042Y-78778234D01*
X140220435Y-78757455D01*
X140212965Y-78687986D01*
X140220435Y-78662545D01*
X140229044Y-78641762D01*
X140244500Y-78524361D01*
X140244499Y-78245640D01*
X140229044Y-78128238D01*
X140229042Y-78128234D01*
X140220435Y-78107455D01*
X140212965Y-78037986D01*
X140220435Y-78012545D01*
X140229044Y-77991762D01*
X140244500Y-77874361D01*
X140244499Y-77595640D01*
X140244499Y-77595638D01*
X140244499Y-77595636D01*
X140229046Y-77478246D01*
X140229044Y-77478239D01*
X140229044Y-77478238D01*
X140168536Y-77332159D01*
X140072282Y-77206718D01*
X139946841Y-77110464D01*
X139880952Y-77083172D01*
X139800762Y-77049956D01*
X139800760Y-77049955D01*
X139683370Y-77034501D01*
X139683367Y-77034500D01*
X139683361Y-77034500D01*
X139683354Y-77034500D01*
X138329636Y-77034500D01*
X138212246Y-77049953D01*
X138212237Y-77049956D01*
X138066160Y-77110463D01*
X137940718Y-77206718D01*
X137844463Y-77332160D01*
X137783956Y-77478237D01*
X137783955Y-77478239D01*
X137768500Y-77595638D01*
X137768500Y-77874363D01*
X137783953Y-77991753D01*
X137783957Y-77991765D01*
X137792566Y-78012550D01*
X137800033Y-78082019D01*
X137792566Y-78107450D01*
X137783957Y-78128234D01*
X137783955Y-78128239D01*
X137768500Y-78245638D01*
X137768500Y-78524363D01*
X137783953Y-78641753D01*
X137783957Y-78641765D01*
X137792566Y-78662550D01*
X137800033Y-78732019D01*
X137792566Y-78757450D01*
X137783957Y-78778234D01*
X137783955Y-78778239D01*
X137768500Y-78895638D01*
X137768500Y-79174363D01*
X137783953Y-79291753D01*
X137783957Y-79291765D01*
X137792566Y-79312550D01*
X137800033Y-79382019D01*
X137792566Y-79407450D01*
X137783957Y-79428234D01*
X137783955Y-79428239D01*
X137768500Y-79545638D01*
X137768500Y-79824363D01*
X137783953Y-79941753D01*
X137783957Y-79941765D01*
X137792566Y-79962550D01*
X137800033Y-80032019D01*
X137792566Y-80057450D01*
X137783957Y-80078234D01*
X137783955Y-80078239D01*
X137768500Y-80195638D01*
X137768500Y-80474361D01*
X137772510Y-80504816D01*
X137761744Y-80573851D01*
X137715363Y-80626107D01*
X137649571Y-80645000D01*
X134638430Y-80645000D01*
X134571391Y-80625315D01*
X134525636Y-80572511D01*
X134515491Y-80504816D01*
X134516993Y-80493399D01*
X134519500Y-80474361D01*
X134519499Y-80195640D01*
X134504044Y-80078238D01*
X134504042Y-80078234D01*
X134495435Y-80057455D01*
X134487965Y-79987986D01*
X134495435Y-79962545D01*
X134504044Y-79941762D01*
X134519500Y-79824361D01*
X134519499Y-79545640D01*
X134504044Y-79428238D01*
X134504042Y-79428234D01*
X134495435Y-79407455D01*
X134487965Y-79337986D01*
X134495435Y-79312545D01*
X134504044Y-79291762D01*
X134519500Y-79174361D01*
X134519499Y-78895640D01*
X134504044Y-78778238D01*
X134504042Y-78778234D01*
X134495435Y-78757455D01*
X134487965Y-78687986D01*
X134495435Y-78662545D01*
X134504044Y-78641762D01*
X134519500Y-78524361D01*
X134519499Y-78245640D01*
X134504044Y-78128238D01*
X134504042Y-78128234D01*
X134495435Y-78107455D01*
X134487965Y-78037986D01*
X134495435Y-78012545D01*
X134504044Y-77991762D01*
X134519500Y-77874361D01*
X134519499Y-77595640D01*
X134519499Y-77595638D01*
X134519499Y-77595636D01*
X134504046Y-77478246D01*
X134504044Y-77478239D01*
X134504044Y-77478238D01*
X134443536Y-77332159D01*
X134347282Y-77206718D01*
X134221841Y-77110464D01*
X134155952Y-77083172D01*
X134075762Y-77049956D01*
X134075760Y-77049955D01*
X133958370Y-77034501D01*
X133958367Y-77034500D01*
X133958361Y-77034500D01*
X133958354Y-77034500D01*
X132604636Y-77034500D01*
X132487246Y-77049953D01*
X132487237Y-77049956D01*
X132341160Y-77110463D01*
X132215718Y-77206718D01*
X132119463Y-77332160D01*
X132058956Y-77478237D01*
X132058955Y-77478239D01*
X132043500Y-77595638D01*
X132043500Y-77874363D01*
X132058953Y-77991753D01*
X132058957Y-77991765D01*
X132067566Y-78012550D01*
X132075033Y-78082019D01*
X132067566Y-78107450D01*
X132058957Y-78128234D01*
X132058955Y-78128239D01*
X132043500Y-78245638D01*
X132043500Y-78524363D01*
X132058953Y-78641753D01*
X132058957Y-78641765D01*
X132067566Y-78662550D01*
X132075033Y-78732019D01*
X132067566Y-78757450D01*
X132058957Y-78778234D01*
X132058955Y-78778239D01*
X132043500Y-78895638D01*
X132043500Y-79174363D01*
X132058953Y-79291753D01*
X132058957Y-79291765D01*
X132067566Y-79312550D01*
X132075033Y-79382019D01*
X132067566Y-79407450D01*
X132058957Y-79428234D01*
X132058955Y-79428239D01*
X132043500Y-79545638D01*
X132043500Y-79824363D01*
X132058953Y-79941753D01*
X132058957Y-79941765D01*
X132067566Y-79962550D01*
X132075033Y-80032019D01*
X132067566Y-80057450D01*
X132058957Y-80078234D01*
X132058955Y-80078239D01*
X132043500Y-80195638D01*
X132043500Y-80474361D01*
X132047510Y-80504816D01*
X132036744Y-80573851D01*
X131990363Y-80626107D01*
X131924571Y-80645000D01*
X120214500Y-80645000D01*
X120147461Y-80625315D01*
X120101706Y-80572511D01*
X120090500Y-80521000D01*
X120090500Y-75886759D01*
X120090528Y-75886616D01*
X120090524Y-75886616D01*
X120090539Y-75862002D01*
X120090541Y-75862000D01*
X120090383Y-75861617D01*
X120090382Y-75861616D01*
X120086328Y-75851787D01*
X120078960Y-75782307D01*
X120110325Y-75719873D01*
X120170466Y-75684308D01*
X120200958Y-75680500D01*
X131670295Y-75680500D01*
X131688265Y-75681809D01*
X131712023Y-75685289D01*
X131764068Y-75680735D01*
X131769470Y-75680500D01*
X131777704Y-75680500D01*
X131777709Y-75680500D01*
X131789327Y-75679141D01*
X131810276Y-75676693D01*
X131823028Y-75675577D01*
X131886797Y-75669999D01*
X131886805Y-75669996D01*
X131893866Y-75668539D01*
X131893878Y-75668598D01*
X131901243Y-75666965D01*
X131901229Y-75666906D01*
X131908246Y-75665241D01*
X131908255Y-75665241D01*
X131980423Y-75638974D01*
X132053334Y-75614814D01*
X132053343Y-75614807D01*
X132059882Y-75611760D01*
X132059908Y-75611816D01*
X132066690Y-75608532D01*
X132066663Y-75608478D01*
X132073106Y-75605240D01*
X132073117Y-75605237D01*
X132137283Y-75563034D01*
X132202656Y-75522712D01*
X132202662Y-75522705D01*
X132208325Y-75518229D01*
X132208363Y-75518277D01*
X132214200Y-75513522D01*
X132214161Y-75513475D01*
X132219696Y-75508830D01*
X132272385Y-75452982D01*
X136569130Y-71156237D01*
X140923109Y-66802257D01*
X140957775Y-66777844D01*
X142364982Y-66112401D01*
X142417991Y-66100499D01*
X142714002Y-66100499D01*
X142714008Y-66100499D01*
X142714684Y-66100430D01*
X142731895Y-66098671D01*
X142816797Y-66089999D01*
X142983334Y-66034814D01*
X143132656Y-65942712D01*
X143256712Y-65818656D01*
X143348814Y-65669334D01*
X143403999Y-65502797D01*
X143414500Y-65400009D01*
X143414499Y-64099992D01*
X143403999Y-63997203D01*
X143348814Y-63830666D01*
X143256712Y-63681344D01*
X143132656Y-63557288D01*
X142991533Y-63470243D01*
X142977879Y-63461821D01*
X142931155Y-63409873D01*
X142919932Y-63340910D01*
X142947776Y-63276828D01*
X142955295Y-63268601D01*
X143009885Y-63214011D01*
X143102495Y-63121401D01*
X143238035Y-62927830D01*
X143337903Y-62713663D01*
X143399063Y-62485408D01*
X143419659Y-62250000D01*
X143399063Y-62014592D01*
X143337903Y-61786337D01*
X143238035Y-61572171D01*
X143235679Y-61568805D01*
X143102494Y-61378597D01*
X142935402Y-61211505D01*
X142741830Y-61075965D01*
X142741828Y-61075964D01*
X142634746Y-61026031D01*
X142527663Y-60976097D01*
X142527659Y-60976096D01*
X142527655Y-60976094D01*
X142299413Y-60914938D01*
X142299403Y-60914936D01*
X142122966Y-60899500D01*
X141705034Y-60899500D01*
X141528596Y-60914936D01*
X141528586Y-60914938D01*
X141295108Y-60977498D01*
X141295095Y-60977450D01*
X141284830Y-60980366D01*
X140171083Y-61211505D01*
X140031650Y-61240442D01*
X140000469Y-61246913D01*
X139975272Y-61249500D01*
X129767617Y-61249500D01*
X129733505Y-61244716D01*
X129717420Y-61240113D01*
X129710289Y-61239570D01*
X129701354Y-61238889D01*
X129682744Y-61236038D01*
X129667051Y-61232396D01*
X129667054Y-61232396D01*
X129592245Y-61230500D01*
X129589110Y-61230341D01*
X129514521Y-61224662D01*
X129514516Y-61224663D01*
X129498538Y-61226697D01*
X129479746Y-61227650D01*
X129463644Y-61227242D01*
X129463631Y-61227243D01*
X129389987Y-61240442D01*
X129386883Y-61240918D01*
X129312673Y-61250369D01*
X129312672Y-61250369D01*
X129297425Y-61255581D01*
X129279206Y-61260299D01*
X129263346Y-61263142D01*
X129263345Y-61263142D01*
X129193880Y-61290889D01*
X129190936Y-61291979D01*
X129120129Y-61316183D01*
X129120127Y-61316184D01*
X129106242Y-61324357D01*
X129089350Y-61332643D01*
X129074384Y-61338622D01*
X129011915Y-61379792D01*
X129009251Y-61381452D01*
X128944773Y-61419409D01*
X128932814Y-61430213D01*
X128917930Y-61441734D01*
X128904483Y-61450596D01*
X128851582Y-61503496D01*
X128849306Y-61505659D01*
X128793786Y-61555821D01*
X128784252Y-61568805D01*
X128771987Y-61583091D01*
X127129899Y-63225181D01*
X127068576Y-63258666D01*
X127042218Y-63261500D01*
X112264257Y-63261500D01*
X112121882Y-63275978D01*
X112053195Y-63263176D01*
X112002333Y-63215272D01*
X111985444Y-63147475D01*
X112007890Y-63081309D01*
X112021651Y-63064938D01*
X112893163Y-62193425D01*
X112954484Y-62159942D01*
X112966824Y-62157903D01*
X113907360Y-62050970D01*
X113976193Y-62062955D01*
X113981841Y-62065922D01*
X114361419Y-62277967D01*
X114787253Y-62470458D01*
X114787253Y-62470457D01*
X115227880Y-62626141D01*
X115227880Y-62626140D01*
X115680113Y-62743892D01*
X116140708Y-62822869D01*
X116315320Y-62837730D01*
X116606337Y-62862500D01*
X116606342Y-62862500D01*
X117073663Y-62862500D01*
X117364679Y-62837730D01*
X117539292Y-62822869D01*
X117999887Y-62743892D01*
X118452120Y-62626140D01*
X118452120Y-62626141D01*
X118892747Y-62470457D01*
X118892747Y-62470458D01*
X119318581Y-62277967D01*
X119726552Y-62050061D01*
X119726553Y-62050060D01*
X119779039Y-62014586D01*
X120113730Y-61788375D01*
X120278768Y-61655116D01*
X120477314Y-61494802D01*
X120814701Y-61171442D01*
X121123440Y-60820649D01*
X121401327Y-60444921D01*
X121646348Y-60046980D01*
X121856734Y-59629705D01*
X121856734Y-59629704D01*
X122030976Y-59196086D01*
X122030976Y-59196087D01*
X122167814Y-58749262D01*
X122184755Y-58670656D01*
X122266270Y-58292427D01*
X122266270Y-58292425D01*
X122325629Y-57828890D01*
X122345461Y-57362000D01*
X122325629Y-56895110D01*
X122266270Y-56431575D01*
X122266270Y-56431573D01*
X122167816Y-55974745D01*
X122167814Y-55974738D01*
X122030976Y-55527913D01*
X122030976Y-55527914D01*
X121856734Y-55094296D01*
X121856734Y-55094295D01*
X121646348Y-54677020D01*
X121401327Y-54279079D01*
X121123440Y-53903351D01*
X120814701Y-53552558D01*
X120477314Y-53229198D01*
X120255434Y-53050043D01*
X120113730Y-52935625D01*
X119726553Y-52673940D01*
X119726552Y-52673939D01*
X119318581Y-52446033D01*
X118892747Y-52253542D01*
X118892747Y-52253543D01*
X118452120Y-52097859D01*
X118452120Y-52097860D01*
X117999887Y-51980108D01*
X117539292Y-51901131D01*
X117364679Y-51886269D01*
X117073663Y-51861500D01*
X117073658Y-51861500D01*
X116606342Y-51861500D01*
X116606337Y-51861500D01*
X116315320Y-51886269D01*
X116140708Y-51901131D01*
X115680113Y-51980108D01*
X115227880Y-52097860D01*
X115227880Y-52097859D01*
X114787253Y-52253543D01*
X114787253Y-52253542D01*
X114361419Y-52446033D01*
X113953448Y-52673939D01*
X113953447Y-52673940D01*
X113566270Y-52935625D01*
X113424565Y-53050043D01*
X113202686Y-53229198D01*
X112865299Y-53552558D01*
X112556560Y-53903351D01*
X112278673Y-54279079D01*
X112033652Y-54677020D01*
X111823266Y-55094295D01*
X111823266Y-55094296D01*
X111649024Y-55527914D01*
X111649024Y-55527913D01*
X111512186Y-55974738D01*
X111512184Y-55974745D01*
X111413730Y-56431573D01*
X111413730Y-56431575D01*
X111354371Y-56895110D01*
X111334539Y-57362000D01*
X111354371Y-57828890D01*
X111413730Y-58292425D01*
X111413730Y-58292427D01*
X111495245Y-58670656D01*
X111512186Y-58749262D01*
X111649024Y-59196087D01*
X111649024Y-59196086D01*
X111823266Y-59629704D01*
X111823266Y-59629705D01*
X112033652Y-60046980D01*
X112134046Y-60210031D01*
X112152433Y-60277438D01*
X112151662Y-60289053D01*
X112044095Y-61235164D01*
X112016964Y-61299550D01*
X112008570Y-61308837D01*
X110918708Y-62398699D01*
X110906451Y-62408520D01*
X110906634Y-62408741D01*
X110900623Y-62413713D01*
X110853272Y-62464136D01*
X110832389Y-62485019D01*
X110832377Y-62485032D01*
X110828121Y-62490517D01*
X110824337Y-62494947D01*
X110792437Y-62528918D01*
X110792436Y-62528920D01*
X110782784Y-62546476D01*
X110772110Y-62562726D01*
X110759829Y-62578561D01*
X110759824Y-62578568D01*
X110741315Y-62621338D01*
X110738745Y-62626584D01*
X110716303Y-62667406D01*
X110711322Y-62686807D01*
X110705021Y-62705210D01*
X110697062Y-62723602D01*
X110697061Y-62723605D01*
X110689771Y-62769627D01*
X110688587Y-62775346D01*
X110677001Y-62820472D01*
X110677000Y-62820482D01*
X110677000Y-62840516D01*
X110675473Y-62859913D01*
X110674749Y-62864483D01*
X110672340Y-62879694D01*
X110672340Y-62879695D01*
X110676725Y-62926083D01*
X110677000Y-62931921D01*
X110677000Y-63162500D01*
X110657315Y-63229539D01*
X110604511Y-63275294D01*
X110553000Y-63286500D01*
X110190830Y-63286500D01*
X110190812Y-63286501D01*
X110089747Y-63296825D01*
X110089737Y-63296827D01*
X110016062Y-63321241D01*
X110007564Y-63323405D01*
X109981452Y-63328118D01*
X109449619Y-63505153D01*
X109410455Y-63511500D01*
X108531043Y-63511500D01*
X108491879Y-63505153D01*
X107959631Y-63327979D01*
X107959619Y-63327976D01*
X107920953Y-63319416D01*
X107914850Y-63317734D01*
X107851755Y-63296826D01*
X107851751Y-63296825D01*
X107750684Y-63286500D01*
X107750677Y-63286500D01*
X107313500Y-63286500D01*
X107246461Y-63266815D01*
X107200706Y-63214011D01*
X107189500Y-63162500D01*
X107189500Y-61134983D01*
X107191027Y-61115582D01*
X107194160Y-61095804D01*
X107189775Y-61049415D01*
X107189500Y-61043577D01*
X107189500Y-61036656D01*
X107189500Y-61036650D01*
X107185797Y-61007344D01*
X107184870Y-60997541D01*
X107179287Y-60938468D01*
X107177586Y-60930858D01*
X107177866Y-60930795D01*
X107176881Y-60926690D01*
X107176603Y-60926762D01*
X107174663Y-60919205D01*
X107149189Y-60854866D01*
X107125754Y-60789772D01*
X107122208Y-60782812D01*
X107122464Y-60782681D01*
X107120497Y-60778966D01*
X107120244Y-60779106D01*
X107116489Y-60772276D01*
X107116486Y-60772268D01*
X107075819Y-60716295D01*
X107036924Y-60659062D01*
X107036923Y-60659061D01*
X107031763Y-60653208D01*
X107031977Y-60653018D01*
X107029140Y-60649900D01*
X107028932Y-60650097D01*
X107023596Y-60644414D01*
X106970289Y-60600316D01*
X106918383Y-60554553D01*
X106911928Y-60550167D01*
X106912088Y-60549931D01*
X106908562Y-60547615D01*
X106908410Y-60547855D01*
X106901825Y-60543676D01*
X106839222Y-60514217D01*
X106777568Y-60482803D01*
X106770224Y-60480159D01*
X106770320Y-60479889D01*
X106766334Y-60478524D01*
X106766246Y-60478796D01*
X106758826Y-60476385D01*
X106690853Y-60463419D01*
X106623332Y-60448326D01*
X106615573Y-60447593D01*
X106615599Y-60447311D01*
X106611387Y-60446980D01*
X106611370Y-60447262D01*
X106603588Y-60446772D01*
X106534528Y-60451117D01*
X106465374Y-60453290D01*
X106457670Y-60454511D01*
X106457625Y-60454230D01*
X106453473Y-60454955D01*
X106453527Y-60455233D01*
X106445864Y-60456695D01*
X106380060Y-60478076D01*
X106313609Y-60497381D01*
X106306453Y-60500478D01*
X106306341Y-60500219D01*
X106302498Y-60501954D01*
X106302619Y-60502210D01*
X106295562Y-60505531D01*
X106295559Y-60505533D01*
X106237152Y-60542599D01*
X106216944Y-60554550D01*
X106177576Y-60577831D01*
X106171415Y-60582611D01*
X106171241Y-60582387D01*
X106167952Y-60585021D01*
X106168134Y-60585241D01*
X106162123Y-60590214D01*
X106114758Y-60640651D01*
X102486208Y-64269199D01*
X102473951Y-64279020D01*
X102474134Y-64279241D01*
X102468123Y-64284213D01*
X102420772Y-64334636D01*
X102399889Y-64355519D01*
X102399877Y-64355532D01*
X102395621Y-64361017D01*
X102391837Y-64365447D01*
X102359937Y-64399418D01*
X102359936Y-64399420D01*
X102350284Y-64416976D01*
X102339610Y-64433226D01*
X102327329Y-64449061D01*
X102327324Y-64449068D01*
X102308815Y-64491838D01*
X102306245Y-64497084D01*
X102283803Y-64537906D01*
X102278822Y-64557307D01*
X102272521Y-64575710D01*
X102264562Y-64594102D01*
X102264561Y-64594105D01*
X102257271Y-64640127D01*
X102256087Y-64645846D01*
X102244501Y-64690972D01*
X102244500Y-64690982D01*
X102244500Y-64711016D01*
X102242973Y-64730415D01*
X102239840Y-64750194D01*
X102239840Y-64750195D01*
X102244225Y-64796583D01*
X102244500Y-64802421D01*
X102244500Y-69779152D01*
X102242305Y-69802379D01*
X102240773Y-69810412D01*
X102244378Y-69867724D01*
X102244500Y-69871595D01*
X102244500Y-69889356D01*
X102246725Y-69906968D01*
X102247091Y-69910843D01*
X102250696Y-69968138D01*
X102253222Y-69975914D01*
X102258309Y-69998672D01*
X102259334Y-70006784D01*
X102259336Y-70006792D01*
X102280469Y-70060170D01*
X102281788Y-70063833D01*
X102299532Y-70118440D01*
X102303907Y-70125333D01*
X102314503Y-70146129D01*
X102317511Y-70153726D01*
X102317513Y-70153731D01*
X102351265Y-70200187D01*
X102353455Y-70203409D01*
X102384213Y-70251876D01*
X102390164Y-70257464D01*
X102405604Y-70274978D01*
X102410403Y-70281585D01*
X102454647Y-70318187D01*
X102457567Y-70320761D01*
X102499418Y-70360062D01*
X102506578Y-70363998D01*
X102525879Y-70377114D01*
X102532177Y-70382324D01*
X102532178Y-70382324D01*
X102532179Y-70382325D01*
X102584125Y-70406769D01*
X102587597Y-70408538D01*
X102637903Y-70436195D01*
X102637905Y-70436195D01*
X102637908Y-70436197D01*
X102643205Y-70437556D01*
X102645814Y-70438227D01*
X102667777Y-70446133D01*
X102675174Y-70449614D01*
X102731576Y-70460373D01*
X102735362Y-70461219D01*
X102790981Y-70475500D01*
X102799153Y-70475500D01*
X102822385Y-70477696D01*
X102823989Y-70478001D01*
X102830412Y-70479227D01*
X102887724Y-70475621D01*
X102891597Y-70475500D01*
X106597257Y-70475500D01*
X106612877Y-70477224D01*
X106612904Y-70476939D01*
X106620660Y-70477671D01*
X106620667Y-70477673D01*
X106689814Y-70475500D01*
X106719350Y-70475500D01*
X106726228Y-70474630D01*
X106732041Y-70474172D01*
X106778627Y-70472709D01*
X106797869Y-70467117D01*
X106816912Y-70463174D01*
X106836792Y-70460664D01*
X106880122Y-70443507D01*
X106885646Y-70441617D01*
X106889396Y-70440527D01*
X106930390Y-70428618D01*
X106947629Y-70418422D01*
X106965103Y-70409862D01*
X106983727Y-70402488D01*
X106983727Y-70402487D01*
X106983732Y-70402486D01*
X107021449Y-70375082D01*
X107026305Y-70371892D01*
X107066420Y-70348170D01*
X107080589Y-70333999D01*
X107095379Y-70321368D01*
X107111587Y-70309594D01*
X107141299Y-70273676D01*
X107145212Y-70269376D01*
X111686288Y-65728301D01*
X111698542Y-65718486D01*
X111698359Y-65718264D01*
X111704366Y-65713292D01*
X111704377Y-65713286D01*
X111735275Y-65680382D01*
X111751727Y-65662864D01*
X111762171Y-65652418D01*
X111772620Y-65641971D01*
X111776879Y-65636478D01*
X111780652Y-65632061D01*
X111812562Y-65598082D01*
X111822213Y-65580524D01*
X111832896Y-65564261D01*
X111845173Y-65548436D01*
X111863685Y-65505653D01*
X111866238Y-65500441D01*
X111888697Y-65459592D01*
X111893680Y-65440180D01*
X111899981Y-65421780D01*
X111907937Y-65403396D01*
X111915228Y-65357360D01*
X111916405Y-65351674D01*
X111921800Y-65330661D01*
X111957536Y-65270626D01*
X112020059Y-65239438D01*
X112041896Y-65237499D01*
X112078994Y-65237499D01*
X112103953Y-65240036D01*
X112213259Y-65262500D01*
X126624341Y-65262500D01*
X126691380Y-65282185D01*
X126737135Y-65334989D01*
X126747079Y-65404147D01*
X126718054Y-65467703D01*
X126697223Y-65486820D01*
X126658576Y-65514898D01*
X126653693Y-65518105D01*
X126613579Y-65541829D01*
X126599408Y-65556000D01*
X126584623Y-65568628D01*
X126568412Y-65580407D01*
X126538709Y-65616310D01*
X126534777Y-65620631D01*
X120427228Y-71728181D01*
X120365905Y-71761666D01*
X120339547Y-71764500D01*
X100640452Y-71764500D01*
X100573413Y-71744815D01*
X100552771Y-71728181D01*
X98792728Y-69968138D01*
X97020803Y-68196212D01*
X97010980Y-68183950D01*
X97010759Y-68184134D01*
X97005786Y-68178123D01*
X96955364Y-68130773D01*
X96944919Y-68120328D01*
X96934475Y-68109883D01*
X96928986Y-68105625D01*
X96924561Y-68101847D01*
X96890582Y-68069938D01*
X96890580Y-68069936D01*
X96890577Y-68069935D01*
X96873029Y-68060288D01*
X96856763Y-68049604D01*
X96840933Y-68037325D01*
X96798168Y-68018818D01*
X96792922Y-68016248D01*
X96752093Y-67993803D01*
X96752092Y-67993802D01*
X96732693Y-67988822D01*
X96714281Y-67982518D01*
X96695898Y-67974562D01*
X96695892Y-67974560D01*
X96649874Y-67967272D01*
X96644152Y-67966087D01*
X96599021Y-67954500D01*
X96599019Y-67954500D01*
X96578984Y-67954500D01*
X96559586Y-67952973D01*
X96552162Y-67951797D01*
X96539805Y-67949840D01*
X96539804Y-67949840D01*
X96493416Y-67954225D01*
X96487578Y-67954500D01*
X70286271Y-67954500D01*
X70219232Y-67934815D01*
X70173477Y-67882011D01*
X70163533Y-67812853D01*
X70164154Y-67808970D01*
X70176144Y-67740967D01*
X70176144Y-67660000D01*
X70176144Y-67584051D01*
X70176144Y-67580667D01*
X70176100Y-67579936D01*
X70176100Y-67579036D01*
X70150170Y-67431965D01*
X70147985Y-67419570D01*
X70092608Y-67267407D01*
X70018680Y-67139346D01*
X70008945Y-67122483D01*
X70011105Y-67121236D01*
X69992118Y-67064992D01*
X70009021Y-66997565D01*
X70008980Y-66997542D01*
X70009063Y-66997397D01*
X70009108Y-66997220D01*
X70009667Y-66996351D01*
X70011683Y-66992858D01*
X70011687Y-66992854D01*
X70063927Y-66902363D01*
X82876500Y-66902363D01*
X82891953Y-67019753D01*
X82891956Y-67019762D01*
X82952464Y-67165841D01*
X83048718Y-67291282D01*
X83174159Y-67387536D01*
X83320238Y-67448044D01*
X83437639Y-67463500D01*
X83716360Y-67463499D01*
X83716361Y-67463499D01*
X83728594Y-67461888D01*
X83833762Y-67448044D01*
X83854545Y-67439434D01*
X83924014Y-67431965D01*
X83949453Y-67439434D01*
X83970238Y-67448044D01*
X84087639Y-67463500D01*
X84366360Y-67463499D01*
X84366361Y-67463499D01*
X84378594Y-67461888D01*
X84483762Y-67448044D01*
X84504545Y-67439434D01*
X84574014Y-67431965D01*
X84599453Y-67439434D01*
X84620238Y-67448044D01*
X84737639Y-67463500D01*
X85016360Y-67463499D01*
X85016361Y-67463499D01*
X85028594Y-67461888D01*
X85133762Y-67448044D01*
X85154545Y-67439434D01*
X85224014Y-67431965D01*
X85249453Y-67439434D01*
X85270238Y-67448044D01*
X85387639Y-67463500D01*
X85666360Y-67463499D01*
X85666361Y-67463499D01*
X85678594Y-67461888D01*
X85783762Y-67448044D01*
X85804545Y-67439434D01*
X85874014Y-67431965D01*
X85899453Y-67439434D01*
X85920238Y-67448044D01*
X86037639Y-67463500D01*
X86316360Y-67463499D01*
X86316361Y-67463499D01*
X86328594Y-67461888D01*
X86433762Y-67448044D01*
X86454545Y-67439434D01*
X86524014Y-67431965D01*
X86549453Y-67439434D01*
X86570238Y-67448044D01*
X86687639Y-67463500D01*
X86966360Y-67463499D01*
X86966361Y-67463499D01*
X86978594Y-67461888D01*
X87083762Y-67448044D01*
X87104545Y-67439434D01*
X87174014Y-67431965D01*
X87199453Y-67439434D01*
X87220238Y-67448044D01*
X87337639Y-67463500D01*
X87616360Y-67463499D01*
X87616361Y-67463499D01*
X87628594Y-67461888D01*
X87733762Y-67448044D01*
X87754545Y-67439434D01*
X87824014Y-67431965D01*
X87849453Y-67439434D01*
X87870238Y-67448044D01*
X87987639Y-67463500D01*
X88266360Y-67463499D01*
X88266363Y-67463499D01*
X88383753Y-67448046D01*
X88383757Y-67448044D01*
X88383762Y-67448044D01*
X88529841Y-67387536D01*
X88655282Y-67291282D01*
X88751536Y-67165841D01*
X88812044Y-67019762D01*
X88827500Y-66902361D01*
X88827499Y-65548640D01*
X88827499Y-65548639D01*
X88827499Y-65548636D01*
X88812046Y-65431246D01*
X88812044Y-65431239D01*
X88812044Y-65431238D01*
X88751536Y-65285159D01*
X88655282Y-65159718D01*
X88529841Y-65063464D01*
X88522202Y-65060300D01*
X88383762Y-65002956D01*
X88383760Y-65002955D01*
X88266361Y-64987500D01*
X87987636Y-64987500D01*
X87870246Y-65002953D01*
X87870234Y-65002957D01*
X87849450Y-65011566D01*
X87779981Y-65019033D01*
X87754550Y-65011566D01*
X87733765Y-65002957D01*
X87733760Y-65002955D01*
X87616361Y-64987500D01*
X87337636Y-64987500D01*
X87220246Y-65002953D01*
X87220234Y-65002957D01*
X87199450Y-65011566D01*
X87129981Y-65019033D01*
X87104550Y-65011566D01*
X87083765Y-65002957D01*
X87083760Y-65002955D01*
X86966361Y-64987500D01*
X86687636Y-64987500D01*
X86570246Y-65002953D01*
X86570234Y-65002957D01*
X86549450Y-65011566D01*
X86479981Y-65019033D01*
X86454550Y-65011566D01*
X86433765Y-65002957D01*
X86433760Y-65002955D01*
X86316361Y-64987500D01*
X86037636Y-64987500D01*
X85920246Y-65002953D01*
X85920234Y-65002957D01*
X85899450Y-65011566D01*
X85829981Y-65019033D01*
X85804550Y-65011566D01*
X85783765Y-65002957D01*
X85783760Y-65002955D01*
X85666361Y-64987500D01*
X85387636Y-64987500D01*
X85270246Y-65002953D01*
X85270234Y-65002957D01*
X85249450Y-65011566D01*
X85179981Y-65019033D01*
X85154550Y-65011566D01*
X85133765Y-65002957D01*
X85133760Y-65002955D01*
X85016361Y-64987500D01*
X84737636Y-64987500D01*
X84620246Y-65002953D01*
X84620234Y-65002957D01*
X84599450Y-65011566D01*
X84529981Y-65019033D01*
X84504550Y-65011566D01*
X84483765Y-65002957D01*
X84483760Y-65002955D01*
X84366361Y-64987500D01*
X84087636Y-64987500D01*
X83970246Y-65002953D01*
X83970234Y-65002957D01*
X83949450Y-65011566D01*
X83879981Y-65019033D01*
X83854550Y-65011566D01*
X83833765Y-65002957D01*
X83833760Y-65002955D01*
X83716361Y-64987500D01*
X83437636Y-64987500D01*
X83320246Y-65002953D01*
X83320237Y-65002956D01*
X83174160Y-65063463D01*
X83048718Y-65159718D01*
X82952463Y-65285160D01*
X82891956Y-65431237D01*
X82891955Y-65431239D01*
X82876501Y-65548629D01*
X82876501Y-65548636D01*
X82876500Y-65548645D01*
X82876500Y-66902363D01*
X70063927Y-66902363D01*
X70092648Y-66852611D01*
X70148027Y-66700441D01*
X70176144Y-66540967D01*
X70176144Y-66460000D01*
X70176144Y-66384051D01*
X70176144Y-66380667D01*
X70176100Y-66379936D01*
X70176100Y-66379036D01*
X70147984Y-66219567D01*
X70100830Y-66089999D01*
X70092608Y-66067407D01*
X70092607Y-66067405D01*
X70008945Y-65922483D01*
X70011105Y-65921236D01*
X69992118Y-65864992D01*
X70009021Y-65797565D01*
X70008980Y-65797542D01*
X70009063Y-65797397D01*
X70009108Y-65797220D01*
X70009667Y-65796351D01*
X70011683Y-65792858D01*
X70011687Y-65792854D01*
X70092648Y-65652611D01*
X70124803Y-65564255D01*
X70148025Y-65500447D01*
X70148027Y-65500441D01*
X70150306Y-65487514D01*
X70176144Y-65340967D01*
X70176144Y-65260000D01*
X70176144Y-65184051D01*
X70176144Y-65180667D01*
X70176100Y-65179936D01*
X70176100Y-65179036D01*
X70156000Y-65065033D01*
X70147985Y-65019570D01*
X70092608Y-64867407D01*
X70055092Y-64802421D01*
X70008945Y-64722483D01*
X70011105Y-64721236D01*
X69992118Y-64664992D01*
X70009021Y-64597565D01*
X70008980Y-64597542D01*
X70009063Y-64597397D01*
X70009108Y-64597220D01*
X70009667Y-64596351D01*
X70011683Y-64592858D01*
X70011687Y-64592854D01*
X70092648Y-64452611D01*
X70112006Y-64399418D01*
X70148025Y-64300447D01*
X70148027Y-64300441D01*
X70153854Y-64267389D01*
X70176144Y-64140967D01*
X70176144Y-64060000D01*
X70176144Y-63984051D01*
X70176144Y-63980667D01*
X70176100Y-63979936D01*
X70176100Y-63979036D01*
X70153807Y-63852593D01*
X70147985Y-63819570D01*
X70092608Y-63667407D01*
X70092607Y-63667405D01*
X70008945Y-63522483D01*
X70011105Y-63521236D01*
X69992118Y-63464992D01*
X70009021Y-63397565D01*
X70008980Y-63397542D01*
X70009063Y-63397397D01*
X70009108Y-63397220D01*
X70009667Y-63396351D01*
X70011683Y-63392858D01*
X70011687Y-63392854D01*
X70092648Y-63252611D01*
X70148027Y-63100441D01*
X70176144Y-62940967D01*
X70176144Y-62860000D01*
X70176144Y-62784051D01*
X70176144Y-62780667D01*
X70176100Y-62779936D01*
X70176100Y-62779036D01*
X70159732Y-62686198D01*
X70147985Y-62619570D01*
X70146836Y-62616414D01*
X70121384Y-62546476D01*
X70092608Y-62467407D01*
X70058531Y-62408378D01*
X70008945Y-62322483D01*
X70011105Y-62321236D01*
X69992118Y-62264992D01*
X70009021Y-62197565D01*
X70008980Y-62197542D01*
X70009063Y-62197397D01*
X70009108Y-62197220D01*
X70009667Y-62196351D01*
X70011683Y-62192858D01*
X70011687Y-62192854D01*
X70092648Y-62052611D01*
X70148027Y-61900441D01*
X70176144Y-61740967D01*
X70176144Y-61660000D01*
X70176144Y-61584051D01*
X70176144Y-61580667D01*
X70176100Y-61579936D01*
X70176100Y-61579036D01*
X70153455Y-61450596D01*
X70147985Y-61419570D01*
X70092608Y-61267407D01*
X70082772Y-61250369D01*
X70008945Y-61122483D01*
X70011113Y-61121231D01*
X69992124Y-61065036D01*
X70009017Y-60997557D01*
X70008989Y-60997541D01*
X70009046Y-60997441D01*
X70009092Y-60997259D01*
X70009673Y-60996355D01*
X70011693Y-60992855D01*
X70011696Y-60992852D01*
X70092655Y-60852609D01*
X70148034Y-60700440D01*
X70176150Y-60540967D01*
X70176150Y-60460000D01*
X70176150Y-60384051D01*
X70176150Y-60380706D01*
X70176100Y-60379878D01*
X70176100Y-60379039D01*
X70176099Y-60379035D01*
X70147986Y-60219573D01*
X70092610Y-60067412D01*
X70011655Y-59927177D01*
X69907582Y-59803128D01*
X69783550Y-59699033D01*
X69783547Y-59699031D01*
X69643337Y-59618060D01*
X69643327Y-59618055D01*
X69491184Y-59562657D01*
X69491178Y-59562655D01*
X69331718Y-59534513D01*
X69331565Y-59534500D01*
X69329669Y-59534500D01*
X69329500Y-59534500D01*
X69328619Y-59534241D01*
X69324591Y-59533888D01*
X69322246Y-59533604D01*
X69322390Y-59532412D01*
X69262461Y-59514815D01*
X69216706Y-59462011D01*
X69205500Y-59410500D01*
X69205500Y-58111500D01*
X69225185Y-58044461D01*
X69277989Y-57998706D01*
X69329500Y-57987500D01*
X69467565Y-57987500D01*
X69534604Y-58007185D01*
X69544276Y-58014076D01*
X70305834Y-58613719D01*
X70346328Y-58670656D01*
X70350340Y-58685018D01*
X70364186Y-58749262D01*
X70501024Y-59196087D01*
X70501024Y-59196086D01*
X70675266Y-59629704D01*
X70675266Y-59629705D01*
X70885652Y-60046980D01*
X71130673Y-60444921D01*
X71408560Y-60820649D01*
X71717299Y-61171442D01*
X72054686Y-61494802D01*
X72253232Y-61655116D01*
X72418270Y-61788375D01*
X72752961Y-62014586D01*
X72805447Y-62050060D01*
X72805448Y-62050061D01*
X73213419Y-62277967D01*
X73639253Y-62470458D01*
X73639253Y-62470457D01*
X74079880Y-62626141D01*
X74079880Y-62626140D01*
X74532113Y-62743892D01*
X74992708Y-62822869D01*
X75167320Y-62837730D01*
X75458337Y-62862500D01*
X75458342Y-62862500D01*
X75925663Y-62862500D01*
X76216679Y-62837730D01*
X76391292Y-62822869D01*
X76851887Y-62743892D01*
X77304120Y-62626140D01*
X77304120Y-62626141D01*
X77744747Y-62470457D01*
X77744747Y-62470458D01*
X78170581Y-62277967D01*
X78578552Y-62050061D01*
X78578553Y-62050060D01*
X78631039Y-62014586D01*
X78965730Y-61788375D01*
X79130768Y-61655116D01*
X79329314Y-61494802D01*
X79666701Y-61171442D01*
X79975440Y-60820649D01*
X80253327Y-60444921D01*
X80498348Y-60046980D01*
X80708734Y-59629705D01*
X80708734Y-59629704D01*
X80882976Y-59196086D01*
X80882976Y-59196087D01*
X81019814Y-58749262D01*
X81036755Y-58670656D01*
X81118270Y-58292427D01*
X81118270Y-58292425D01*
X81177629Y-57828890D01*
X81197461Y-57362000D01*
X90676539Y-57362000D01*
X90696371Y-57828890D01*
X90755730Y-58292425D01*
X90755730Y-58292427D01*
X90837245Y-58670656D01*
X90854186Y-58749262D01*
X90991024Y-59196087D01*
X90991024Y-59196086D01*
X91165266Y-59629704D01*
X91165266Y-59629705D01*
X91375652Y-60046980D01*
X91620673Y-60444921D01*
X91898560Y-60820649D01*
X92207299Y-61171442D01*
X92544686Y-61494802D01*
X92743232Y-61655116D01*
X92908270Y-61788375D01*
X93242961Y-62014586D01*
X93295447Y-62050060D01*
X93295448Y-62050061D01*
X93703419Y-62277967D01*
X94129253Y-62470458D01*
X94129253Y-62470457D01*
X94569880Y-62626141D01*
X94569880Y-62626140D01*
X95022113Y-62743892D01*
X95482708Y-62822869D01*
X95657320Y-62837730D01*
X95948337Y-62862500D01*
X95948342Y-62862500D01*
X96415663Y-62862500D01*
X96706679Y-62837730D01*
X96881292Y-62822869D01*
X97341887Y-62743892D01*
X97794120Y-62626140D01*
X97794120Y-62626141D01*
X98234747Y-62470457D01*
X98234747Y-62470458D01*
X98660581Y-62277967D01*
X99068552Y-62050061D01*
X99068553Y-62050060D01*
X99121039Y-62014586D01*
X99455730Y-61788375D01*
X99620768Y-61655116D01*
X99819314Y-61494802D01*
X100156701Y-61171442D01*
X100465440Y-60820649D01*
X100743327Y-60444921D01*
X100988348Y-60046980D01*
X101198734Y-59629705D01*
X101198734Y-59629704D01*
X101372976Y-59196086D01*
X101372976Y-59196087D01*
X101509814Y-58749262D01*
X101526755Y-58670656D01*
X101608270Y-58292427D01*
X101608270Y-58292425D01*
X101667629Y-57828890D01*
X101687461Y-57362000D01*
X101667629Y-56895110D01*
X101608270Y-56431575D01*
X101608270Y-56431573D01*
X101509816Y-55974745D01*
X101509814Y-55974738D01*
X101372976Y-55527913D01*
X101372976Y-55527914D01*
X101198734Y-55094296D01*
X101198734Y-55094295D01*
X100988348Y-54677020D01*
X100743327Y-54279079D01*
X100465440Y-53903351D01*
X100156701Y-53552558D01*
X99819314Y-53229198D01*
X99597434Y-53050043D01*
X99455730Y-52935625D01*
X99068553Y-52673940D01*
X99068552Y-52673939D01*
X98660581Y-52446033D01*
X98234747Y-52253542D01*
X98234747Y-52253543D01*
X97794120Y-52097859D01*
X97794120Y-52097860D01*
X97341887Y-51980108D01*
X96881292Y-51901131D01*
X96706679Y-51886269D01*
X96415663Y-51861500D01*
X96415658Y-51861500D01*
X95948342Y-51861500D01*
X95948337Y-51861500D01*
X95657320Y-51886269D01*
X95482708Y-51901131D01*
X95022113Y-51980108D01*
X94569880Y-52097860D01*
X94569880Y-52097859D01*
X94129253Y-52253543D01*
X94129253Y-52253542D01*
X93703419Y-52446033D01*
X93295448Y-52673939D01*
X93295447Y-52673940D01*
X92908270Y-52935625D01*
X92766565Y-53050043D01*
X92544686Y-53229198D01*
X92207299Y-53552558D01*
X91898560Y-53903351D01*
X91620673Y-54279079D01*
X91375652Y-54677020D01*
X91165266Y-55094295D01*
X91165266Y-55094296D01*
X90991024Y-55527914D01*
X90991024Y-55527913D01*
X90854186Y-55974738D01*
X90854184Y-55974745D01*
X90755730Y-56431573D01*
X90755730Y-56431575D01*
X90696371Y-56895110D01*
X90676539Y-57362000D01*
X81197461Y-57362000D01*
X81177629Y-56895110D01*
X81118270Y-56431575D01*
X81118270Y-56431573D01*
X81019816Y-55974745D01*
X81019814Y-55974738D01*
X80882976Y-55527913D01*
X80882976Y-55527914D01*
X80708734Y-55094296D01*
X80708734Y-55094295D01*
X80498348Y-54677020D01*
X80253327Y-54279079D01*
X79975440Y-53903351D01*
X79666701Y-53552558D01*
X79329314Y-53229198D01*
X79107434Y-53050043D01*
X78965730Y-52935625D01*
X78578553Y-52673940D01*
X78578552Y-52673939D01*
X78170581Y-52446033D01*
X77744747Y-52253542D01*
X77744747Y-52253543D01*
X77304120Y-52097859D01*
X77304120Y-52097860D01*
X76851887Y-51980108D01*
X76391292Y-51901131D01*
X76216679Y-51886269D01*
X75925663Y-51861500D01*
X75925658Y-51861500D01*
X75458342Y-51861500D01*
X75458337Y-51861500D01*
X75167320Y-51886269D01*
X74992708Y-51901131D01*
X74532113Y-51980108D01*
X74079880Y-52097860D01*
X74079880Y-52097859D01*
X73639253Y-52253543D01*
X73639253Y-52253542D01*
X73213419Y-52446033D01*
X72805448Y-52673939D01*
X72805447Y-52673940D01*
X72418270Y-52935625D01*
X72276565Y-53050043D01*
X72054686Y-53229198D01*
X71717299Y-53552558D01*
X71408560Y-53903351D01*
X71130673Y-54279079D01*
X70885652Y-54677020D01*
X70675266Y-55094295D01*
X70675266Y-55094296D01*
X70501024Y-55527914D01*
X70501024Y-55527913D01*
X70364183Y-55974749D01*
X70364183Y-55974750D01*
X70350339Y-56038980D01*
X70316972Y-56100367D01*
X70305834Y-56110278D01*
X69544274Y-56709924D01*
X69479425Y-56735931D01*
X69467563Y-56736500D01*
X69329500Y-56736500D01*
X69262461Y-56716815D01*
X69216706Y-56664011D01*
X69205500Y-56612500D01*
X69205500Y-55840651D01*
X69205499Y-55840640D01*
X69200488Y-55800978D01*
X69190664Y-55723208D01*
X69132486Y-55576268D01*
X69132483Y-55576264D01*
X69132481Y-55576260D01*
X69039597Y-55448416D01*
X69039596Y-55448415D01*
X68917821Y-55347674D01*
X68774828Y-55280387D01*
X68774825Y-55280385D01*
X68694923Y-55265143D01*
X68619588Y-55250773D01*
X68619584Y-55250773D01*
X68461862Y-55260696D01*
X68461859Y-55260696D01*
X68311558Y-55309533D01*
X68178123Y-55394214D01*
X68069937Y-55509419D01*
X68069934Y-55509422D01*
X67993804Y-55647904D01*
X67993801Y-55647912D01*
X67954500Y-55800978D01*
X67954500Y-56612500D01*
X67934815Y-56679539D01*
X67882011Y-56725294D01*
X67830500Y-56736500D01*
X58290743Y-56736500D01*
X58275122Y-56734775D01*
X58275095Y-56735061D01*
X58267333Y-56734326D01*
X58198172Y-56736500D01*
X58168649Y-56736500D01*
X58161778Y-56737367D01*
X58155959Y-56737825D01*
X58109374Y-56739289D01*
X58109368Y-56739290D01*
X58090126Y-56744880D01*
X58071087Y-56748823D01*
X58051217Y-56751334D01*
X58051203Y-56751337D01*
X58007883Y-56768488D01*
X58002358Y-56770380D01*
X57957613Y-56783380D01*
X57957610Y-56783381D01*
X57940366Y-56793579D01*
X57922905Y-56802133D01*
X57904274Y-56809510D01*
X57904262Y-56809517D01*
X57866570Y-56836902D01*
X57861687Y-56840109D01*
X57821580Y-56863829D01*
X57807414Y-56877995D01*
X57792624Y-56890627D01*
X57776414Y-56902404D01*
X57776411Y-56902407D01*
X57746710Y-56938309D01*
X57742777Y-56942631D01*
X52947799Y-61737608D01*
X52929823Y-61752481D01*
X52923062Y-61757075D01*
X52923056Y-61757081D01*
X52885088Y-61800146D01*
X52882426Y-61802982D01*
X52869880Y-61815529D01*
X52869879Y-61815530D01*
X52869878Y-61815530D01*
X52858994Y-61829560D01*
X52856517Y-61832555D01*
X52818550Y-61875621D01*
X52818545Y-61875628D01*
X52814835Y-61882910D01*
X52802342Y-61902596D01*
X52797329Y-61909059D01*
X52774523Y-61961757D01*
X52772866Y-61965280D01*
X52746803Y-62016433D01*
X52746800Y-62016441D01*
X52745018Y-62024413D01*
X52737810Y-62046598D01*
X52734561Y-62054105D01*
X52725582Y-62110803D01*
X52724852Y-62114629D01*
X52712326Y-62170666D01*
X52712326Y-62170669D01*
X52712583Y-62178840D01*
X52711119Y-62202118D01*
X52709840Y-62210196D01*
X52709840Y-62210198D01*
X52715242Y-62267352D01*
X52715487Y-62271239D01*
X52717290Y-62328627D01*
X52719570Y-62336472D01*
X52723943Y-62359392D01*
X52724712Y-62367531D01*
X52724713Y-62367533D01*
X52741338Y-62413714D01*
X52744161Y-62421553D01*
X52745364Y-62425257D01*
X52761381Y-62480389D01*
X52761382Y-62480392D01*
X52765543Y-62487428D01*
X52775477Y-62508537D01*
X52778246Y-62516227D01*
X52778247Y-62516230D01*
X52810513Y-62563708D01*
X52812600Y-62566996D01*
X52841826Y-62616414D01*
X52841830Y-62616420D01*
X52841833Y-62616423D01*
X52847602Y-62622192D01*
X52862476Y-62640170D01*
X52867076Y-62646938D01*
X52873492Y-62652594D01*
X52910146Y-62684909D01*
X52912970Y-62687560D01*
X57644976Y-67419567D01*
X59189197Y-68963788D01*
X59199022Y-68976051D01*
X59199243Y-68975869D01*
X59204214Y-68981878D01*
X59230217Y-69006295D01*
X59254635Y-69029226D01*
X59275529Y-69050120D01*
X59281011Y-69054373D01*
X59285443Y-69058157D01*
X59319418Y-69090062D01*
X59336976Y-69099714D01*
X59353235Y-69110395D01*
X59369064Y-69122673D01*
X59411838Y-69141182D01*
X59417056Y-69143738D01*
X59457908Y-69166197D01*
X59477316Y-69171180D01*
X59495717Y-69177480D01*
X59514104Y-69185437D01*
X59557488Y-69192308D01*
X59560119Y-69192725D01*
X59565839Y-69193909D01*
X59610981Y-69205500D01*
X59631016Y-69205500D01*
X59650414Y-69207026D01*
X59670194Y-69210159D01*
X59670195Y-69210160D01*
X59670195Y-69210159D01*
X59670196Y-69210160D01*
X59716584Y-69205775D01*
X59722422Y-69205500D01*
X66866677Y-69205500D01*
X66933716Y-69225185D01*
X66979471Y-69277989D01*
X66989415Y-69347147D01*
X66988801Y-69350983D01*
X66983856Y-69379033D01*
X66983856Y-69379038D01*
X66983856Y-69539346D01*
X66983900Y-69540071D01*
X66983900Y-69540963D01*
X67012015Y-69700432D01*
X67067392Y-69852595D01*
X67067393Y-69852596D01*
X67098782Y-69906968D01*
X67140386Y-69979036D01*
X67151055Y-69997516D01*
X67148925Y-69998745D01*
X67167893Y-70055179D01*
X67150946Y-70122402D01*
X67151035Y-70122453D01*
X67150855Y-70122763D01*
X67150814Y-70122929D01*
X67150283Y-70123754D01*
X67067369Y-70267378D01*
X67067362Y-70267392D01*
X67011984Y-70419557D01*
X66983867Y-70579027D01*
X66983867Y-70739454D01*
X66983900Y-70739997D01*
X66983900Y-70740969D01*
X67012016Y-70900433D01*
X67067392Y-71052592D01*
X67067394Y-71052597D01*
X67067395Y-71052599D01*
X67067396Y-71052601D01*
X67148356Y-71192840D01*
X67148357Y-71192842D01*
X67151063Y-71197528D01*
X67148907Y-71198772D01*
X67167888Y-71255052D01*
X67150979Y-71322420D01*
X67151035Y-71322453D01*
X67150921Y-71322648D01*
X67150879Y-71322820D01*
X67150328Y-71323677D01*
X67067369Y-71467378D01*
X67067362Y-71467392D01*
X67011984Y-71619557D01*
X66983867Y-71779027D01*
X66983867Y-71939454D01*
X66983900Y-71939997D01*
X66983900Y-71940969D01*
X67012016Y-72100433D01*
X67067392Y-72252592D01*
X67067394Y-72252597D01*
X67067395Y-72252599D01*
X67067396Y-72252601D01*
X67148356Y-72392840D01*
X67148357Y-72392842D01*
X67151063Y-72397528D01*
X67148907Y-72398772D01*
X67167888Y-72455052D01*
X67150979Y-72522420D01*
X67151035Y-72522453D01*
X67150921Y-72522648D01*
X67150879Y-72522820D01*
X67150328Y-72523677D01*
X67067369Y-72667378D01*
X67067362Y-72667392D01*
X67011984Y-72819557D01*
X66983867Y-72979027D01*
X66983867Y-73139454D01*
X66983900Y-73139997D01*
X66983900Y-73140969D01*
X67012016Y-73300433D01*
X67067392Y-73452592D01*
X67067394Y-73452597D01*
X67067395Y-73452599D01*
X67067396Y-73452601D01*
X67148356Y-73592840D01*
X67148358Y-73592842D01*
X67148359Y-73592844D01*
X67252431Y-73716885D01*
X67252435Y-73716888D01*
X67252437Y-73716891D01*
X67252442Y-73716895D01*
X67376473Y-73820983D01*
X67376474Y-73820984D01*
X67376476Y-73820985D01*
X67516706Y-73901960D01*
X67668866Y-73957357D01*
X67668869Y-73957358D01*
X67796394Y-73979856D01*
X67828333Y-73985491D01*
X67828339Y-73985491D01*
X67828441Y-73985500D01*
X67830348Y-73985500D01*
X67830500Y-73985500D01*
X67831375Y-73985757D01*
X67834652Y-73986044D01*
X67838124Y-73986484D01*
X67837970Y-73987693D01*
X67897539Y-74005185D01*
X67943294Y-74057989D01*
X67954500Y-74109500D01*
X67954500Y-80521000D01*
X67934815Y-80588039D01*
X67882011Y-80633794D01*
X67830500Y-80645000D01*
X60858269Y-80645000D01*
X60791230Y-80625315D01*
X60745475Y-80572511D01*
X60735330Y-80537184D01*
X60727044Y-80474238D01*
X60727042Y-80474234D01*
X60718435Y-80453455D01*
X60710965Y-80383986D01*
X60718435Y-80358545D01*
X60727044Y-80337762D01*
X60742500Y-80220361D01*
X60742499Y-79941640D01*
X60727044Y-79824238D01*
X60727042Y-79824234D01*
X60718435Y-79803455D01*
X60710965Y-79733986D01*
X60718435Y-79708545D01*
X60727044Y-79687762D01*
X60742500Y-79570361D01*
X60742499Y-79291640D01*
X60727044Y-79174238D01*
X60727042Y-79174234D01*
X60718435Y-79153455D01*
X60710965Y-79083986D01*
X60718435Y-79058545D01*
X60727044Y-79037762D01*
X60742500Y-78920361D01*
X60742499Y-78641640D01*
X60727044Y-78524238D01*
X60727042Y-78524234D01*
X60718435Y-78503455D01*
X60710965Y-78433986D01*
X60718435Y-78408545D01*
X60719128Y-78406872D01*
X60727044Y-78387762D01*
X60742500Y-78270361D01*
X60742499Y-77991640D01*
X60727044Y-77874238D01*
X60727042Y-77874234D01*
X60718435Y-77853455D01*
X60710965Y-77783986D01*
X60718435Y-77758545D01*
X60727044Y-77737762D01*
X60742500Y-77620361D01*
X60742499Y-77341640D01*
X60742499Y-77341638D01*
X60742499Y-77341636D01*
X60727046Y-77224246D01*
X60727044Y-77224239D01*
X60727044Y-77224238D01*
X60666536Y-77078159D01*
X60570282Y-76952718D01*
X60444841Y-76856464D01*
X60298762Y-76795956D01*
X60298760Y-76795955D01*
X60181370Y-76780501D01*
X60181367Y-76780500D01*
X60181361Y-76780500D01*
X60181354Y-76780500D01*
X58827636Y-76780500D01*
X58710246Y-76795953D01*
X58710237Y-76795956D01*
X58564160Y-76856463D01*
X58438718Y-76952718D01*
X58342463Y-77078160D01*
X58281956Y-77224237D01*
X58281955Y-77224239D01*
X58266500Y-77341638D01*
X58266500Y-77620363D01*
X58281953Y-77737753D01*
X58281957Y-77737765D01*
X58290566Y-77758550D01*
X58298033Y-77828019D01*
X58290566Y-77853450D01*
X58281957Y-77874234D01*
X58281955Y-77874239D01*
X58266500Y-77991638D01*
X58266500Y-78270363D01*
X58281953Y-78387753D01*
X58281957Y-78387765D01*
X58290566Y-78408550D01*
X58298033Y-78478019D01*
X58290566Y-78503450D01*
X58281957Y-78524234D01*
X58281955Y-78524239D01*
X58266500Y-78641638D01*
X58266500Y-78920363D01*
X58281953Y-79037753D01*
X58281957Y-79037765D01*
X58290566Y-79058550D01*
X58298033Y-79128019D01*
X58290566Y-79153450D01*
X58281957Y-79174234D01*
X58281955Y-79174239D01*
X58266500Y-79291638D01*
X58266500Y-79570363D01*
X58281953Y-79687753D01*
X58281957Y-79687765D01*
X58290566Y-79708550D01*
X58298033Y-79778019D01*
X58290566Y-79803450D01*
X58281957Y-79824234D01*
X58281955Y-79824239D01*
X58266500Y-79941638D01*
X58266500Y-80220363D01*
X58281953Y-80337753D01*
X58281957Y-80337765D01*
X58290566Y-80358550D01*
X58298033Y-80428019D01*
X58290566Y-80453450D01*
X58281957Y-80474234D01*
X58281955Y-80474239D01*
X58273669Y-80537185D01*
X58245403Y-80601082D01*
X58187078Y-80639553D01*
X58150730Y-80645000D01*
X55133269Y-80645000D01*
X55066230Y-80625315D01*
X55020475Y-80572511D01*
X55010330Y-80537184D01*
X55002044Y-80474238D01*
X55002042Y-80474234D01*
X54993435Y-80453455D01*
X54985965Y-80383986D01*
X54993435Y-80358545D01*
X55002044Y-80337762D01*
X55017500Y-80220361D01*
X55017499Y-79941640D01*
X55002044Y-79824238D01*
X55002042Y-79824234D01*
X54993435Y-79803455D01*
X54985965Y-79733986D01*
X54993435Y-79708545D01*
X55002044Y-79687762D01*
X55017500Y-79570361D01*
X55017499Y-79291640D01*
X55002044Y-79174238D01*
X55002042Y-79174234D01*
X54993435Y-79153455D01*
X54985965Y-79083986D01*
X54993435Y-79058545D01*
X55002044Y-79037762D01*
X55017500Y-78920361D01*
X55017499Y-78641640D01*
X55002044Y-78524238D01*
X55002042Y-78524234D01*
X54993435Y-78503455D01*
X54985965Y-78433986D01*
X54993435Y-78408545D01*
X54994128Y-78406872D01*
X55002044Y-78387762D01*
X55017500Y-78270361D01*
X55017499Y-77991640D01*
X55002044Y-77874238D01*
X55002042Y-77874234D01*
X54993435Y-77853455D01*
X54985965Y-77783986D01*
X54993435Y-77758545D01*
X55002044Y-77737762D01*
X55017500Y-77620361D01*
X55017499Y-77341640D01*
X55017499Y-77341638D01*
X55017499Y-77341636D01*
X55002046Y-77224246D01*
X55002044Y-77224239D01*
X55002044Y-77224238D01*
X54941536Y-77078159D01*
X54845282Y-76952718D01*
X54719841Y-76856464D01*
X54573762Y-76795956D01*
X54573760Y-76795955D01*
X54456370Y-76780501D01*
X54456367Y-76780500D01*
X54456361Y-76780500D01*
X54456354Y-76780500D01*
X53102636Y-76780500D01*
X52985246Y-76795953D01*
X52985237Y-76795956D01*
X52839160Y-76856463D01*
X52713718Y-76952718D01*
X52617463Y-77078160D01*
X52556956Y-77224237D01*
X52556955Y-77224239D01*
X52541500Y-77341638D01*
X52541500Y-77620363D01*
X52556953Y-77737753D01*
X52556957Y-77737765D01*
X52565566Y-77758550D01*
X52573033Y-77828019D01*
X52565566Y-77853450D01*
X52556957Y-77874234D01*
X52556955Y-77874239D01*
X52541500Y-77991638D01*
X52541500Y-78270363D01*
X52556953Y-78387753D01*
X52556957Y-78387765D01*
X52565566Y-78408550D01*
X52573033Y-78478019D01*
X52565566Y-78503450D01*
X52556957Y-78524234D01*
X52556955Y-78524239D01*
X52541500Y-78641638D01*
X52541500Y-78920363D01*
X52556953Y-79037753D01*
X52556957Y-79037765D01*
X52565566Y-79058550D01*
X52573033Y-79128019D01*
X52565566Y-79153450D01*
X52556957Y-79174234D01*
X52556955Y-79174239D01*
X52541500Y-79291638D01*
X52541500Y-79570363D01*
X52556953Y-79687753D01*
X52556957Y-79687765D01*
X52565566Y-79708550D01*
X52573033Y-79778019D01*
X52565566Y-79803450D01*
X52556957Y-79824234D01*
X52556955Y-79824239D01*
X52541500Y-79941638D01*
X52541500Y-80220363D01*
X52556953Y-80337753D01*
X52556957Y-80337765D01*
X52565566Y-80358550D01*
X52573033Y-80428019D01*
X52565566Y-80453450D01*
X52556957Y-80474234D01*
X52556955Y-80474239D01*
X52548669Y-80537185D01*
X52520403Y-80601082D01*
X52462078Y-80639553D01*
X52425730Y-80645000D01*
X47114000Y-80645000D01*
X47046961Y-80625315D01*
X47001206Y-80572511D01*
X46990000Y-80521000D01*
X46990000Y-49019000D01*
X47009685Y-48951961D01*
X47062489Y-48906206D01*
X47114000Y-48895000D01*
X145363638Y-48895000D01*
X145430677Y-48914685D01*
G37*
%TD.AperFunction*%
M02*
