%TF.GenerationSoftware,KiCad,Pcbnew,7.0.8*%
%TF.CreationDate,2023-11-15T21:58:07-05:00*%
%TF.ProjectId,BMS1,424d5331-2e6b-4696-9361-645f70636258,1*%
%TF.SameCoordinates,Original*%
%TF.FileFunction,Soldermask,Bot*%
%TF.FilePolarity,Negative*%
%FSLAX46Y46*%
G04 Gerber Fmt 4.6, Leading zero omitted, Abs format (unit mm)*
G04 Created by KiCad (PCBNEW 7.0.8) date 2023-11-15 21:58:07*
%MOMM*%
%LPD*%
G01*
G04 APERTURE LIST*
G04 Aperture macros list*
%AMRoundRect*
0 Rectangle with rounded corners*
0 $1 Rounding radius*
0 $2 $3 $4 $5 $6 $7 $8 $9 X,Y pos of 4 corners*
0 Add a 4 corners polygon primitive as box body*
4,1,4,$2,$3,$4,$5,$6,$7,$8,$9,$2,$3,0*
0 Add four circle primitives for the rounded corners*
1,1,$1+$1,$2,$3*
1,1,$1+$1,$4,$5*
1,1,$1+$1,$6,$7*
1,1,$1+$1,$8,$9*
0 Add four rect primitives between the rounded corners*
20,1,$1+$1,$2,$3,$4,$5,0*
20,1,$1+$1,$4,$5,$6,$7,0*
20,1,$1+$1,$6,$7,$8,$9,0*
20,1,$1+$1,$8,$9,$2,$3,0*%
G04 Aperture macros list end*
%ADD10C,10.200000*%
%ADD11C,2.200000*%
%ADD12RoundRect,0.350000X-0.600000X-0.750000X0.600000X-0.750000X0.600000X0.750000X-0.600000X0.750000X0*%
%ADD13O,1.900000X2.200000*%
%ADD14RoundRect,0.350000X-0.750000X0.600000X-0.750000X-0.600000X0.750000X-0.600000X0.750000X0.600000X0*%
%ADD15O,2.200000X1.900000*%
G04 APERTURE END LIST*
D10*
%TO.C,B3*%
X125528000Y-118216000D03*
X125528000Y-163216000D03*
D11*
X130528000Y-142116000D03*
X130528000Y-139316000D03*
%TD*%
D10*
%TO.C,B2*%
X104908000Y-163216000D03*
X104908000Y-118216000D03*
D11*
X99908000Y-139316000D03*
X99908000Y-142116000D03*
%TD*%
D10*
%TO.C,B4*%
X146128000Y-163216000D03*
X146128000Y-118216000D03*
D11*
X141128000Y-139316000D03*
X141128000Y-142116000D03*
%TD*%
D10*
%TO.C,B16*%
X270444000Y-33532500D03*
X270444000Y-78532500D03*
D11*
X275444000Y-57432500D03*
X275444000Y-54632500D03*
%TD*%
D10*
%TO.C,B15*%
X291044000Y-78532500D03*
X291044000Y-33532500D03*
D11*
X286044000Y-54632500D03*
X286044000Y-57432500D03*
%TD*%
D10*
%TO.C,B19*%
X208644000Y-78532500D03*
X208644000Y-33532500D03*
D11*
X203644000Y-54632500D03*
X203644000Y-57432500D03*
%TD*%
D10*
%TO.C,B13*%
X332244000Y-78532500D03*
X332244000Y-33532500D03*
D11*
X327244000Y-54632500D03*
X327244000Y-57432500D03*
%TD*%
D10*
%TO.C,B20*%
X188044000Y-33532500D03*
X188044000Y-78532500D03*
D11*
X193044000Y-57432500D03*
X193044000Y-54632500D03*
%TD*%
D12*
%TO.C,J3*%
X39791000Y-168783000D03*
D13*
X42291000Y-168783000D03*
%TD*%
D10*
%TO.C,B18*%
X229244000Y-33532500D03*
X229244000Y-78532500D03*
D11*
X234244000Y-57432500D03*
X234244000Y-54632500D03*
%TD*%
D10*
%TO.C,B6*%
X187328000Y-163216000D03*
X187328000Y-118216000D03*
D11*
X182328000Y-139316000D03*
X182328000Y-142116000D03*
%TD*%
D10*
%TO.C,B17*%
X249844000Y-78532500D03*
X249844000Y-33532500D03*
D11*
X244844000Y-54632500D03*
X244844000Y-57432500D03*
%TD*%
D10*
%TO.C,B21*%
X167444000Y-78532500D03*
X167444000Y-33532500D03*
D11*
X162444000Y-54632500D03*
X162444000Y-57432500D03*
%TD*%
D10*
%TO.C,B14*%
X311644000Y-33532500D03*
X311644000Y-78532500D03*
D11*
X316644000Y-57432500D03*
X316644000Y-54632500D03*
%TD*%
D14*
%TO.C,J2*%
X34053000Y-64282000D03*
D15*
X34053000Y-66782000D03*
%TD*%
D10*
%TO.C,B9*%
X249128000Y-118216000D03*
X249128000Y-163216000D03*
D11*
X254128000Y-142116000D03*
X254128000Y-139316000D03*
%TD*%
D10*
%TO.C,B24*%
X105644000Y-33532500D03*
X105644000Y-78532500D03*
D11*
X110644000Y-57432500D03*
X110644000Y-54632500D03*
%TD*%
D10*
%TO.C,B8*%
X228528000Y-163216000D03*
X228528000Y-118216000D03*
D11*
X223528000Y-139316000D03*
X223528000Y-142116000D03*
%TD*%
D10*
%TO.C,B10*%
X269728000Y-163216000D03*
X269728000Y-118216000D03*
D11*
X264728000Y-139316000D03*
X264728000Y-142116000D03*
%TD*%
D10*
%TO.C,B12*%
X310928000Y-163216000D03*
X310928000Y-118216000D03*
D11*
X305928000Y-139316000D03*
X305928000Y-142116000D03*
%TD*%
D10*
%TO.C,B25*%
X85044000Y-78532500D03*
X85044000Y-33532500D03*
D11*
X80044000Y-54632500D03*
X80044000Y-57432500D03*
%TD*%
D10*
%TO.C,B11*%
X290328000Y-118216000D03*
X290328000Y-163216000D03*
D11*
X295328000Y-142116000D03*
X295328000Y-139316000D03*
%TD*%
D10*
%TO.C,B22*%
X146844000Y-33532500D03*
X146844000Y-78532500D03*
D11*
X151844000Y-57432500D03*
X151844000Y-54632500D03*
%TD*%
D10*
%TO.C,B1*%
X84328000Y-118216000D03*
X84328000Y-163216000D03*
D11*
X89328000Y-142116000D03*
X89328000Y-139316000D03*
%TD*%
D10*
%TO.C,B5*%
X166728000Y-118216000D03*
X166728000Y-163216000D03*
D11*
X171728000Y-142116000D03*
X171728000Y-139316000D03*
%TD*%
D14*
%TO.C,J1*%
X39442000Y-81554000D03*
D15*
X39442000Y-84054000D03*
%TD*%
D10*
%TO.C,B23*%
X126244000Y-78532500D03*
X126244000Y-33532500D03*
D11*
X121244000Y-54632500D03*
X121244000Y-57432500D03*
%TD*%
D10*
%TO.C,B7*%
X207928000Y-118216000D03*
X207928000Y-163216000D03*
D11*
X212928000Y-142116000D03*
X212928000Y-139316000D03*
%TD*%
M02*
