M48
; DRILL file {KiCad 7.0.8} date 2023 November 15, Wednesday 21:57:57
; FORMAT={-:-/ absolute / metric / decimal}
; #@! TF.CreationDate,2023-11-15T21:57:57-05:00
; #@! TF.GenerationSoftware,Kicad,Pcbnew,7.0.8
; #@! TF.FileFunction,Plated,1,2,PTH
FMAT,2
METRIC
; #@! TA.AperFunction,Plated,PTH,ViaDrill
T1C0.400
; #@! TA.AperFunction,Plated,PTH,ComponentDrill
T2C1.000
; #@! TA.AperFunction,Plated,PTH,ComponentDrill
T3C5.800
%
G90
G05
T1
X31.496Y-23.368
X31.496Y-32.004
X31.496Y-42.672
X31.496Y-57.912
X31.496Y-76.708
X33.528Y-89.408
X34.036Y-47.752
X34.036Y-49.784
X34.036Y-71.12
X34.036Y-75.184
X36.068Y-48.768
X36.576Y-39.624
X37.465Y-124.46
X38.1Y-47.752
X38.1Y-49.784
X38.1Y-107.95
X39.116Y-72.136
X39.116Y-75.184
X40.132Y-65.532
X40.132Y-89.408
X41.656Y-40.132
X42.164Y-46.228
X42.291Y-159.766
X42.545Y-131.445
X42.545Y-135.001
X42.672Y-22.86
X43.18Y-120.65
X44.704Y-47.244
X44.704Y-72.644
X44.704Y-75.184
X45.212Y-51.816
X45.212Y-89.408
X46.224Y-58.424
X46.228Y-54.864
X46.228Y-60.452
X46.355Y-124.46
X47.371Y-44.45
X47.625Y-119.38
X48.895Y-122.555
X49.276Y-58.15
X49.276Y-126.238
X49.276Y-132.334
X49.784Y-143.256
X49.784Y-144.399
X50.8Y-42.164
X50.8Y-48.26
X50.8Y-52.324
X50.8Y-70.104
X50.8Y-107.95
X50.8Y-120.65
X50.8Y-124.46
X50.921Y-58.901
X50.927Y-53.721
X50.927Y-55.626
X50.927Y-57.531
X51.308Y-89.408
X51.308Y-138.938
X51.308Y-143.002
X51.435Y-141.097
X51.566Y-137.41
X52.07Y-49.149
X52.07Y-123.19
X52.324Y-30.988
X52.832Y-23.876
X52.832Y-53.721
X52.832Y-55.626
X52.832Y-57.531
X53.086Y-59.309
X53.34Y-120.015
X53.34Y-138.938
X53.34Y-141.097
X53.34Y-143.002
X53.859Y-137.408
X54.102Y-59.436
X54.356Y-79.756
X54.61Y-53.721
X54.61Y-55.499
X54.61Y-57.531
X54.61Y-122.555
X55.118Y-137.16
X55.245Y-141.097
X55.372Y-62.357
X55.372Y-83.312
X55.372Y-138.938
X55.372Y-143.002
X55.372Y-144.272
X55.88Y-46.482
X55.88Y-52.324
X55.88Y-120.015
X56.388Y-56.277
X56.388Y-57.277
X56.388Y-58.42
X56.388Y-137.414
X56.896Y-28.956
X56.896Y-36.068
X57.023Y-48.768
X58.42Y-120.015
X59.436Y-22.352
X59.436Y-89.408
X59.69Y-168.148
X59.944Y-134.62
X60.706Y-131.572
X60.706Y-138.498
X60.96Y-50.8
X61.595Y-116.84
X62.484Y-28.956
X62.865Y-75.565
X63.246Y-169.164
X63.5Y-111.76
X64.135Y-107.95
X64.262Y-163.068
X65.024Y-24.384
X65.405Y-155.575
X66.04Y-39.624
X66.04Y-52.07
X66.548Y-88.9
X66.548Y-144.78
X66.675Y-54.61
X68.326Y-74.041
X70.485Y-135.89
X70.612Y-23.368
X70.739Y-72.898
X71.628Y-126.238
X72.644Y-32.004
X73.025Y-62.865
X73.99Y-49.047
X73.99Y-55.397
X74.676Y-130.556
X74.676Y-137.668
X74.93Y-129.032
X75.692Y-29.464
X75.692Y-138.684
X75.692Y-144.018
X76.454Y-142.494
X77.216Y-23.876
X78.232Y-31.496
X78.359Y-45.212
X78.994Y-128.524
X79.248Y-59.383
X79.756Y-43.18
X80.264Y-133.858
X80.518Y-69.596
X89.408Y-53.34
X89.408Y-55.372
X89.408Y-57.912
X89.408Y-59.944
X92.202Y-154.686
X92.456Y-54.864
X92.456Y-58.42
X97.536Y-53.34
X98.044Y-59.944
X100.584Y-56.896
X101.092Y-53.848
X102.108Y-65.913
X102.362Y-131.064
X102.616Y-46.482
X111.76Y-136.525
X111.76Y-139.7
X111.76Y-142.875
X118.11Y-130.81
X118.11Y-150.495
X118.11Y-153.67
X119.38Y-137.16
X119.38Y-139.065
X119.38Y-141.605
X120.396Y-60.96
X123.698Y-65.278
X123.952Y-63.714
X125.984Y-48.198
X129.54Y-150.495
X129.54Y-154.305
X130.048Y-65.024
X131.445Y-159.385
X132.08Y-131.445
X132.588Y-60.96
X132.715Y-150.495
X132.715Y-154.305
X137.795Y-142.875
X139.065Y-151.765
X139.065Y-154.305
X139.065Y-159.385
X140.72Y-64.004
X141.224Y-49.276
X142.24Y-48.02
X142.24Y-64.766
X145.415Y-45.295
X145.796Y-48.545
X146.05Y-151.638
X146.304Y-64.524
X146.431Y-46.101
X147.32Y-148.336
X150.495Y-142.24
X150.622Y-153.67
X151.13Y-137.795
X151.765Y-140.335
X153.035Y-43.18
X153.035Y-138.43
X153.162Y-63.754
X154.305Y-142.875
X154.432Y-41.783
X155.956Y-43.688
X158.115Y-133.35
X158.115Y-144.78
X158.75Y-139.065
X159.004Y-58.42
X159.512Y-43.688
X159.766Y-60.96
X160.02Y-45.356
X160.02Y-132.715
X160.02Y-137.16
X160.02Y-142.875
X161.29Y-131.445
X161.29Y-144.78
X161.925Y-139.7
X164.592Y-43.688
X164.592Y-47.244
X165.862Y-152.146
X166.116Y-131.318
X168.406Y-126.742
X169.164Y-133.642
X169.926Y-132.588
X172.72Y-135.89
X172.72Y-149.225
X175.627Y-147.978
X178.435Y-149.86
X179.07Y-146.685
X187.198Y-129.54
X196.85Y-56.896
X205.105Y-64.77
X228.346Y-129.286
X228.727Y-48.387
X234.696Y-157.734
X238.125Y-135.89
X240.665Y-135.89
X242.57Y-135.89
X243.84Y-132.08
X243.84Y-135.89
X243.84Y-137.16
X243.84Y-139.065
X243.84Y-141.605
X247.015Y-135.89
X248.285Y-135.89
X249.555Y-135.89
X250.698Y-148.073
X251.46Y-134.112
X252.476Y-147.32
X256.286Y-128.016
X256.286Y-153.124
X256.54Y-131.826
X260.604Y-128.575
X262.382Y-135.89
X263.906Y-48.006
X263.906Y-69.342
X264.16Y-45.282
X264.414Y-145.288
X264.922Y-47.498
X265.176Y-43.561
X267.716Y-42.672
X269.494Y-65.532
X269.748Y-129.54
X271.145Y-68.326
X275.844Y-65.786
X276.352Y-69.596
X277.876Y-65.024
X278.892Y-61.468
X288.417Y-65.278
X290.322Y-148.336
X297.688Y-66.548
X299.466Y-58.928
T2
X34.053Y-64.282
X34.053Y-66.782
X39.442Y-81.554
X39.442Y-84.054
X39.791Y-168.783
X42.291Y-168.783
X80.044Y-54.633
X80.044Y-57.432
X89.328Y-139.316
X89.328Y-142.116
X99.908Y-139.316
X99.908Y-142.116
X110.644Y-54.633
X110.644Y-57.432
X121.244Y-54.633
X121.244Y-57.432
X130.528Y-139.316
X130.528Y-142.116
X141.128Y-139.316
X141.128Y-142.116
X151.844Y-54.633
X151.844Y-57.432
X162.444Y-54.633
X162.444Y-57.432
X171.728Y-139.316
X171.728Y-142.116
X182.328Y-139.316
X182.328Y-142.116
X193.044Y-54.633
X193.044Y-57.432
X203.644Y-54.633
X203.644Y-57.432
X212.928Y-139.316
X212.928Y-142.116
X223.528Y-139.316
X223.528Y-142.116
X234.244Y-54.633
X234.244Y-57.432
X244.844Y-54.633
X244.844Y-57.432
X254.128Y-139.316
X254.128Y-142.116
X264.728Y-139.316
X264.728Y-142.116
X275.444Y-54.633
X275.444Y-57.432
X286.044Y-54.633
X286.044Y-57.432
X295.328Y-139.316
X295.328Y-142.116
X305.928Y-139.316
X305.928Y-142.116
X316.644Y-54.633
X316.644Y-57.432
X327.244Y-54.633
X327.244Y-57.432
T3
X84.328Y-118.216
X84.328Y-163.216
X85.044Y-33.532
X85.044Y-78.532
X104.908Y-118.216
X104.908Y-163.216
X105.644Y-33.532
X105.644Y-78.532
X125.528Y-118.216
X125.528Y-163.216
X126.244Y-33.532
X126.244Y-78.532
X146.128Y-118.216
X146.128Y-163.216
X146.844Y-33.532
X146.844Y-78.532
X166.728Y-118.216
X166.728Y-163.216
X167.444Y-33.532
X167.444Y-78.532
X187.328Y-118.216
X187.328Y-163.216
X188.044Y-33.532
X188.044Y-78.532
X207.928Y-118.216
X207.928Y-163.216
X208.644Y-33.532
X208.644Y-78.532
X228.528Y-118.216
X228.528Y-163.216
X229.244Y-33.532
X229.244Y-78.532
X249.128Y-118.216
X249.128Y-163.216
X249.844Y-33.532
X249.844Y-78.532
X269.728Y-118.216
X269.728Y-163.216
X270.444Y-33.532
X270.444Y-78.532
X290.328Y-118.216
X290.328Y-163.216
X291.044Y-33.532
X291.044Y-78.532
X310.928Y-118.216
X310.928Y-163.216
X311.644Y-33.532
X311.644Y-78.532
X332.244Y-33.532
X332.244Y-78.532
T0
M30
